<svg xmlns="http://www.w3.org/2000/svg" width="885.759" height="719.528" viewBox="0 0 885.759 719.528">
  <g id="Group_341" data-name="Group 341" transform="translate(-836.259 -1123.659)">
    <g id="Group_220" data-name="Group 220">
      <path id="Path_730" data-name="Path 730" d="M1017.376,1547.591l-33.3-27.266c-1.963-11.512-11.546-10.3-16.862-8.673a26.427,26.427,0,0,0-3.579,1.365c-.054,1.541-.062,2.954,0,4.239.029.651.081,1.264.133,1.851.038.474.1.937.159,1.373.612,4.429,2.023,7.1,3.77,8.621,2.422,2.135,5.507,2.054,8,1.43q.414-.1.811-.225l1.594,1.37,35.71,30.535a23.018,23.018,0,0,1-1.777-4.168c-.442-1.772.219-4.331,2.314-7.146A22.382,22.382,0,0,1,1017.376,1547.591Z" fill="#f7a226"/>
      <path id="Path_731" data-name="Path 731" d="M1047.84,1583.658c-.45.227-.907.47-1.363.713-1.315.7-2.694,1.411-4.079,2.107a9.465,9.465,0,0,1,5.291-.2A14.825,14.825,0,0,1,1047.84,1583.658Z" fill="#f7a226"/>
      <path id="Path_732" data-name="Path 732" d="M1017.376,1547.591l-33.3-27.266c-1.963-11.512-11.546-10.3-16.862-8.673a26.427,26.427,0,0,0-3.579,1.365c-.054,1.541-.062,2.954,0,4.239.029.651.081,1.264.133,1.851.038.474.1.937.159,1.373,4.715-3.485,12.742-6.348,14.423-.366,1.226,4.351-.764,8.06-2.651,10.417q.414-.1.811-.225l1.594,1.37,4.034-7.163,32.213,26.384A22.382,22.382,0,0,1,1017.376,1547.591Z" opacity="0.37" style="mix-blend-mode: soft-light;isolation: isolate"/>
      <path id="Path_733" data-name="Path 733" d="M1047.84,1583.658c-.45.227-.907.47-1.363.713-1.315.7-2.694,1.411-4.079,2.107a9.465,9.465,0,0,1,5.291-.2A14.825,14.825,0,0,1,1047.84,1583.658Z" opacity="0.37" style="mix-blend-mode: soft-light;isolation: isolate"/>
    </g>
    <path id="Path_734" data-name="Path 734" d="M1078.866,1575.12s-6.648,42.217-52.954,38.231-67.52-9.123-86.619,6.534-28.036,34.059-45.734,32.053-34.067-17.73-57.3,10.291c0,0,29.045,30.449,59.284-2.222,0,0,18.616,7.409,48.006-29.456,0,0,11.064-13.069,41.126-6.93s93.5,12.771,104.488-38.185S1078.866,1575.12,1078.866,1575.12Z" fill="#af7351"/>
    <path id="Path_735" data-name="Path 735" d="M895.543,1660.008s18.617,7.409,48.006-29.457c0,0,11.06-13.073,41.122-6.933s93.505,12.77,104.5-38.186-10.3-10.316-10.3-10.316a50.792,50.792,0,0,1-5.525,14.992c-3.739,33.269-38.286,29.677-55.06,30.2-16.792.513-49.394-7.6-64.841-2.16s-23.713,19.869-37.9,31.3-19.3,4.295-27.361,6.581c-8.04,2.285-14.033.967-21.473.638-7.456-.328-16.711,2.035-16.711,2.035a77.107,77.107,0,0,1,16.615,1.608c7.834,1.825,18.656.277,18.656.277-8.852,4.158-17.951,4.079-33.582,1.04a34.85,34.85,0,0,0-14.976.051c-.143.179-.3.358-.453.544C836.259,1662.23,865.3,1692.679,895.543,1660.008Z" opacity="0.37" style="mix-blend-mode: soft-light;isolation: isolate"/>
    <path id="Path_736" data-name="Path 736" d="M1232.086,1575.121a388.647,388.647,0,0,1-16.573,57.983c-7.559,20.162-17.873,41.426-31.187,56.217a70.8,70.8,0,0,1-14.446,11.995c-41.406,26.864-119.887,33.43-119.887,33.43-13.568,13.5-48.764,47.477-54.775,54.745-5.99,7.264-1.144,45.525-5.456,51.094-4.308,5.59-36.817,1.855-40.805-8.158-4.014-10.029,6.318-33.018,2.975-46.557s7.689-5.564,21.174-40,67.328-86.982,67.328-86.982c3.743-35.417,14.3-59.993,27.144-77.039,29.215-38.79,70.342-38.633,70.342-38.633Z" fill="#c43939"/>
    <path id="Path_737" data-name="Path 737" d="M1232.086,1575.121a388.647,388.647,0,0,1-16.573,57.983c-1.438,3.817-2.958,7.672-4.611,11.531-8.71-20.8-20.979-21.1-20.979-21.1,6.563,36.424,2.193,44.531,2.193,44.531-4.556-13.567-11.131-21.392-11.131-21.392,3.479,20.688,3.957,34.1,3.544,42.431a1.723,1.723,0,0,0-.2.219,70.8,70.8,0,0,1-14.446,11.995c-41.406,26.864-119.887,33.43-119.887,33.43-13.568,13.5-48.764,47.477-54.775,54.745-5.99,7.264-1.144,45.525-5.456,51.094-4.308,5.59-36.817,1.855-40.805-8.158-4.014-10.029,6.318-33.018,2.975-46.557s7.689-5.564,21.174-40,67.328-86.982,67.328-86.982c.446-4.314,1.015-8.451,1.658-12.446,13.112,5.373,43.533,12.918,82.377-9.37,0,0-52.344,2.37-78.207-9.72-.026-.017-.051-.034-.073-.03,1.316-4.888,2.8-9.5,4.4-13.837,20.249,11.745,69.645,33.634,98.5-11.032,0,0-52.578,18.514-88.253-10.555a116.516,116.516,0,0,1,6.736-10.049c29.215-38.79,70.342-38.633,70.342-38.633Z" opacity="0.37" style="mix-blend-mode: soft-light;isolation: isolate"/>
    <path id="Path_738" data-name="Path 738" d="M1169.88,1701.316c-41.406,26.864-119.887,33.43-119.887,33.43-13.568,13.5-48.764,47.477-54.775,54.745-5.99,7.264-1.144,45.525-5.456,51.094-4.308,5.59-36.817,1.855-40.805-8.158-4.014-10.029,6.318-33.018,2.975-46.557s7.689-5.564,21.174-40,67.328-86.982,67.328-86.982,34.063,28.717,91.791,6.838c0,0,28.224.713,37.506,34.946C1169.8,1700.886,1169.837,1701.1,1169.88,1701.316Z" fill="#ce9065"/>
    <path id="Path_739" data-name="Path 739" d="M1062.832,1669.966c-28.241,23.214-65.954,66.073-74.828,89.2-10.121,26.436,1.518,32.278,5.7,33.51a29.709,29.709,0,0,0-.963,4.639c-10.273.284-30.011,1.9-32.118,10.028-2.1,8.151,7.107,20.263,31.005,23.306-.24,4.787-.74,8.486-1.862,9.937-4.308,5.59-36.817,1.855-40.805-8.158-4.014-10.029,6.318-33.018,2.975-46.557s7.689-5.564,21.174-40,67.328-86.982,67.328-86.982S1048.29,1665.5,1062.832,1669.966Z" opacity="0.37" style="mix-blend-mode: soft-light;isolation: isolate"/>
    <path id="Path_740" data-name="Path 740" d="M1169.88,1701.316a117.823,117.823,0,0,1-10.706,6.137c-6.252-6.524-16.865-14.536-30.562-13.353-17.474,1.526-47.648,23.22-61.2,38.6-7.967,1.1-13.75,1.707-16.164,1.938l41.7-38.526,33.847-28.457c1.787-.576,3.6-1.226,5.434-1.922,0,0,28.224.713,37.506,34.946C1169.8,1700.886,1169.837,1701.1,1169.88,1701.316Z" opacity="0.37" style="mix-blend-mode: soft-light;isolation: isolate"/>
    <path id="Path_741" data-name="Path 741" d="M1232.086,1575.121a388.647,388.647,0,0,1-16.573,57.983c-10.28-37.926-36.4-44.4-36.4-44.4-59.888,22.036-98.58,1.925-111.537-6.854,29.215-38.79,70.342-38.633,70.342-38.633Z" fill="#f77f26"/>
    <path id="Path_742" data-name="Path 742" d="M1230.409,1583.055c1.136-5.009,1.677-7.934,1.677-7.934l-94.166-31.9s-41.127-.157-70.342,38.633c12.957,8.779,51.649,28.89,111.537,6.854,0,0,26.118,6.472,36.4,44.4.953-2.535,1.884-5.067,2.755-7.564-3.543-13.879-11.245-28.546-11.716-29.46l9.677,7.794-6.6-14.415c4.567,1.96,11.128,8.8,15.619,13.887.847-3.073,1.637-5.979,2.311-8.683a22.961,22.961,0,0,1-15.334-9.495C1220.745,1585.409,1226.586,1584.3,1230.409,1583.055ZM1105.254,1572s19.134,15.721,53.382,13.993c0,0-31.437,14.387-70.708-6.169,0,0,10.525-23.14,44.6-28.925,0,0,14.949,20.236,23.433,23.347-1.114-.205-18.966-3.658-32.4-16.233,0,0,14.768,20.675,35.092,21.694C1158.648,1579.709,1134.616,1585.391,1105.254,1572Z" opacity="0.37" style="mix-blend-mode: soft-light;isolation: isolate"/>
    <path id="Path_743" data-name="Path 743" d="M1049.993,1734.746c6.261-6.492,12.757-12.665,19.3-18.769,6.5-6.141,13.16-12.105,19.568-18.248,1.629-1.511,3.214-3.045,4.789-4.59,1.634-1.576,3.261-3.2,4.981-4.685,3.447-2.971,6.935-5.863,10.606-8.5a163.157,163.157,0,0,1,22.989-14.221c-6.872,5.834-13.747,11.542-20.465,17.373-3.312,2.968-6.663,5.867-9.811,8.956-1.6,1.524-3.148,3.058-4.7,4.63-1.595,1.62-3.193,3.235-4.828,4.791-6.6,6.18-13.436,12.006-20.51,17.551A268.665,268.665,0,0,1,1049.993,1734.746Z" fill="#a8704a"/>
    <g id="Group_222" data-name="Group 222">
      <path id="Path_744" data-name="Path 744" d="M1194.239,1592.072l-32.048,84.957-9.161-2.631,3.084,8.184-3.587,8.211a35.332,35.332,0,0,1-25.6-14.57l5.682-8.6-6.84,5.175-10.13-6.438,53.189-89.239,19.644,2.586Z" fill="#f77f26"/>
      <path id="Path_745" data-name="Path 745" d="M1163.514,1597.786l2.931,2.414-40.685,72.593,6.85-5.166-5.691,8.6a36.376,36.376,0,0,0,4.249,4.808l44.691-77.442,4.075,2.016s-30.25,68.93-36.514,83.128a30.366,30.366,0,0,0,9.111,2.056l3.585-8.2-3.084-8.188,3.168.909c4.425-9.8,28.568-69.222,28.568-69.222l.763,9.085,8.708-23.1-5.765-12.371-19.652-2.588-53.188,89.25,2.481,1.582Z" opacity="0.37" style="mix-blend-mode: soft-light;isolation: isolate"/>
      <g id="Group_221" data-name="Group 221">
        <path id="Path_746" data-name="Path 746" d="M1153.03,1674.4c1.119-3.709,2.418-7.347,3.622-11.022l3.916-10.905c2.614-7.269,5.449-14.448,8.286-21.628,2.9-7.153,5.812-14.3,8.938-21.366l4.7-10.591c1.669-3.489,3.242-7.016,5-10.471-1.117,3.71-2.416,7.348-3.618,11.024l-3.915,10.905c-2.616,7.268-5.451,14.448-8.291,21.626-2.907,7.151-5.814,14.3-8.943,21.364l-4.7,10.591C1156.355,1667.415,1154.783,1670.943,1153.03,1674.4Z" fill="#d3661c"/>
        <path id="Path_747" data-name="Path 747" d="M1132.606,1667.622c1.753-3.658,3.674-7.217,5.507-10.828l5.779-10.668c3.857-7.109,7.918-14.1,11.981-21.087,4.125-6.952,8.255-13.9,12.587-20.731l6.508-10.239c2.265-3.358,4.44-6.767,6.784-10.078-1.752,3.659-3.672,7.218-5.5,10.83l-5.779,10.668c-3.858,7.109-7.919,14.1-11.985,21.085-4.128,6.95-8.258,13.9-12.592,20.728l-6.507,10.24C1137.123,1660.9,1134.948,1664.31,1132.606,1667.622Z" fill="#d3661c"/>
      </g>
      <ellipse id="Ellipse_60" data-name="Ellipse 60" cx="20.174" cy="24.152" rx="20.174" ry="24.152" transform="matrix(0.443, -0.896, 0.896, 0.443, 1153.423, 1586.143)" fill="#f9c023"/>
      <ellipse id="Ellipse_61" data-name="Ellipse 61" cx="11.079" cy="13.264" rx="11.079" ry="13.264" transform="translate(1167.215 1582.82) rotate(-63.675)" fill="#f77f26"/>
    </g>
    <path id="Path_748" data-name="Path 748" d="M1474.541,1362.78c-1.525,17.428-26.17,27.255-26.17,27.255a351.5,351.5,0,0,1-27.89,40.518c-10.314,12.656-21.98,24.125-32.192,27.214-10.949,3.323-28.911,3.961-45.864,3.6-9.787-.192-19.219-.746-26.772-1.29-9.82-.7-16.422-1.41-16.422-1.41,4.858,65.738-67.145,116.459-67.145,116.459-58.017,5.123-94.166-31.9-94.166-31.9.932-24.958,7.4-61.852,7.4-61.852l-7.3,1.4-16.872,3.217-10.343,1.974a213.359,213.359,0,0,1-14.7,19.068,505.429,505.429,0,0,1-38.393,39.639c10.667,22.669-4.726,31.341-4.726,31.341l-13.112-10.47c-8.636,5.975-1.012,20.591-1.012,20.591-14.878,10.828-19.38-6.886-19.38-6.886s-14.295-10.236-15.241-12.084c-.924-1.852-.117-9.77,2-15.039s28.789-18.515,28.789-18.515c2.843-18.337,16.5-42.161,27.023-58.391,7.1-10.947,12.8-18.423,12.8-18.423a154.893,154.893,0,0,1,32.392-22.692,224.206,224.206,0,0,1,23.93-11.072,303.149,303.149,0,0,1,36.046-11.652,307.035,307.035,0,0,1,39.563-7.652s9.359-2.763,37.809-4.756c7.853-.543,21.286.227,36.636,1.647,9.385.876,19.461,1.972,29.422,3.159,9.8,1.174,19.46,2.421,28.207,3.578,20.513,2.772,35.935,5.117,35.935,5.117,2.326-1.13,4.91-2.534,7.642-4.1,17.629-10.142,41.511-27.689,41.511-27.689L1436,1350.107S1476.065,1345.352,1474.541,1362.78Z" fill="#ce9065"/>
    <path id="Path_749" data-name="Path 749" d="M1096.1,1507.023a505.429,505.429,0,0,1-38.393,39.639,35.57,35.57,0,0,0-22.686-11.062c2.843-18.337,16.5-42.161,27.023-58.391C1078.649,1474.916,1091.061,1496.457,1096.1,1507.023Z" fill="#f9c023"/>
    <path id="Path_750" data-name="Path 750" d="M1138.018,1482.763c3.489-13.589,8.233-41.781-6.856-57.741a224.206,224.206,0,0,0-23.93,11.072c7.088,5.443,21.5,20.6,13.914,49.887Z" fill="#f9c023"/>
    <path id="Path_751" data-name="Path 751" d="M1342.425,1461.362c-9.787-.192-19.219-.746-26.772-1.29,8.567-21.165.493-43.16-5.015-54.3,9.8,1.174,19.46,2.421,28.207,3.578C1354.314,1428.25,1348.868,1448.576,1342.425,1461.362Z" fill="#f9c023"/>
    <path id="Path_752" data-name="Path 752" d="M1448.371,1390.035a351.5,351.5,0,0,1-27.89,40.518c-14.572-1.1-38.812-5.2-38.059-20.192,17.629-10.142,41.511-27.689,41.511-27.689S1428.466,1393.516,1448.371,1390.035Z" fill="#f9c023"/>
    <path id="Path_753" data-name="Path 753" d="M1257.294,1493.255c-50.768,10.019-81.492-57.747-90.086-79.885a307.035,307.035,0,0,1,39.563-7.652s9.359-2.763,37.809-4.756c7.853-.543,21.286.227,36.636,1.647C1290.495,1434.674,1298.1,1485.2,1257.294,1493.255Z" fill="#f9c023"/>
    <path id="Path_754" data-name="Path 754" d="M1169.624,1469.684s-28.8,96.863,74.1,96.076c-6.925,6.04-11.635,9.361-11.635,9.361-58.017,5.123-94.166-31.9-94.166-31.9.932-24.958,7.4-61.852,7.4-61.852l-7.3,1.4-16.872,3.217-10.343,1.974a213.359,213.359,0,0,1-14.7,19.068,505.429,505.429,0,0,1-38.393,39.639c10.667,22.669-4.726,31.341-4.726,31.341l-13.112-10.47c-8.636,5.975-1.012,20.591-1.012,20.591-14.878,10.828-19.38-6.886-19.38-6.886s-14.295-10.236-15.241-12.084c-.924-1.852-.117-9.77,2-15.039,14.351,15.39,35.839,5.314,38.211-3.963,1.556-6.165-8.764-9.629-15.832-11.23,3.722-1.987,6.41-3.322,6.41-3.322.061-.482.148-.946.253-1.436a40.782,40.782,0,0,1,7.508,3.034,33.528,33.528,0,0,1,5.444,2.324,121.385,121.385,0,0,1,36.031-51.269c13.064-11.186,26.919-18.929,38.494-25.305,7.419-4.1,13.9-7.639,18.656-11.172,6.022-4.5,9.294-8.988,8.185-14.606-1.677-8.5-5.757-12.972-10.4-15.186,9.809-3.546,19.358-6.369,28.015-8.614a307.035,307.035,0,0,1,39.563-7.652s9.359-2.763,37.809-4.756c7.853-.543,21.286.227,36.636,1.647,3.987.376,8.116.79,12.292,1.218a76.805,76.805,0,0,1-8.111,15.665c-11.7,17.647-36.394,40.475-87.3,47.86A239.961,239.961,0,0,1,1169.624,1469.684Z" opacity="0.37" style="mix-blend-mode: soft-light;isolation: isolate"/>
    <path id="Path_755" data-name="Path 755" d="M1474.541,1362.78a21.877,21.877,0,0,1-3.942,10.5c-7.242-.785-35.338-2.551-35.912,16.746a.066.066,0,0,0-.039.03c-1.19.771-26.152,17.034-42.573,33.98-13.208,13.63-20.944,27.677-6.459,34.456-11.072,2.7-27.563,3.2-43.191,2.866-9.787-.192-19.219-.746-26.772-1.29-9.82-.7-16.422-1.41-16.422-1.41l-2.342-26.033a200.971,200.971,0,0,0,22.24,2.006c9.193.354,19.94.09,29.581-1.813,12.633-2.493,23.341-7.826,26.07-18.359,2.326-1.13,4.91-2.534,7.642-4.1,17.629-10.142,41.511-27.689,41.511-27.689L1436,1350.107S1476.065,1345.352,1474.541,1362.78Z" opacity="0.37" style="mix-blend-mode: soft-light;isolation: isolate"/>
    <path id="Path_756" data-name="Path 756" d="M1035.272,1534.164a40.782,40.782,0,0,1,7.508,3.034,30.192,30.192,0,0,0-7.761-1.6C1035.08,1535.118,1035.167,1534.654,1035.272,1534.164Z" opacity="0.37" style="mix-blend-mode: soft-light;isolation: isolate"/>
    <path id="Path_757" data-name="Path 757" d="M1096.1,1507.023a505.429,505.429,0,0,1-38.393,39.639,36.316,36.316,0,0,0-9.481-7.14,121.385,121.385,0,0,1,36.031-51.269A87.468,87.468,0,0,1,1096.1,1507.023Z" opacity="0.37" style="mix-blend-mode: soft-light;isolation: isolate"/>
    <path id="Path_758" data-name="Path 758" d="M1141.405,1451.776c.8,11.76-1.48,23.546-3.387,30.988l-16.872,3.217a57.031,57.031,0,0,0,1.6-23.033C1130.168,1458.846,1136.647,1455.309,1141.405,1451.776Z" opacity="0.37" style="mix-blend-mode: soft-light;isolation: isolate"/>
    <path id="Path_759" data-name="Path 759" d="M1348.71,1432.822c.945,10.9-2.493,21.017-6.285,28.54-9.787-.192-19.219-.746-26.772-1.29a53.9,53.9,0,0,0,3.476-25.437C1328.322,1434.989,1339.069,1434.725,1348.71,1432.822Z" opacity="0.37" style="mix-blend-mode: soft-light;isolation: isolate"/>
    <path id="Path_760" data-name="Path 760" d="M1434.648,1390.06c-1.19.771-26.152,17.034-42.573,33.98-5.9-3.039-9.958-7.4-9.653-13.679,17.629-10.142,41.511-27.689,41.511-27.689S1426.217,1388.124,1434.648,1390.06Z" opacity="0.37" style="mix-blend-mode: soft-light;isolation: isolate"/>
    <path id="Path_761" data-name="Path 761" d="M1285.4,1419.492c-11.7,17.647-36.394,40.475-87.3,47.86-16.05-18.789-26.435-42.519-30.888-53.982a307.035,307.035,0,0,1,39.563-7.652s9.359-2.763,37.809-4.756c7.853-.543,21.286.227,36.636,1.647C1282.717,1407.835,1284.2,1413.535,1285.4,1419.492Z" opacity="0.37" style="mix-blend-mode: soft-light;isolation: isolate"/>
    <path id="Path_762" data-name="Path 762" d="M971.014,1749.523s2.107,27.672,38.248,25.99c0,0,5.293,11.951-7.306,18.211s-44.652-13.827-43.234-32.133,14.384-15.718,14.384-15.718Z" fill="#f9c023"/>
    <path id="Path_763" data-name="Path 763" d="M1007.423,1789.587a16.835,16.835,0,0,1-5.466,4.142c-12.6,6.266-44.654-13.838-43.235-32.139,1.1-14.056,9-15.795,12.594-15.834-1.572,2.345-2.759,5.732-3.137,10.614C966.893,1772.968,993.136,1791.065,1007.423,1789.587Z" opacity="0.37" style="mix-blend-mode: soft-light;isolation: isolate"/>
    <path id="Path_764" data-name="Path 764" d="M1323.876,1384.854s22.39-7.573,39.38-5.969,29.135-.793,51.518-6.112,47.883-8.548,61.5-10.334,9.971.286,26.379-7.909,28.016-4.177,40.76-3.538,21.659,6.992,37.987-3.891-7.858-12.419,29.432-15.272,43.1-3.1,53.944-5.238,51.456-15.562,53.2-18.159,7.465-3.276,1.147-7.887-34.134-45.087-35.435-44.831,8.932-.41-3.9.771-20.306,6.711-28.775-4.235-17.685-34.814-27.65-37.354-10.918-2.8-15.072-5.588-16.266-13.914-16.266-13.914-3-12.927-14.712-10.616-14.057,4.126-22.892.462-14.627-10.182-16.79-12.008-23.467-11.592-33.164-17.339-25.716-13.852-28.917-16.374-9.5-13.9-13.834-15.3-10.49-.633-12.071,7.339-9.308,12.2-12.716,22.338-6.683,2.671-2.985,14.559,6.734,11.288,2.209,18.04-11.318,18.006-19.89,13.389-10.29-11.038-11.346-4.972-6.792,11.255-7.066,16.716,1.866,16.306-4.041,20.626-9.9,4.657-12.938,7.51-1.113-5.639-5.216,5.536-8.19,15.586-14.354,18.605-19.861,2.117-18.668,10.444-3.733,1.637,1.266,13.269,2.465,19.341-4.046,22.88-.223-14.828-8.6,6.654,4.342,31.138,1.032,37.2-6.323-2.357-8.527,11.6S1323.876,1384.854,1323.876,1384.854Z" fill="#3a4c29"/>
    <path id="Path_765" data-name="Path 765" d="M1450.649,1157.035s-8.234,2.883-2.7,15-.6.12,9.446-3.121,7.781-14.742,7.781-14.742-9.82,7.6-10.417,4.571S1450.649,1157.035,1450.649,1157.035Z" fill="#60843a"/>
    <g id="Group_223" data-name="Group 223">
      <path id="Path_766" data-name="Path 766" d="M1446.077,1186.231c-3.034,2.662-5.012,6.97-2.851,10.827a6.493,6.493,0,0,0,10.125,1.539c3.007-2.991-1.646-7.645-4.653-4.653.073-.072.33-.045.376-.1.178-.2-.193.273-.237-.041.092.659.178-.938.052-.293a4.614,4.614,0,0,1,1.842-2.629,3.291,3.291,0,1,0-4.654-4.654Z" fill="#60843a"/>
    </g>
    <g id="Group_224" data-name="Group 224">
      <path id="Path_767" data-name="Path 767" d="M1460.98,1188.521c-1.379,2.706-2.535,5.915-.844,8.773a5.778,5.778,0,0,0,7.574,2.348,3.316,3.316,0,0,0,1.18-4.5,3.367,3.367,0,0,0-4.5-1.18,1.4,1.4,0,0,1,1.479-.012c-.338-.191-.386-.221-.144-.092.064-.02.2.353.133.356-.232.008.749-2.256.806-2.369a3.368,3.368,0,0,0-1.18-4.5,3.324,3.324,0,0,0-4.5,1.18Z" fill="#60843a"/>
    </g>
    <g id="Group_225" data-name="Group 225">
      <path id="Path_768" data-name="Path 768" d="M1468.937,1185.014l1.29.165c1.766.225,3.291-1.674,3.291-3.29,0-1.966-1.52-3.065-3.291-3.291l-1.29-.164c-1.766-.226-3.29,1.673-3.29,3.29,0,1.965,1.519,3.064,3.29,3.29Z" fill="#60843a"/>
    </g>
    <g id="Group_226" data-name="Group 226">
      <path id="Path_769" data-name="Path 769" d="M1472.331,1171.891a19.474,19.474,0,0,1,3.343,3.38,3.392,3.392,0,0,0,4.5,1.18c1.405-.822,2.245-3.067,1.18-4.5a25.841,25.841,0,0,0-4.372-4.711,3.386,3.386,0,0,0-4.653,0c-1.161,1.161-1.382,3.522,0,4.653Z" fill="#60843a"/>
    </g>
    <g id="Group_227" data-name="Group 227">
      <path id="Path_770" data-name="Path 770" d="M1484.613,1175.191a5.186,5.186,0,0,0,3.874-1.652,3.359,3.359,0,0,0,0-4.653,3.325,3.325,0,0,0-4.653,0l.779-.276c-4.233.034-4.243,6.614,0,6.581Z" fill="#60843a"/>
    </g>
    <g id="Group_228" data-name="Group 228">
      <path id="Path_771" data-name="Path 771" d="M1498.806,1170.637a8.064,8.064,0,0,0,3.181,2.891,3.382,3.382,0,0,0,4.5-1.18,3.32,3.32,0,0,0-1.181-4.5,2.44,2.44,0,0,1-.819-.531,3.373,3.373,0,0,0-4.5-1.18,3.321,3.321,0,0,0-1.181,4.5Z" fill="#60843a"/>
    </g>
    <g id="Group_229" data-name="Group 229">
      <path id="Path_772" data-name="Path 772" d="M1511.855,1185.707l1.291.154c1.767.211,3.29-1.663,3.29-3.29a3.369,3.369,0,0,0-3.29-3.29l-1.291-.154c-1.768-.211-3.291,1.663-3.291,3.29a3.37,3.37,0,0,0,3.291,3.29Z" fill="#60843a"/>
    </g>
    <g id="Group_230" data-name="Group 230">
      <path id="Path_773" data-name="Path 773" d="M1471.608,1149.691l1.29.165c1.766.225,3.291-1.674,3.291-3.29,0-1.966-1.52-3.065-3.291-3.291l-1.29-.164c-1.765-.226-3.29,1.673-3.29,3.29,0,1.965,1.519,3.064,3.29,3.29Z" fill="#60843a"/>
    </g>
    <g id="Group_231" data-name="Group 231">
      <path id="Path_774" data-name="Path 774" d="M1462.3,1132.038l-1.779,1.609a3.29,3.29,0,0,0,4.653,4.653l1.779-1.609a3.29,3.29,0,0,0-4.653-4.653Z" fill="#60843a"/>
    </g>
    <g id="Group_232" data-name="Group 232">
      <path id="Path_775" data-name="Path 775" d="M1447.635,1145.556l.643,1.131c2.1,3.679,7.784.368,5.683-3.322l-.644-1.13c-2.095-3.68-7.783-.368-5.682,3.321Z" fill="#60843a"/>
    </g>
    <g id="Group_233" data-name="Group 233">
      <path id="Path_776" data-name="Path 776" d="M1410.874,1204.663l-5.351,7.627a3.319,3.319,0,0,0,1.181,4.5,3.359,3.359,0,0,0,4.5-1.18q2.674-3.815,5.35-7.627a3.319,3.319,0,0,0-1.18-4.5,3.358,3.358,0,0,0-4.5,1.18Z" fill="#60843a"/>
    </g>
    <g id="Group_234" data-name="Group 234">
      <path id="Path_777" data-name="Path 777" d="M1433.108,1222.013a20.094,20.094,0,0,1,4.824-7.415c3.01-2.988-1.643-7.642-4.654-4.654a27.629,27.629,0,0,0-6.516,10.319,3.321,3.321,0,0,0,2.3,4.048,3.36,3.36,0,0,0,4.048-2.3Z" fill="#60843a"/>
    </g>
    <g id="Group_235" data-name="Group 235">
      <path id="Path_778" data-name="Path 778" d="M1437.846,1206.071a4.144,4.144,0,0,1,1.261,2.688,3.364,3.364,0,0,0,3.29,3.29,3.321,3.321,0,0,0,3.291-3.29,11.131,11.131,0,0,0-3.189-7.341c-2.975-3.023-7.628,1.631-4.653,4.653Z" fill="#60843a"/>
    </g>
    <g id="Group_236" data-name="Group 236">
      <path id="Path_779" data-name="Path 779" d="M1454.584,1225.061a4.954,4.954,0,0,1-.171.682c.114-.314-.045.067-.1.166a1.853,1.853,0,0,1-.562.628,5.474,5.474,0,0,1-.587.3c-.067.02-.658.141-.418.113s-.611-.036-.612-.036a3.29,3.29,0,1,0,0,6.58,8.67,8.67,0,0,0,8.8-6.68,3.37,3.37,0,0,0-2.3-4.048,3.324,3.324,0,0,0-4.048,2.3Z" fill="#60843a"/>
    </g>
    <g id="Group_237" data-name="Group 237">
      <path id="Path_780" data-name="Path 780" d="M1447.344,1224.31c-6.142,1.266-12.19,3.772-18.143,5.728-4.005,1.316-2.29,7.672,1.75,6.345,5.952-1.955,12-4.461,18.142-5.728,4.145-.855,2.391-7.2-1.749-6.345Z" fill="#60843a"/>
    </g>
    <g id="Group_238" data-name="Group 238">
      <path id="Path_781" data-name="Path 781" d="M1423.914,1228.79c.36.144.186.024.187.024q-.174-.289-.023-.052.023.415.024-.209a3.291,3.291,0,1,0-6.581,0,6.833,6.833,0,0,0,4.644,6.582c1.65.661,3.614-.721,4.047-2.3a3.368,3.368,0,0,0-2.3-4.047Z" fill="#60843a"/>
    </g>
    <g id="Group_239" data-name="Group 239">
      <path id="Path_782" data-name="Path 782" d="M1418.752,1221.749c4.235,0,4.242-6.581,0-6.581s-4.241,6.581,0,6.581Z" fill="#60843a"/>
    </g>
    <g id="Group_240" data-name="Group 240">
      <path id="Path_783" data-name="Path 783" d="M1398.112,1238.309a5.394,5.394,0,0,1,1.158,2.21c.231,1.761,1.347,3.29,3.29,3.29,1.6,0,3.523-1.516,3.29-3.29a11.037,11.037,0,0,0-2.056-5.531,3.4,3.4,0,0,0-4.5-1.181c-1.382.809-2.272,3.086-1.18,4.5Z" fill="#60843a"/>
    </g>
    <g id="Group_241" data-name="Group 241">
      <path id="Path_784" data-name="Path 784" d="M1414.991,1240a13.5,13.5,0,0,1,.374,8.242c-1.1,4.094,5.245,5.841,6.346,1.749a19.791,19.791,0,0,0-.374-11.74c-1.393-3.97-7.753-2.261-6.346,1.749Z" fill="#60843a"/>
    </g>
    <g id="Group_242" data-name="Group 242">
      <path id="Path_785" data-name="Path 785" d="M1413.315,1250.424c-.246.531-.081.127.266.109a3.361,3.361,0,0,0-3.29,3.291,3.321,3.321,0,0,0,3.29,3.29,6.13,6.13,0,0,0,5.417-3.369,3.387,3.387,0,0,0-1.181-4.5,3.317,3.317,0,0,0-4.5,1.181Z" fill="#60843a"/>
    </g>
    <g id="Group_243" data-name="Group 243">
      <path id="Path_786" data-name="Path 786" d="M1386.8,1255.376l-.4.08a3.323,3.323,0,0,0-2.3,4.047,3.359,3.359,0,0,0,4.048,2.3l.4-.08a3.323,3.323,0,0,0,2.3-4.047,3.359,3.359,0,0,0-4.048-2.3Z" fill="#60843a"/>
    </g>
    <g id="Group_244" data-name="Group 244">
      <path id="Path_787" data-name="Path 787" d="M1378.354,1266.506q.678,3.429,1.354,6.86a3.323,3.323,0,0,0,4.048,2.3,3.358,3.358,0,0,0,2.3-4.048q-.676-3.429-1.354-6.86a3.324,3.324,0,0,0-4.047-2.3,3.359,3.359,0,0,0-2.3,4.048Z" fill="#60843a"/>
    </g>
    <g id="Group_245" data-name="Group 245">
      <path id="Path_788" data-name="Path 788" d="M1424.908,1286.655c.049-.455-.16.525-.165.538-.029.089-.231.488-.087.209a2.974,2.974,0,0,1-.9,1.2,3.426,3.426,0,0,1-2.05.924,3.363,3.363,0,0,0-3.291,3.291,3.321,3.321,0,0,0,3.291,3.29,10.347,10.347,0,0,0,9.783-9.451c.19-1.769-1.649-3.29-3.291-3.29a3.366,3.366,0,0,0-3.29,3.29Z" fill="#60843a"/>
    </g>
    <g id="Group_246" data-name="Group 246">
      <path id="Path_789" data-name="Path 789" d="M1393.684,1314.128a25.939,25.939,0,0,1,2.387-10.254c1.781-3.814-3.89-7.16-5.682-3.322a34.147,34.147,0,0,0-3.286,13.576c-.129,4.236,6.452,4.232,6.581,0Z" fill="#60843a"/>
    </g>
    <g id="Group_247" data-name="Group 247">
      <path id="Path_790" data-name="Path 790" d="M1406.558,1295.55a38.338,38.338,0,0,0,9.053-5.01,3.4,3.4,0,0,0,1.18-4.5c-.814-1.392-3.077-2.26-4.5-1.18a32.438,32.438,0,0,1-7.48,4.346,3.392,3.392,0,0,0-2.3,4.048c.43,1.566,2.388,2.962,4.047,2.3Z" fill="#60843a"/>
    </g>
    <g id="Group_248" data-name="Group 248">
      <path id="Path_791" data-name="Path 791" d="M1445.221,1272.633c3.438-2.139,7.1-4.536,11.254-3.07,4,1.411,5.723-4.944,1.749-6.346-5.862-2.067-11.4.671-16.325,3.734-3.588,2.233-.288,7.929,3.322,5.682Z" fill="#60843a"/>
    </g>
    <g id="Group_249" data-name="Group 249">
      <path id="Path_792" data-name="Path 792" d="M1476.347,1284.245a39.325,39.325,0,0,1,10.84,1.611c4.072,1.193,5.812-5.156,1.749-6.345a46.087,46.087,0,0,0-12.589-1.847c-4.236-.035-4.24,6.546,0,6.581Z" fill="#60843a"/>
    </g>
    <g id="Group_250" data-name="Group 250">
      <path id="Path_793" data-name="Path 793" d="M1507.462,1282.174a65.443,65.443,0,0,0-3.673-24.6c-1.4-3.969-7.757-2.26-6.346,1.749a60.4,60.4,0,0,1,3.438,22.85c-.174,4.235,6.408,4.227,6.581,0Z" fill="#60843a"/>
    </g>
    <g id="Group_251" data-name="Group 251">
      <path id="Path_794" data-name="Path 794" d="M1508.991,1257.615l1.926,1.305a3.291,3.291,0,1,0,3.321-5.682l-1.925-1.306a3.291,3.291,0,0,0-3.322,5.683Z" fill="#60843a"/>
    </g>
    <g id="Group_252" data-name="Group 252">
      <path id="Path_795" data-name="Path 795" d="M1515.18,1257.939q-1.013-.879-.389-.006l.219.426a12.264,12.264,0,0,0,.763,1.294,11.292,11.292,0,0,0,2.62,2.656,11.058,11.058,0,0,0,6.469,2.072c4.236.045,4.239-6.536,0-6.58a4.431,4.431,0,0,1-3.7-1.9c-1.3-1.888-1.866-3.482-4.236-4.31-4.006-1.4-5.728,4.955-1.749,6.345Z" fill="#60843a"/>
    </g>
    <g id="Group_253" data-name="Group 253">
      <path id="Path_796" data-name="Path 796" d="M1533.244,1258.893l.081-3.063h-6.345c1.375,3.39,2.579,9.422,6.867,10.361a5.374,5.374,0,0,0,4.039-.82c.652-.461,1.905-3.589,2.125-3.682h-3.322c1.576.668,2.358,2.031,4.171,2.206,2,.193,3.488-.989,4.857-2.229l-5.168-.666c1.5,3.287,5.6,8.4,9.834,6.868,5.054-1.82,3.5-10.741,3.057-14.582l-1.629,2.842a14.866,14.866,0,0,1,5.5-1.545c4.159-.474,4.207-7.061,0-6.581a27.972,27.972,0,0,0-8.826,2.443,3.167,3.167,0,0,0-1.629,2.841c.178,1.546,1.416,7.979-.071,9.248l3.2-.846c-2.012-.5-2.986-2.316-3.759-4.009-.928-2.034-3.744-1.956-5.168-.666.584-.528-.811-1.147-1.838-1.338a4.554,4.554,0,0,0-3.628.91c-.576.467-1.977,2.18-1.757,3.018q-.554,1.039.853.367,1.776.233.544-1.225c-.021-1.16-1.5-3.657-1.912-4.665a3.325,3.325,0,0,0-6.345,0,8.143,8.143,0,0,0-.082,6.562c1.457,3.938,7.82,2.235,6.346-1.749Z" fill="#60843a"/>
    </g>
    <g id="Group_254" data-name="Group 254">
      <path id="Path_797" data-name="Path 797" d="M1537.344,1255.327l2.589-2.524a14.688,14.688,0,0,0,2.589-2.524q1.943-1.334-1.648-1.381.283.657.5,1.337a32.718,32.718,0,0,1,.889,3.191,3.316,3.316,0,0,0,4.834,1.967,7.605,7.605,0,0,0,3.671-5.324,3.405,3.405,0,0,0-2.3-4.048c-1.542-.443-3.794.542-4.048,2.3-.093.649-.1,1.037-.647,1.392l4.834,1.966c-.767-3.263-1.86-8.546-6.119-8.533-2.121.006-3.522,1.408-4.948,2.8l-4.854,4.732c-3.038,2.961,1.617,7.612,4.653,4.653Z" fill="#60843a"/>
    </g>
    <g id="Group_255" data-name="Group 255">
      <path id="Path_798" data-name="Path 798" d="M1520.529,1228.3c-.258-.761-.236-1.272.126-1.6a1.073,1.073,0,0,1,.6-.34c.252-.077-.06-.075.4-.052.6.029-.05-.058.571.135,4.055,1.257,5.789-5.093,1.75-6.346a7.894,7.894,0,0,0-9.793,9.953,3.367,3.367,0,0,0,4.047,2.3,3.321,3.321,0,0,0,2.3-4.047Z" fill="#60843a"/>
    </g>
    <g id="Group_256" data-name="Group 256">
      <path id="Path_799" data-name="Path 799" d="M1529.018,1219.345c.165-.067,1.27-.318.783-.282a5.085,5.085,0,0,1,.686.011c-.249-.029-.259-.02-.027.029a3.911,3.911,0,0,1,.495.149q-.39-.153.143.114.5.318.15.109.4.435.144.123a3.382,3.382,0,0,0,4.5,1.181,3.318,3.318,0,0,0,1.18-4.5c-2.165-3.047-6.173-4.766-9.806-3.277a3.4,3.4,0,0,0-2.3,4.047c.428,1.556,2.393,2.976,4.048,2.3Z" fill="#60843a"/>
    </g>
    <g id="Group_257" data-name="Group 257">
      <path id="Path_800" data-name="Path 800" d="M1542.9,1215.606c.666-1.366,1.257-2.816,2.045-4.115l-1.18,1.181.3-.191-2.536.332c-.134-.021-.288-.254-.145-.069a10.725,10.725,0,0,0,.884.808,8.944,8.944,0,0,1,1.145,1.374,10.439,10.439,0,0,1,1.49,3.614c.926,4.131,7.272,2.383,6.346-1.749a16.015,16.015,0,0,0-5.211-8.7c-1.584-1.323-3.415-2.4-5.447-1.2-1.77,1.049-2.516,3.624-3.377,5.39a3.376,3.376,0,0,0,1.18,4.5,3.321,3.321,0,0,0,4.5-1.18Z" fill="#60843a"/>
    </g>
    <g id="Group_258" data-name="Group 258">
      <path id="Path_801" data-name="Path 801" d="M1575.231,1233.891a25.674,25.674,0,0,1,1.986-4.172c.381-.648.785-1.283,1.218-1.9q.31-.45.646-.881.841-.775.028-.345h-1.749l.411.108-1.452-.846a6.245,6.245,0,0,1,.992,2.025q.632,1.445,1.262,2.888a3.26,3.26,0,0,0,4.109,1.347,3.337,3.337,0,0,0,1.905-3.882q-.117-.6-.233-1.2c-.805-4.153-7.149-2.4-6.346,1.75q.117.6.233,1.2l6.014-2.535c-.831-1.9-1.471-4.45-2.949-5.964a4.25,4.25,0,0,0-5.829-.282c-3.164,2.627-5.2,7.17-6.592,10.94a3.321,3.321,0,0,0,2.3,4.048,3.361,3.361,0,0,0,4.048-2.3Z" fill="#60843a"/>
    </g>
    <g id="Group_259" data-name="Group 259">
      <path id="Path_802" data-name="Path 802" d="M1588.506,1231.6c1.888,1.807,4.064,1.386,6.2.375l.366-.18q.517-.242-.059.011.561-.153-.184-.039a2.189,2.189,0,0,1-1.867-1.21,9.382,9.382,0,0,0,.621,1.929l.621,1.928,6.014-2.535-1.089-1.51a3.385,3.385,0,0,0-4.5-1.18,3.317,3.317,0,0,0-1.181,4.5l1.09,1.509a3.333,3.333,0,0,0,4.109,1.347,3.278,3.278,0,0,0,1.905-3.882c-.835-2.593-1.387-6.6-4.526-7.333a5.781,5.781,0,0,0-3.786.555q-.493.22-.975.465c-.677.344.325-.034-.038.006q-.279.073.11,0a2.03,2.03,0,0,1,1.823.586c-3.06-2.927-7.721,1.719-4.653,4.654Z" fill="#60843a"/>
    </g>
    <g id="Group_260" data-name="Group 260">
      <path id="Path_803" data-name="Path 803" d="M1578.47,1233.991c3.387,3.739.825,12.781,6.67,14.366a3.374,3.374,0,0,0,3.716-1.512l.157-.251c2.258-3.6-3.434-6.9-5.682-3.321l-.158.25,3.716-1.512q1.636,2.052,1.11.786-.187-.523-.326-1.063c-.131-.481-.237-.97-.34-1.459-.283-1.346-.476-2.71-.778-4.053a14.739,14.739,0,0,0-3.432-6.884c-2.849-3.146-7.491,1.519-4.653,4.653Z" fill="#60843a"/>
    </g>
    <g id="Group_261" data-name="Group 261">
      <path id="Path_804" data-name="Path 804" d="M1595.883,1242.064l.091-.253-.847,1.452q-2.056,1.172-2.922-.051c-.118-.164-.078-.091.122.218a6.443,6.443,0,0,0,.859,1.249,3.752,3.752,0,0,0,3.27,1.267,3.531,3.531,0,0,0,1.981-5.99c-3-3-7.653,1.653-4.653,4.653l.121.121-.846-3.2-.045.2,1.513-1.967-.169.114,2.535-.332-.29-.107,1.452.847c.329.391-.224-.467-.221-.463a6.931,6.931,0,0,0-.814-1.065,4.892,4.892,0,0,0-2.361-1.375,4.309,4.309,0,0,0-5.122,2.936,3.322,3.322,0,0,0,2.3,4.047,3.357,3.357,0,0,0,4.048-2.3Z" fill="#60843a"/>
    </g>
    <g id="Group_262" data-name="Group 262">
      <path id="Path_805" data-name="Path 805" d="M1610.509,1250.179a30.871,30.871,0,0,0,6.776-.819,26.167,26.167,0,0,0,2.845-.875q.861-.331,1.709-.7,1.612-.171.057-1.452c-.011,4.235,6.57,4.241,6.58,0,.01-3.7-3.25-6.032-6.828-5.364-1.772.331-3.416,1.294-5.153,1.79a22.965,22.965,0,0,1-5.986.837c-4.23.075-4.243,6.656,0,6.581Z" fill="#60843a"/>
    </g>
    <g id="Group_263" data-name="Group 263">
      <path id="Path_806" data-name="Path 806" d="M1628.494,1256.319a4.438,4.438,0,0,0,4.745-1.918,3.334,3.334,0,0,0,0-3.322l-.557-1.316c-.692-1.638-3.109-1.995-4.5-1.181-1.7.992-1.875,2.858-1.18,4.5l.556,1.317v-3.322l-.182.238,1.181-1.18.234-.114h1.75l-.3-.049a3.388,3.388,0,0,0-4.047,2.3c-.433,1.576.535,3.753,2.3,4.047Z" fill="#60843a"/>
    </g>
    <g id="Group_264" data-name="Group 264">
      <path id="Path_807" data-name="Path 807" d="M1583.927,1200.195a51.947,51.947,0,0,0,14.421-5.6l-4.5-1.181a6.441,6.441,0,0,1,.967,6.005c-1.23,4.062,5.119,5.8,6.345,1.749a12.835,12.835,0,0,0-1.63-11.075,3.364,3.364,0,0,0-4.5-1.181,45.851,45.851,0,0,1-12.848,4.938c-4.131.923-2.383,7.269,1.749,6.346Z" fill="#60843a"/>
    </g>
    <g id="Group_265" data-name="Group 265">
      <path id="Path_808" data-name="Path 808" d="M1586.433,1196.2c4.234,0,4.241-6.581,0-6.581s-4.242,6.581,0,6.581Z" fill="#60843a"/>
    </g>
    <g id="Group_266" data-name="Group 266">
      <path id="Path_809" data-name="Path 809" d="M1580.011,1191.233a1.435,1.435,0,0,1-.614-.661,1.313,1.313,0,0,1-.165-1.885,3.4,3.4,0,0,0,1.18,4.5c1.4.817,3.782.454,4.5-1.181a5.05,5.05,0,0,0,.152-4.373,4.76,4.76,0,0,0-3.306-2.748,3.373,3.373,0,0,0-4.047,2.3,3.321,3.321,0,0,0,2.3,4.048Z" fill="#60843a"/>
    </g>
    <g id="Group_267" data-name="Group 267">
      <path id="Path_810" data-name="Path 810" d="M1576.988,1198.245l1.206-2.341a3.367,3.367,0,0,0-1.181-4.5,3.325,3.325,0,0,0-4.5,1.18l-1.206,2.341a3.367,3.367,0,0,0,1.181,4.5,3.325,3.325,0,0,0,4.5-1.18Z" fill="#60843a"/>
    </g>
    <g id="Group_268" data-name="Group 268">
      <path id="Path_811" data-name="Path 811" d="M1561.659,1200.254c4.235,0,4.242-6.581,0-6.581s-4.241,6.581,0,6.581Z" fill="#60843a"/>
    </g>
    <g id="Group_269" data-name="Group 269">
      <path id="Path_812" data-name="Path 812" d="M1591.151,1197.664a7.229,7.229,0,0,1,.378,2.591c-.1.479-.136.63-.115.452,0-.021.006-.025.029-.013-.081.628-.857-.111.349.141a3.369,3.369,0,0,0-4.047,2.3,3.323,3.323,0,0,0,2.3,4.047,6.482,6.482,0,0,0,7.055-3.169c1.45-2.494,1.01-5.429.4-8.1-.946-4.127-7.293-2.38-6.345,1.749Z" fill="#60843a"/>
    </g>
    <g id="Group_270" data-name="Group 270">
      <path id="Path_813" data-name="Path 813" d="M1536.549,1194.582a9.519,9.519,0,0,1,1.534-2.529,3.2,3.2,0,0,1,.537-.391c.667-.195-.154-.15.479.079a3.321,3.321,0,0,0,4.048-2.3,3.359,3.359,0,0,0-2.3-4.048c-4.575-1.653-8.124,2.2-9.983,5.865a3.369,3.369,0,0,0,1.181,4.5,3.323,3.323,0,0,0,4.5-1.18Z" fill="#60843a"/>
    </g>
    <g id="Group_271" data-name="Group 271">
      <path id="Path_814" data-name="Path 814" d="M1527.306,1180.67c.52-.6.443-.523.934-.716l.352-.086q-.414.051.206.016c-.5-.06.508.13.544.141a3.291,3.291,0,1,0,1.749-6.345,8.121,8.121,0,0,0-8.439,2.337,3.373,3.373,0,0,0,0,4.653,3.322,3.322,0,0,0,4.654,0Z" fill="#60843a"/>
    </g>
    <g id="Group_272" data-name="Group 272">
      <path id="Path_815" data-name="Path 815" d="M1532.9,1176.476q.711,3.687,1.421,7.375l2.3-4.047a10.173,10.173,0,0,1-3.279.338q-.85-.045-1.7-.135-2.086-.481.169,2.714l-6.014-.786a8.207,8.207,0,0,1,.452,4.7l4.048-2.3.03.117c-1.261-4.028-7.615-2.308-6.346,1.749a6.317,6.317,0,0,0,4.566,4.48,3.326,3.326,0,0,0,4.048-2.3,14.712,14.712,0,0,0-.452-8.2,3.342,3.342,0,0,0-6.014-.786c-1.842,2.479-.093,5.839,2.591,6.734a17.74,17.74,0,0,0,9.646.015,3.371,3.371,0,0,0,2.3-4.047q-.71-3.689-1.42-7.375c-.8-4.154-7.145-2.4-6.346,1.749Z" fill="#60843a"/>
    </g>
    <g id="Group_273" data-name="Group 273">
      <path id="Path_816" data-name="Path 816" d="M1519.969,1177.69a4.123,4.123,0,0,0,2.221-3.779,3.335,3.335,0,0,0-3.291-3.29,14.235,14.235,0,0,1-6.628-1.681c-3.734-1.995-7.062,3.684-3.321,5.682a21.485,21.485,0,0,0,9.949,2.58l-3.29-3.291-.014.405.449-1.661-.218.346,1.181-1.181-.359.187c-3.757,1.959-.433,7.64,3.321,5.683Z" fill="#60843a"/>
    </g>
    <g id="Group_274" data-name="Group 274">
      <path id="Path_817" data-name="Path 817" d="M1506.741,1169.358l1.619-2.416a3.291,3.291,0,0,0-5.682-3.321l-1.62,2.416a3.291,3.291,0,0,0,5.683,3.321Z" fill="#60843a"/>
    </g>
    <g id="Group_275" data-name="Group 275">
      <path id="Path_818" data-name="Path 818" d="M1489.476,1151.927q.161.807.319,1.614a3.323,3.323,0,0,0,4.047,2.3,3.357,3.357,0,0,0,2.3-4.047q-.16-.807-.319-1.614a3.324,3.324,0,0,0-4.048-2.3,3.359,3.359,0,0,0-2.3,4.048Z" fill="#60843a"/>
    </g>
    <g id="Group_276" data-name="Group 276">
      <path id="Path_819" data-name="Path 819" d="M1489.425,1196.525a14.6,14.6,0,0,1,2.665,2.76,10.735,10.735,0,0,1,.967,1.607,3.077,3.077,0,0,1,.272.6q.147,1.029.662-.848h1.749l-.462-.1c-4.129-.892-5.894,5.45-1.749,6.346,4.045.873,7.087-2.638,6.284-6.573-.668-3.273-3.233-6.36-5.734-8.44a3.382,3.382,0,0,0-4.654,0,3.317,3.317,0,0,0,0,4.653Z" fill="#60843a"/>
    </g>
    <g id="Group_277" data-name="Group 277">
      <path id="Path_820" data-name="Path 820" d="M1471.689,1217.309a17,17,0,0,1,3.675,6.989c1.088,4.089,7.438,2.354,6.346-1.749a24.275,24.275,0,0,0-5.367-9.893c-2.809-3.182-7.448,1.487-4.654,4.653Z" fill="#60843a"/>
    </g>
    <g id="Group_278" data-name="Group 278">
      <path id="Path_821" data-name="Path 821" d="M1489.32,1220.023c-1.024.172-.972-.31-.678.038-.229-.271-.615-1.012-.476-.38a3.291,3.291,0,1,0,6.345-1.75c-.71-3.231-3.884-4.765-6.94-4.253-1.754.293-2.735,2.461-2.3,4.047a3.368,3.368,0,0,0,4.048,2.3Z" fill="#60843a"/>
    </g>
    <g id="Group_279" data-name="Group 279">
      <path id="Path_822" data-name="Path 822" d="M1665.708,1283.582q2.079-2.3,4.159-4.595c1.036-1.145,2.542-3.509,3.965-4.118l-2.535.332a19.7,19.7,0,0,1,1.022,2.469c1.411,3.961,7.772,2.254,6.345-1.749-1.191-3.342-3.688-8.718-8.153-6.734-1.784.792-3.05,2.663-4.338,4.086l-5.119,5.655c-2.836,3.134,1.8,7.8,4.654,4.654Z" fill="#60843a"/>
    </g>
    <g id="Group_280" data-name="Group 280">
      <path id="Path_823" data-name="Path 823" d="M1675.047,1268.987a10.554,10.554,0,0,0,3.941,2.578,10.22,10.22,0,0,0,1.435.787c.369.055-.112-.031-.073-.549.037-.5,1.012-1.05,1.154-1.1a3.377,3.377,0,0,0-2.3,4.047,3.316,3.316,0,0,0,4.047,2.3,5.471,5.471,0,0,0,2.849-8.057,8.1,8.1,0,0,0-3.415-2.932,8.379,8.379,0,0,1-2.986-1.724,3.318,3.318,0,0,0-4.654,0,3.36,3.36,0,0,0,0,4.653Z" fill="#60843a"/>
    </g>
    <g id="Group_281" data-name="Group 281">
      <path id="Path_824" data-name="Path 824" d="M1679.677,1288.428a7.368,7.368,0,0,1,5.332,1.191,3.291,3.291,0,0,0,3.321-5.683,12.986,12.986,0,0,0-8.653-2.089,3.4,3.4,0,0,0-3.29,3.291c0,1.607,1.515,3.511,3.29,3.29Z" fill="#60843a"/>
    </g>
    <g id="Group_282" data-name="Group 282">
      <path id="Path_825" data-name="Path 825" d="M1640.141,1276.361a5.332,5.332,0,0,1,3.711,4.4,3.319,3.319,0,0,0,4.047,2.3,3.361,3.361,0,0,0,2.3-4.047,11.9,11.9,0,0,0-8.306-9c-4.064-1.226-5.8,5.124-1.75,6.346Z" fill="#60843a"/>
    </g>
    <g id="Group_283" data-name="Group 283">
      <path id="Path_826" data-name="Path 826" d="M1627.809,1293.038c.85.388-.211-.546-.149-.534-.03-.006-.4.265-.672.4a4.5,4.5,0,0,1-1.06.375,2.4,2.4,0,0,1-.841,0c.037.011.115-.054.164-.008-3.088-2.9-7.751,1.749-4.654,4.653,3.08,2.888,7.884,2.285,11.012-.234,3.188-2.567,3.792-8.388-.479-10.335a3.389,3.389,0,0,0-4.5,1.18c-.827,1.414-.444,3.761,1.181,4.5Z" fill="#60843a"/>
    </g>
    <g id="Group_284" data-name="Group 284">
      <path id="Path_827" data-name="Path 827" d="M1563.6,1280.144a3.087,3.087,0,0,1,1.672,3.819,3.384,3.384,0,0,0,1.181,4.5,3.319,3.319,0,0,0,4.5-1.18c2.166-4.6.678-10.429-4.034-12.823-3.767-1.915-7.1,3.761-3.321,5.682Z" fill="#60843a"/>
    </g>
    <g id="Group_285" data-name="Group 285">
      <path id="Path_828" data-name="Path 828" d="M1572.946,1295.883a8.7,8.7,0,0,1,4.739,4.591q.256-1.993.514-3.987c-.206.2-2.382.571-3.137,1.44a3.848,3.848,0,0,0-.568,4.211c1.425,3.557,5.964,5.629,9.519,6.118,8.835,1.218,16.153-6.26,15.489-15-.32-4.2-6.9-4.231-6.581,0,.253,3.322-.921,6.525-4.174,7.983-2.7,1.212-7.211.593-8.57-2.424v3.322q.155-.279.31-.556l-1.967,1.512c1.684-.6,2.973-.641,4.332-1.954a3.373,3.373,0,0,0,.515-3.987,15.441,15.441,0,0,0-8.672-7.615c-3.942-1.551-5.652,4.81-1.749,6.345Z" fill="#60843a"/>
    </g>
    <g id="Group_286" data-name="Group 286">
      <path id="Path_829" data-name="Path 829" d="M1595.916,1279.963c.325.178.64.367.95.569-.094-.061.1.332.094.076-.031-2.133-.553.724-.566,1.121a5.576,5.576,0,0,0,3.165,5.108,3.4,3.4,0,0,0,4.5-1.18c.812-1.388.46-3.795-1.181-4.5-.694-.3-.027.07.067.421q-.142,1.083.017.475.083-.285.188-.564a5.564,5.564,0,0,0-.029-3.117,7.627,7.627,0,0,0-3.885-4.09c-3.713-2.043-7.037,3.638-3.322,5.683Z" fill="#60843a"/>
    </g>
    <g id="Group_287" data-name="Group 287">
      <path id="Path_830" data-name="Path 830" d="M1573.542,1269a10.982,10.982,0,0,1,2.775,6.595q.225-.831.449-1.661l-.139.291q.984-.756,1.967-1.512l-.207.064h1.75l-.2-.081,2.3,2.3-.048-.179c-1.1-4.085-7.45-2.352-6.346,1.749a3.574,3.574,0,0,0,4.4,2.526c2.265-.631,2.809-2.814,2.53-4.867a19.03,19.03,0,0,0-4.574-9.876,3.32,3.32,0,0,0-4.654,0,3.358,3.358,0,0,0,0,4.653Z" fill="#60843a"/>
    </g>
    <g id="Group_288" data-name="Group 288">
      <path id="Path_831" data-name="Path 831" d="M1536.483,1283.867a27.7,27.7,0,0,0,12.783,20.292v-5.683a14.141,14.141,0,0,1-4.415,1.18c-4.171.43-4.216,7.016,0,6.58a24.216,24.216,0,0,0,7.737-2.077c2.384-1.067,1.889-4.484,0-5.683a20.6,20.6,0,0,1-9.524-14.609c-.549-4.138-7.137-4.192-6.581,0Z" fill="#60843a"/>
    </g>
    <g id="Group_289" data-name="Group 289">
      <path id="Path_832" data-name="Path 832" d="M1556.582,1308.388c-.285-.349-.186.01-.265.208a1.553,1.553,0,0,1-.578.722c-1.16.865-2.95.886-4.334.993q.437,3.231.875,6.463l2.522-.724c4.063-1.166,2.335-7.518-1.75-6.346l-2.522.724c-3.444.989-2.94,6.757.875,6.463,3.409-.262,7.2-.736,9.569-3.506a7.322,7.322,0,0,0,.262-9.65c-1.126-1.377-3.486-1.168-4.654,0a3.365,3.365,0,0,0,0,4.653Z" fill="#60843a"/>
    </g>
    <g id="Group_290" data-name="Group 290">
      <path id="Path_833" data-name="Path 833" d="M1554.354,1309.78a48.725,48.725,0,0,1-18.747,7.064c-4.171.665-2.4,7.008,1.749,6.345a53.471,53.471,0,0,0,20.319-7.727c3.566-2.264.268-7.961-3.321-5.682Z" fill="#60843a"/>
    </g>
    <g id="Group_291" data-name="Group 291">
      <path id="Path_834" data-name="Path 834" d="M1514.623,1318.815c-1.232.611-.323-.349-.418.7a8.1,8.1,0,0,0,.343,1.66,7.776,7.776,0,0,1,.166,1.661l-.035.576q-.742,1.261,1.807,1.243c.245-4.231-6.336-4.217-6.58,0a5.288,5.288,0,0,0,5.553,5.43c3.224-.164,5.4-3.078,5.747-6.082a14,14,0,0,0-1.848-8.819,6.2,6.2,0,0,0-8.056-2.055c-3.8,1.881-.464,7.559,3.321,5.683Z" fill="#60843a"/>
    </g>
    <g id="Group_292" data-name="Group 292">
      <path id="Path_835" data-name="Path 835" d="M1511.944,1328.612a9.6,9.6,0,0,1,1,2.306l5.5-3.2q-.463-.537-.929-1.073a3.319,3.319,0,0,0-4.653,0,3.356,3.356,0,0,0,0,4.653l.929,1.074c2.191,2.532,6.384-.165,5.5-3.2a17.36,17.36,0,0,0-1.658-3.877c-2.131-3.658-7.82-.349-5.683,3.321Z" fill="#60843a"/>
    </g>
    <g id="Group_293" data-name="Group 293">
      <path id="Path_836" data-name="Path 836" d="M1515.322,1307.791c.366-.009.357.027.512.11a9.07,9.07,0,0,0,1.5.624,5.653,5.653,0,0,0,3.286.058,4.6,4.6,0,0,0,3.367-5.6c-1.11-4.082-7.46-2.349-6.346,1.75q-.207-2.123,1.23-2.5a1.208,1.208,0,0,1,.578.055c-.163.063-.538-.184-.653-.229a8.582,8.582,0,0,0-3.478-.853c-4.228.1-4.243,6.683,0,6.581Z" fill="#60843a"/>
    </g>
    <g id="Group_294" data-name="Group 294">
      <path id="Path_837" data-name="Path 837" d="M1520.771,1288.024c-6.408-.651-15.184-.641-19.448,4.951-2.567,3.366,3.145,6.648,5.682,3.321,1.221-1.6,4.891-1.657,6.686-1.817a37.224,37.224,0,0,1,7.08.126c4.21.427,4.18-6.157,0-6.581Z" fill="#60843a"/>
    </g>
    <g id="Group_295" data-name="Group 295">
      <path id="Path_838" data-name="Path 838" d="M1496.71,1303.539c-4.041,4.616-10.267.845-14.414-1.62-3.649-2.169-6.963,3.518-3.322,5.682,6.783,4.031,16.164,7.7,22.389.592,2.779-3.175-1.857-7.848-4.653-4.654Z" fill="#60843a"/>
    </g>
    <g id="Group_296" data-name="Group 296">
      <path id="Path_839" data-name="Path 839" d="M1473.454,1310.56q2.22,6.289,4.47,12.569a3.34,3.34,0,0,0,6.014.786,7.911,7.911,0,0,0,1.456-5.187c-.254-4.208-6.836-4.237-6.581,0a2.133,2.133,0,0,1-.558,1.865l6.014.786q-2.25-6.279-4.469-12.569c-1.4-3.967-7.76-2.259-6.346,1.75Z" fill="#60843a"/>
    </g>
    <g id="Group_297" data-name="Group 297">
      <path id="Path_840" data-name="Path 840" d="M1480.294,1319.643c1.436,2.124,2.776,4.86,4.7,6.579,2.377,2.129,5.588,1.287,8.007-.26,3.558-2.273.261-7.971-3.321-5.682-.01.007-1.455.866-1.469.734q1.254.836,1.113.252l-.669-.988-2.675-3.956c-2.36-3.489-8.064-.2-5.682,3.321Z" fill="#60843a"/>
    </g>
    <g id="Group_298" data-name="Group 298">
      <path id="Path_841" data-name="Path 841" d="M1490.237,1321.906a14.445,14.445,0,0,1-2.323,4.783,3.316,3.316,0,0,0,1.181,4.5,3.362,3.362,0,0,0,4.5-1.18,19.543,19.543,0,0,0,2.986-6.356c1.107-4.093-5.239-5.839-6.345-1.749Z" fill="#60843a"/>
    </g>
    <g id="Group_299" data-name="Group 299">
      <path id="Path_842" data-name="Path 842" d="M1464.515,1337.908c-.186.492-.821.864-.273.587a3.273,3.273,0,0,0,1.346-4.109,3.365,3.365,0,0,0-3.881-1.905l-2.19.321c-1.76.258-2.728,2.486-2.3,4.048.518,1.887,2.282,2.556,4.047,2.3l2.19-.321-2.535-6.014a5.807,5.807,0,0,0-2.752,3.345,3.319,3.319,0,0,0,2.3,4.048,3.363,3.363,0,0,0,4.048-2.3Z" fill="#60843a"/>
    </g>
    <g id="Group_300" data-name="Group 300">
      <path id="Path_843" data-name="Path 843" d="M1443.5,1332.2l3.462.6a3.386,3.386,0,0,0,4.047-2.3c.436-1.585-.538-3.741-2.3-4.047l-3.462-.6a3.385,3.385,0,0,0-4.047,2.3c-.436,1.585.538,3.741,2.3,4.047Z" fill="#60843a"/>
    </g>
    <g id="Group_301" data-name="Group 301">
      <path id="Path_844" data-name="Path 844" d="M1455.034,1320.075l3.937.724c2.343.431,4.836-1.471,4.047-4.047q-3.54-11.557-6.563-23.26l-4.047,4.048,5.349.974c4.14.753,5.916-5.588,1.749-6.346l-5.349-.974a3.333,3.333,0,0,0-4.047,4.048q3.024,11.7,6.563,23.259l4.047-4.047-3.937-.725c-4.14-.761-5.915,5.58-1.749,6.346Z" fill="#60843a"/>
    </g>
    <g id="Group_302" data-name="Group 302">
      <path id="Path_845" data-name="Path 845" d="M1458.966,1297.7c1.224.942,3.461,2.792,3.207,4.61-.234,1.681-2.427,2.73-3.7,3.476-3.65,2.143-.342,7.833,3.322,5.683,3.426-2.012,6.859-4.835,6.958-9.159.1-4.472-3.177-7.761-6.466-10.293-1.419-1.092-3.671-.206-4.5,1.181-1.01,1.686-.221,3.423,1.18,4.5Z" fill="#60843a"/>
    </g>
    <g id="Group_303" data-name="Group 303">
      <path id="Path_846" data-name="Path 846" d="M1433.727,1314.255a12.956,12.956,0,0,0,3.383-3.314l-6.014-.786c.174.667-.016.032.069-.172-.271.653.35-.135-.149.4.378-.405-.279.451.071-.032-.2.282-.341.126.168.065a3.393,3.393,0,0,0-3.29,3.291c0,1.613,1.514,3.5,3.29,3.29a6.978,6.978,0,0,0,5.261-3.026,6.775,6.775,0,0,0,.926-5.565,3.277,3.277,0,0,0-2.736-2.357,3.387,3.387,0,0,0-3.278,1.571,6.576,6.576,0,0,1-1.022.953,3.37,3.37,0,0,0-1.18,4.5,3.32,3.32,0,0,0,4.5,1.18Z" fill="#60843a"/>
    </g>
    <g id="Group_304" data-name="Group 304">
      <path id="Path_847" data-name="Path 847" d="M1420.571,1325.031a16.964,16.964,0,0,1,1.852,3.057,13.245,13.245,0,0,1,.584,1.409c.071.215.141.431.211.646q.131,1.469,1-.343h1.75l-.482-.07a3.4,3.4,0,0,0-4.047,2.3c-.425,1.545.528,3.792,2.3,4.047,4.008.578,6.778-2.458,6.1-6.439-.58-3.431-2.519-6.564-4.62-9.259-1.094-1.4-3.506-1.148-4.654,0-1.384,1.384-1.1,3.246,0,4.653Z" fill="#60843a"/>
    </g>
    <g id="Group_305" data-name="Group 305">
      <path id="Path_848" data-name="Path 848" d="M1407.012,1338.766q-1.46-2.01,1.021-3.421a3.372,3.372,0,0,0-2.3,4.048,3.321,3.321,0,0,0,4.047,2.3c3.107-1.088,4.507-5.155,1.883-7.578-3.108-2.87-7.773,1.773-4.653,4.653Z" fill="#60843a"/>
    </g>
    <g id="Group_306" data-name="Group 306">
      <path id="Path_849" data-name="Path 849" d="M1425.878,1325.879c-1.241.764-3.04,2.23-4.461,2.62l3.716,1.512q.321-2.555-1.562-2.153l-2.535-.332c1.752.894,2.763,3.465,3.6,5.106.881,1.733,3.888,2.3,5.168.666l2.854-3.641-5.5-1.452a45.5,45.5,0,0,1,1.423,5.493c.43,2.21,3.082,2.853,4.834,1.967,4.468-2.26,7.048-6.311,9.367-10.594l-6.131-1.661c-.451,5.077.378,12.894,6.9,13.462,1.923.167,3.089-1.656,3.29-3.291l.031-.251c.186-1.5-1.169-2.711-2.415-3.173l-.194-.072c-3.977-1.473-5.693,4.885-1.749,6.346l.193.072-2.415-3.173-.031.251,3.29-3.29c-.787-.069-.39-6.086-.319-6.881.293-3.3-4.639-4.416-6.132-1.66-1.792,3.308-3.529,6.474-7.006,8.233l4.833,1.966a45.606,45.606,0,0,0-1.423-5.494c-.686-2.1-3.868-3.534-5.5-1.452l-2.853,3.642,5.167.666c-1.609-3.166-5.032-9.761-9.7-7.516-3.871,1.862-3.364,8.634-1.168,11.537a3.434,3.434,0,0,0,3.716,1.512c2.2-.6,4.11-2.1,6.033-3.283,3.6-2.219.3-7.913-3.321-5.682Z" fill="#60843a"/>
    </g>
    <g id="Group_307" data-name="Group 307">
      <path id="Path_850" data-name="Path 850" d="M1436.719,1314.862l-.153.175,1.452-.846-.188.052h1.749a1.738,1.738,0,0,1,1.258,1.128l-.1-.482c-.079-.565-.235-1.129-.35-1.688l-.65-3.133a3.291,3.291,0,0,0-6.346,1.749c.424,2.045.563,4.659,1.591,6.5,1.251,2.238,4.483,3.389,6.39,1.2a3.371,3.371,0,0,0,0-4.653,3.32,3.32,0,0,0-4.653,0Z" fill="#60843a"/>
    </g>
    <g id="Group_308" data-name="Group 308">
      <path id="Path_851" data-name="Path 851" d="M1432.14,1304.892a6.88,6.88,0,0,0,3.379,5.936c3.625,2.213,6.935-3.476,3.322-5.682.22.134-.252-.332-.135-.118.072.132.02.672.015-.136-.027-4.233-6.608-4.243-6.581,0Z" fill="#60843a"/>
    </g>
    <g id="Group_309" data-name="Group 309">
      <path id="Path_852" data-name="Path 852" d="M1393.041,1322.459A9.183,9.183,0,0,1,1394.8,1324a8.537,8.537,0,0,1,.56.7c.843,1.188-.186.588.512-.805l1.18-1.18-.225.167,1.661-.449-.314.012,2.841,4.952a7.737,7.737,0,0,1,3.739-2.658l-4.165-3.173a6.905,6.905,0,0,1-.863,4.441q2.585-.334,5.168-.666l.25.366c-.268-1.758-2.479-2.729-4.048-2.3a3.373,3.373,0,0,0-2.3,4.047,4.239,4.239,0,0,0,1.443,2.538,3.337,3.337,0,0,0,5.167-.666,12.794,12.794,0,0,0,1.761-7.762c-.2-1.981-1.955-3.921-4.165-3.173a15.364,15.364,0,0,0-7.671,5.682c-1.485,2.015.513,5.047,2.841,4.951,3.259-.134,4.721-3.29,3.65-6.166-.951-2.551-3.27-4.6-5.464-6.089-3.517-2.38-6.814,3.319-3.322,5.682Z" fill="#60843a"/>
    </g>
    <g id="Group_310" data-name="Group 310">
      <path id="Path_853" data-name="Path 853" d="M1393.043,1329.1l-19.487-.607,2.841,4.951a19.316,19.316,0,0,1,4.036-4.678c3.216-2.765-1.456-7.4-4.654-4.653a24.948,24.948,0,0,0-5.064,6.009,3.322,3.322,0,0,0,2.841,4.951l19.487.608c4.235.132,4.231-6.449,0-6.581Z" fill="#60843a"/>
    </g>
    <g id="Group_311" data-name="Group 311">
      <path id="Path_854" data-name="Path 854" d="M1381.037,1330.521c-.739-.243-.651-1.145-.807-.4a4.79,4.79,0,0,0,.354,1.292,7.369,7.369,0,0,0,1.227,2.42c1.682,2.062,4.308,2.095,6.582,1.019a14.284,14.284,0,0,0,7.248-8.489c.159-.5.253-1.01.372-1.519q.092-.53.234-1.046.27-.649-.324-.009c1.936.072,3.075-1.58,3.29-3.291a4.353,4.353,0,0,0-1.48-3.75c-3.1-2.882-7.762,1.761-4.654,4.654l-.447-.9,3.291-3.29a5.778,5.778,0,0,0-5.425,3.3c-1.127,2.165-.937,4.547-2.568,6.512a7.574,7.574,0,0,1-1.14,1.109c-.821.648-1.12.289-.406,1.172,1.112,1.378.281-.706.118-1.185a5.686,5.686,0,0,0-3.715-3.94c-4.032-1.329-5.76,5.024-1.75,6.345Z" fill="#60843a"/>
    </g>
    <g id="Group_312" data-name="Group 312">
      <path id="Path_855" data-name="Path 855" d="M1375.039,1314.179l.646-.7-2.327.964.951-.037q-.831-3.064-1.661-6.131c-5.277,3.892-11.48,3.2-15.7-1.828-2.726-3.247-7.361,1.429-4.653,4.654a17.311,17.311,0,0,0,23.679,2.856c2.412-1.778,1.9-6.268-1.66-6.131a4.719,4.719,0,0,0-3.923,1.7c-2.872,3.1,1.77,7.77,4.653,4.653Z" fill="#60843a"/>
    </g>
    <g id="Group_313" data-name="Group 313">
      <path id="Path_856" data-name="Path 856" d="M1354.814,1297.042l1.949,1.77a3.362,3.362,0,0,0,4.653,0,3.325,3.325,0,0,0,0-4.654l-1.948-1.769a3.363,3.363,0,0,0-4.654,0,3.325,3.325,0,0,0,0,4.653Z" fill="#60843a"/>
    </g>
    <g id="Group_314" data-name="Group 314">
      <path id="Path_857" data-name="Path 857" d="M1364.587,1296.473l1.383,7.392,4.834-3.716-.32-.242,1.512,1.967-.62,2.118h-4.654a3.277,3.277,0,0,1,1.263,1.59,3.337,3.337,0,0,0,6.014.786l7.493-11.043h-5.682a7.59,7.59,0,0,1-.014,6.181c-.874,1.557-2.993,1.923-4.6,2.253-4.146.851-2.391,7.195,1.75,6.346,3.623-.744,7.271-2.407,8.886-5.953,1.6-3.517,1.689-8.81-.337-12.148a3.332,3.332,0,0,0-5.682,0l-7.493,11.042,6.014.786a9.4,9.4,0,0,0-2.955-4.494,3.37,3.37,0,0,0-4.654,0c-2.09,2.108-1.433,4.833.76,6.494,2.527,1.914,5.3-1.236,4.834-3.716q-.692-3.7-1.384-7.392c-.778-4.158-7.121-2.4-6.345,1.749Z" fill="#60843a"/>
    </g>
    <g id="Group_315" data-name="Group 315">
      <path id="Path_858" data-name="Path 858" d="M1361.588,1311.382l1.512,1.719c.158.18,1.234,1.713.963.837v-1.749l-.1.305.846-1.452c-1.428,1.842-3.1,3.533-4.65,5.277-2.8,3.159,1.836,7.83,4.653,4.654l2.964-3.342c.927-1.046,2.193-2.159,2.581-3.54.831-2.964-2.4-5.4-4.119-7.363-2.8-3.186-7.441,1.483-4.654,4.654Z" fill="#60843a"/>
    </g>
    <g id="Group_316" data-name="Group 316">
      <path id="Path_859" data-name="Path 859" d="M1349.146,1324.173a6.3,6.3,0,0,0-.95,7.213,10.286,10.286,0,0,0,2.415,2.944c.461.409.966.78,1.4,1.222l.491.509q.452.966,1.069-.624c-4.223-.327-4.2,6.255,0,6.581,3.459.268,6.022-3,5.689-6.29a7.7,7.7,0,0,0-2.1-4.32,20.109,20.109,0,0,0-1.6-1.479q-.594-.489-1.138-1.033-.426-1.048-.619-.069c2.724-3.212-1.909-7.889-4.653-4.654Z" fill="#60843a"/>
    </g>
    <g id="Group_317" data-name="Group 317">
      <path id="Path_860" data-name="Path 860" d="M1360.409,1338.75a20.365,20.365,0,0,0,.545,3.446c.068.291.451,1.291.293,1.628.08-.171.28-.339-.179-.112a10.708,10.708,0,0,1-3.363.456l-4.819.487a3.388,3.388,0,0,0-3.29,3.29,3.311,3.311,0,0,0,3.29,3.291c3.821-.386,9.1.008,12.358-2.343a6.211,6.211,0,0,0,2.557-4.775c.1-1.856-.706-3.551-.812-5.368-.244-4.209-6.826-4.237-6.58,0Z" fill="#60843a"/>
    </g>
    <g id="Group_318" data-name="Group 318">
      <path id="Path_861" data-name="Path 861" d="M1348.773,1344.738a100.534,100.534,0,0,1-4.671,9.533,3.367,3.367,0,0,0,.515,3.988,7.426,7.426,0,0,0,2.9,1.753c3.991,1.437,5.711-4.92,1.749-6.346l.006-.061q.258,1.993.515,3.988a117.059,117.059,0,0,0,5.334-11.1c.7-1.651-.749-3.6-2.3-4.048-1.893-.543-3.361.669-4.048,2.3Z" fill="#60843a"/>
    </g>
    <g id="Group_319" data-name="Group 319">
      <path id="Path_862" data-name="Path 862" d="M1359.632,1355.679a2.389,2.389,0,0,1,1.065-2.173l-3.988-.514c1.735,1.961,1.189,5.1,3.789,6.362a4.431,4.431,0,0,0,3.17.25,24.12,24.12,0,0,0,2.589-1.85l-2.327-.964c1.234,1.165,1.008,2.569,2.937,3.211a4.354,4.354,0,0,0,2.21.091c2.6-.588-.771-1.621-.445.11.785,4.157,7.128,2.4,6.346-1.749a6.571,6.571,0,0,0-2.81-4.669,4.836,4.836,0,0,0-2.816-.653q-.586.075-1.169.172-2.509.758,1.938,1.2c.215-1.721-2.672-3.19-3.864-3.329a4.3,4.3,0,0,0-2.481.378,7.861,7.861,0,0,0-1.456.995q-1.743,1.272.979.814l1.512,1.966c-.831-2.673-1.556-4.85-3.448-6.989a3.306,3.306,0,0,0-3.988-.514,9.3,9.3,0,0,0-4.323,7.855c-.086,4.236,6.495,4.236,6.58,0Z" fill="#60843a"/>
    </g>
    <g id="Group_320" data-name="Group 320">
      <path id="Path_863" data-name="Path 863" d="M1373.037,1357.791a8.949,8.949,0,0,1,1.577,3.173c.891,3.052,5.53,3.21,6.345,0a34.925,34.925,0,0,0,1.07-7.958l-4.165,3.173c-.715-.227-1.778-1.681-1.186-2.523a3.318,3.318,0,0,0,1.18,4.5,3.359,3.359,0,0,0,4.5-1.18c1.869-2.66.133-6.231-2.746-7.145a3.322,3.322,0,0,0-4.165,3.173,26.865,26.865,0,0,1-.835,6.208h6.345a17.054,17.054,0,0,0-3.268-6.076c-1.12-1.382-3.489-1.164-4.654,0a3.368,3.368,0,0,0,0,4.653Z" fill="#60843a"/>
    </g>
    <g id="Group_321" data-name="Group 321">
      <path id="Path_864" data-name="Path 864" d="M1400.217,1360.541a9.815,9.815,0,0,1,1.608-1.666,5.292,5.292,0,0,0,.682-.5c.451-.542-1,0-1.373-.643,2.114,3.668,7.8.358,5.682-3.322a5.269,5.269,0,0,0-7.261-1.934,15.923,15.923,0,0,0-5.02,4.746c-1.052,1.434-.241,3.67,1.18,4.5a3.366,3.366,0,0,0,4.5-1.181Z" fill="#60843a"/>
    </g>
    <g id="Group_322" data-name="Group 322">
      <path id="Path_865" data-name="Path 865" d="M1418.482,1356.224q6.9-.289,13.793.081c4.232.227,4.219-6.355,0-6.581q-6.9-.37-13.793-.081c-4.219.177-4.241,6.759,0,6.581Z" fill="#60843a"/>
    </g>
    <g id="Group_323" data-name="Group 323">
      <path id="Path_866" data-name="Path 866" d="M1431.023,1351.7a10.569,10.569,0,0,0,7.278,5.334,3.347,3.347,0,0,0,4.165-3.173,13.7,13.7,0,0,1,.616-3.507l-5.5,1.452c1.5,1.819,3.9,1.863,5.882.947a3.318,3.318,0,0,0,1.181-4.5,3.367,3.367,0,0,0-4.5-1.18l2.092.082c-1.645-2-4.844-.728-5.5,1.452a21.177,21.177,0,0,0-.851,5.256l4.165-3.173a4.334,4.334,0,0,1-3.345-2.309c-2.038-3.714-7.723-.4-5.682,3.321Z" fill="#60843a"/>
    </g>
    <path id="Path_867" data-name="Path 867" d="M1683.808,1255.769c-.245,0-.34-.023-.124-.065C1683.7,1255.7,1683.753,1255.712,1683.808,1255.769Z" opacity="0.37" style="mix-blend-mode: soft-light;isolation: isolate"/>
    <path id="Path_868" data-name="Path 868" d="M1684.178,1256.054a3.772,3.772,0,0,0-.348-.29C1684.931,1255.793,1688.649,1255.6,1684.178,1256.054Z" opacity="0.37" style="mix-blend-mode: soft-light;isolation: isolate"/>
    <path id="Path_869" data-name="Path 869" d="M1717.969,1308.435c-1.744,2.6-42.338,16.024-53.184,18.165s-16.659,2.371-53.947,5.235c-37.293,2.843-13.111,4.376-29.43,15.266-16.341,10.894-25.243,4.534-38,3.9-12.737-.639-24.355-4.674-40.757,3.527s-12.767,6.119-26.366,7.909c-13.62,1.793-39.122,5.015-61.506,10.327-22.379,5.333-34.538,7.732-51.514,6.119-17-1.609-39.383,5.961-39.383,5.961s-2.336-4.928-.128-18.891,5.211-5.544,8.534-11.589c3.3-6.061-9.428-15.713-1.036-37.2,8.371-21.485,2.09-3.118,8.591-6.659,6.522-3.546,9.05-11.244,4.046-22.89-5-11.623-.078-4.926-1.252-13.257-1.2-8.327,12.486-7.428,18.663-10.458,6.159-3,10.253-7.412,14.351-18.595s2.175-2.687,5.211-5.545c3.04-2.836,7.042-3.178,12.942-7.5s3.76-15.163,4.045-20.63c.264-5.463,6.016-10.645,7.055-16.708,1.061-6.068,2.774.347,11.353,4.959s15.371-6.633,19.9-13.384,1.492-6.153-2.216-18.031c-3.691-11.905-.428-4.432,2.984-14.563s11.14-14.362,12.718-22.343,7.735-8.726,12.077-7.347a4.071,4.071,0,0,1,.61.26c-1.627,3.764-2.312,9.243-.87,17.232,4.607,25.5,15.986,23.675,3.311,27.429s-32-9.2-23.882,4.288,15.132,10.854,16.188,11.9c1.034,1.048-2.422-1.624-1.557,4.913.887,6.533-6.865,9.739,4.115,5.9s10.035-14.971,14.471-11.642c4.41,3.31,13.129,7.045,5.049,10.742-8.084,3.674-7.321-5.263-7.457,9.006-.109,14.287-3.78,29.678-19.069,18.028-15.294-11.671-12.76-28.516-19.987-12-7.2,16.515-10.873,27.725-3.052,31.212s19.823,6.977-1.783,5.808c-21.631-1.187-27.657-8.382-21.631-1.187,6.047,7.191,18.7,7.623,21.686,9.963,2.971,2.365,13.911-14.484,7.98.1s-1.346,25.017-10.441,15.073-5.118-17.436-9.551-16.561c-4.454.879-24.93-3.062-16.311,4.471,8.615,7.512,11.785-6.1,11.025,7.036-.756,13.163-13.9,8.2-.519,14.368s15.972,2.3,15.48,6.157c-.508,3.878-10.25,1.195-1.961,5.015,8.306,3.794,23.025-8.748,16.219,1.405s-4.317,14.267,7.947,14.776,15.422-6.822,13.288,3.661c-2.114,10.478-.043,16.777,3.7,12.283,3.716-4.512,1.02-20.325,5.66-9.5,4.662,10.819,37.751,29.845,35.445,18.159-2.31-11.707-12.907-31.416-1.4-17.767,11.507,13.671,8.837,12.946,22.727,6.851s8.933,9.126,18.969-5.845,27.4-22.6,22.05-9.382,6.185,12.194,10.54,6.729c4.372-5.491,17.855-7.3,20.353-5.291,2.482,2.037-5.365-16.538,3.492-7.8,8.831,8.721-.92,8.141,7.229,11.139,8.127,3-5.4-6.067,10.982-8.025,16.378-1.981,20.3,13.589,20.1-2.289-.209-15.9,1.155-11.14,10.738-5.071,9.586,6.09,7.471,12.366,12.981,4.146,5.493-8.194,14.407,13.524,15.185-8.028.782-21.529-3.114-13.627,4.25-25.142,1.913-2.994,3.478-4.354,4.715-5,8.6,11.405,25.618,35.324,30.4,38.808C1725.437,1305.15,1719.714,1305.832,1717.969,1308.435Z" opacity="0.37" style="mix-blend-mode: soft-light;isolation: isolate"/>
    <path id="Path_870" data-name="Path 870" d="M1683.684,1255.7c.021-.005.069.008.124.065C1683.563,1255.772,1683.468,1255.746,1683.684,1255.7Z"/>
    <path id="Path_871" data-name="Path 871" d="M1684.178,1256.054a3.772,3.772,0,0,0-.348-.29C1684.931,1255.793,1688.649,1255.6,1684.178,1256.054Z"/>
    <path id="Path_872" data-name="Path 872" d="M1427.391,1215.5a4.525,4.525,0,1,1-5.315-3.563A4.525,4.525,0,0,1,1427.391,1215.5Z" fill="#72fceb"/>
    <path id="Path_873" data-name="Path 873" d="M1482.671,1166.84a4.524,4.524,0,1,1-5.315-3.563A4.525,4.525,0,0,1,1482.671,1166.84Z" fill="#72fceb"/>
    <path id="Path_874" data-name="Path 874" d="M1511.386,1208.223a4.524,4.524,0,1,1-.7,6.36A4.524,4.524,0,0,1,1511.386,1208.223Z" fill="#72fceb"/>
    <path id="Path_875" data-name="Path 875" d="M1467.715,1256.72a4.524,4.524,0,1,1,1.592-6.2A4.524,4.524,0,0,1,1467.715,1256.72Z" fill="#72fceb"/>
    <path id="Path_876" data-name="Path 876" d="M1573.664,1260.651a4.524,4.524,0,1,1,1.593-6.2A4.525,4.525,0,0,1,1573.664,1260.651Z" fill="#72fceb"/>
    <path id="Path_877" data-name="Path 877" d="M1516.515,1312.018a4.524,4.524,0,1,1,1.593-6.2A4.525,4.525,0,0,1,1516.515,1312.018Z" fill="#72fceb"/>
    <path id="Path_878" data-name="Path 878" d="M1394.769,1298.942a4.524,4.524,0,1,1,1.593-6.2A4.523,4.523,0,0,1,1394.769,1298.942Z" fill="#72fceb"/>
    <g id="Group_339" data-name="Group 339">
      <path id="Path_879" data-name="Path 879" d="M1049.954,1283.66a96.781,96.781,0,1,0,76.221-113.682A96.79,96.79,0,0,0,1049.954,1283.66Zm17.755-3.5a78.684,78.684,0,1,1,92.435,61.952A78.688,78.688,0,0,1,1067.709,1280.156Z" fill="#ffce00"/>
      <path id="Path_880" data-name="Path 880" d="M1060.174,1281.643a86.364,86.364,0,1,0,68.018-101.445A86.377,86.377,0,0,0,1060.174,1281.643Zm7.535-1.487a78.684,78.684,0,1,1,92.435,61.952A78.688,78.688,0,0,1,1067.709,1280.156Z" opacity="0.37" style="mix-blend-mode: soft-light;isolation: isolate"/>
      <path id="Path_881" data-name="Path 881" d="M1143.464,1221.265s-29.938-33.551-32.874-32.523,13.441,40.842,13.441,40.842Z" fill="#f9c023"/>
      <path id="Path_882" data-name="Path 882" d="M1124.035,1229.581l19.436-8.316s-3.582-4.012-8.388-9.217a13.163,13.163,0,0,1-14.05-5.757c-3.6-5.635-7.735-12.3-10.572-17.46C1108.167,1191.021,1124.035,1229.581,1124.035,1229.581Z" opacity="0.37" style="mix-blend-mode: soft-light;isolation: isolate"/>
      <path id="Path_883" data-name="Path 883" d="M1160.023,1223.378s-11.789-12.023-29.064-4.129-10.421,26.718-10.421,26.718Z" fill="#ffce00"/>
      <path id="Path_884" data-name="Path 884" d="M1120.542,1245.974l39.479-22.6a24.63,24.63,0,0,0-6.853-4.514c-11.539.587-28.361,9.949-32.26,10.065C1117.3,1237.064,1120.542,1245.974,1120.542,1245.974Z" opacity="0.37" style="mix-blend-mode: soft-light;isolation: isolate"/>
      <path id="Path_885" data-name="Path 885" d="M1220.836,1261.149s-33.668-59.271-83.25-35.585-7.731,88.066-7.731,88.066Z" fill="#f9c023"/>
      <path id="Path_886" data-name="Path 886" d="M1129.861,1313.631l90.976-52.486s-.513-.9-1.5-2.431c-27.5-.058-42.722,14.729-55.955,16.91-13.9,2.3-37.717-12.741-29.5-32.521,4.991-12.033,23.328-18.729,36.913-22.111-9.936-2.041-21.092-1.211-33.2,4.574C1088.012,1249.253,1129.861,1313.631,1129.861,1313.631Z" opacity="0.37" style="mix-blend-mode: soft-light;isolation: isolate"/>
      <g id="Group_324" data-name="Group 324">
        <path id="Path_887" data-name="Path 887" d="M1199.507,1268.945s15.728-27.093-32.735-36.362c0,0-11.9,49.88,12.566,45.5S1199.507,1268.945,1199.507,1268.945Z" fill="#ffce00"/>
        <path id="Path_888" data-name="Path 888" d="M1195.893,1265.633s11.614-20.007-24.173-26.852c0,0-8.791,36.834,9.28,33.6S1195.893,1265.633,1195.893,1265.633Z" fill="#f9c023"/>
        <path id="Path_889" data-name="Path 889" d="M1179.051,1258.687c2.38,4.306,6.637,6.51,9.507,4.923s3.268-6.364.888-10.669-6.637-6.51-9.508-4.923S1176.67,1254.382,1179.051,1258.687Z" fill="#ef6b29"/>
        <path id="Path_890" data-name="Path 890" d="M1179.045,1258.694c2.379,4.3,6.64,6.5,9.515,4.914s3.271-6.369.893-10.666c-2.382-4.313-6.644-6.517-9.519-4.93S1176.663,1254.381,1179.045,1258.694Zm2.4-10.055c1.9-1.044,4.72.408,6.286,3.255s1.31,5.992-.586,7.051-4.7-.411-6.285-3.255S1179.546,1249.683,1181.445,1248.639Z" opacity="0.37" style="mix-blend-mode: soft-light;isolation: isolate"/>
      </g>
      <g id="Group_325" data-name="Group 325">
        <path id="Path_891" data-name="Path 891" d="M1169.353,1282.854s5.211-13.166-17.073-14.056c0,0-1.972,23.095,8.671,19.494S1169.353,1282.854,1169.353,1282.854Z" fill="#ffce00"/>
        <path id="Path_892" data-name="Path 892" d="M1167.515,1281.616s3.849-9.723-12.608-10.379c0,0-1.456,17.054,6.4,14.395S1167.515,1281.616,1167.515,1281.616Z" fill="#f9c023"/>
        <path id="Path_893" data-name="Path 893" d="M1159.521,1279.642c1.353,1.765,3.4,2.465,4.58,1.562s1.033-3.063-.32-4.828-3.4-2.464-4.58-1.562S1158.168,1277.878,1159.521,1279.642Z" fill="#ef6b29"/>
        <path id="Path_894" data-name="Path 894" d="M1159.519,1279.646c1.351,1.761,3.4,2.46,4.583,1.557s1.034-3.066-.317-4.827-3.407-2.467-4.586-1.565S1158.164,1277.878,1159.519,1279.646Zm.4-4.656c.779-.594,2.137-.135,3.029,1.033s.987,2.59.211,3.191-2.13.132-3.028-1.033S1159.138,1275.584,1159.916,1274.99Z" opacity="0.37" style="mix-blend-mode: soft-light;isolation: isolate"/>
      </g>
      <g id="Group_326" data-name="Group 326">
        <path id="Path_895" data-name="Path 895" d="M1154.787,1294.248s5.211-13.166-17.074-14.055c0,0-1.972,23.094,8.672,19.493S1154.787,1294.248,1154.787,1294.248Z" fill="#ffce00"/>
        <path id="Path_896" data-name="Path 896" d="M1152.949,1293.01s3.848-9.722-12.608-10.379c0,0-1.456,17.054,6.4,14.4S1152.949,1293.01,1152.949,1293.01Z" fill="#f9c023"/>
        <path id="Path_897" data-name="Path 897" d="M1144.954,1291.037c1.353,1.764,3.4,2.464,4.581,1.562s1.033-3.064-.32-4.829-3.4-2.464-4.58-1.562S1143.6,1289.272,1144.954,1291.037Z" fill="#ef6b29"/>
        <path id="Path_898" data-name="Path 898" d="M1144.952,1291.04c1.352,1.761,3.405,2.46,4.583,1.558s1.035-3.067-.317-4.828-3.407-2.467-4.585-1.564S1143.6,1289.272,1144.952,1291.04Zm.4-4.656c.778-.594,2.137-.134,3.028,1.033s.988,2.59.212,3.191-2.13.132-3.028-1.033S1144.571,1286.978,1145.35,1286.384Z" opacity="0.37" style="mix-blend-mode: soft-light;isolation: isolate"/>
      </g>
      <g id="Group_327" data-name="Group 327">
        <path id="Path_899" data-name="Path 899" d="M1142.5,1306.986s5.212-13.167-17.073-14.056c0,0-1.972,23.095,8.672,19.494S1142.5,1306.986,1142.5,1306.986Z" fill="#ffce00"/>
        <path id="Path_900" data-name="Path 900" d="M1140.666,1305.748s3.848-9.723-12.608-10.38c0,0-1.457,17.055,6.4,14.395S1140.666,1305.748,1140.666,1305.748Z" fill="#f9c023"/>
        <path id="Path_901" data-name="Path 901" d="M1132.671,1303.774c1.353,1.765,3.4,2.464,4.58,1.562s1.034-3.064-.319-4.829-3.4-2.464-4.581-1.562S1131.318,1302.009,1132.671,1303.774Z" fill="#ef6b29"/>
        <path id="Path_902" data-name="Path 902" d="M1132.669,1303.777c1.352,1.762,3.4,2.461,4.583,1.558s1.034-3.067-.317-4.828-3.407-2.467-4.586-1.564S1131.315,1302.009,1132.669,1303.777Zm.4-4.656c.779-.594,2.138-.134,3.029,1.034s.988,2.59.212,3.19-2.131.133-3.029-1.033S1132.288,1299.716,1133.066,1299.121Z" opacity="0.37" style="mix-blend-mode: soft-light;isolation: isolate"/>
      </g>
      <g id="Group_328" data-name="Group 328">
        <path id="Path_903" data-name="Path 903" d="M1215.879,1264.837s9.982-10.044-10.146-19.651c0,0-10.921,20.445.28,21.334S1215.879,1264.837,1215.879,1264.837Z" fill="#ffce00"/>
        <path id="Path_904" data-name="Path 904" d="M1214.678,1262.974s7.372-7.416-7.492-14.511c0,0-8.064,15.1.207,15.755S1214.678,1262.974,1214.678,1262.974Z" fill="#f9c023"/>
        <path id="Path_905" data-name="Path 905" d="M1208.11,1258.007c.548,2.156,2.156,3.607,3.593,3.242s2.158-2.408,1.611-4.563-2.156-3.607-3.593-3.242S1207.563,1255.852,1208.11,1258.007Z" fill="#ef6b29"/>
        <path id="Path_906" data-name="Path 906" d="M1208.107,1258.01c.548,2.151,2.158,3.6,3.6,3.239s2.16-2.41,1.613-4.562-2.158-3.611-3.6-3.246S1207.56,1255.851,1208.107,1258.01Zm2.2-4.122c.949-.239,2.017.719,2.375,2.144s-.114,2.77-1.064,3.016-2.01-.719-2.375-2.144S1209.359,1254.127,1210.309,1253.888Z" opacity="0.37" style="mix-blend-mode: soft-light;isolation: isolate"/>
      </g>
      <g id="Group_329" data-name="Group 329">
        <path id="Path_907" data-name="Path 907" d="M1285.626,1285.345c1.058,10.657-2.52,22.33-14.521,31.023,0,0-18.82-6.011-19.155-23.529a35.3,35.3,0,0,1-2.914-13.2,23.923,23.923,0,0,1,9.154-19.83C1268.247,1251.727,1283.8,1267.022,1285.626,1285.345Z" fill="#ce9065"/>
        <path id="Path_908" data-name="Path 908" d="M1266.03,1306.419a25.848,25.848,0,0,1-6.065-8.716,28.04,28.04,0,0,1-2.413-10.6,21.816,21.816,0,0,1,2.494-10.711,20.376,20.376,0,0,1,7.223-7.881c-1.685,3.147-3.442,5.957-4.3,9.112a27.605,27.605,0,0,0-1.356,9.415,43.366,43.366,0,0,0,1.338,9.629A95.207,95.207,0,0,0,1266.03,1306.419Z" fill="#a8704a"/>
        <path id="Path_909" data-name="Path 909" d="M1267.332,1300.752s6.584,6.144,13.493-2.983a24.962,24.962,0,0,0,4.8-12.424c1.058,10.657-2.52,22.33-14.521,31.023,0,0-18.82-6.011-19.155-23.529a35.3,35.3,0,0,1-2.914-13.2c1.083,2.688,2.48,5.145,4.124,5.724,3.95,1.383,6.031-3.63,6.031-3.63s5.24-17.2,12.993-15.151C1279.94,1268.649,1281.883,1299.388,1267.332,1300.752Z" opacity="0.37" style="mix-blend-mode: soft-light;isolation: isolate"/>
      </g>
      <g id="Group_331" data-name="Group 331">
        <path id="Path_910" data-name="Path 910" d="M1274.95,1306.363s4.554,27.478,22.43,35.669c8.234,3.773,18.176-.062,21.168-8.61,1.686-4.813,1.983-11.17-1.8-18.93-9.3-19.1-31.687-19.7-31.687-19.7l-1.388,5.92s24.489,8.133,18.923,21.1-26.817-17.407-26.817-17.407a1.049,1.049,0,0,0-1.175-.032Z" fill="#f9c023"/>
        <g id="Group_330" data-name="Group 330">
          <path id="Path_911" data-name="Path 911" d="M1277.533,1316.076a66.811,66.811,0,0,1-2.584-9.716l-.343-1.991a1.064,1.064,0,0,1,1.179.03s12.673,18.117,21.008,20.391C1293.174,1331.82,1284.073,1323.568,1277.533,1316.076Z" opacity="0.37" style="mix-blend-mode: soft-light;isolation: isolate"/>
          <path id="Path_912" data-name="Path 912" d="M1316.749,1314.493c3.783,7.768,3.482,14.113,1.8,18.936a15.03,15.03,0,0,1-11.075,9.674,14.714,14.714,0,0,0,5.528-7.249c1.693-4.815,1.983-11.167-1.8-18.935-6.586-13.531-19.735-17.772-26.848-19.1l.712-3.03S1307.448,1295.387,1316.749,1314.493Z" opacity="0.37" style="mix-blend-mode: soft-light;isolation: isolate"/>
        </g>
      </g>
      <g id="Group_332" data-name="Group 332">
        <path id="Path_913" data-name="Path 913" d="M1119.586,1410.536c10.945,5.78,25,7.04,39.539-2.015,0,0,1.773-22.766-16.832-30.765a40.786,40.786,0,0,0-12.864-8.876c-6.788-2.886-15.665-4.163-25.219,1.15C1091.179,1377.273,1100.77,1400.586,1119.586,1410.536Z" fill="#ce9065"/>
        <path id="Path_914" data-name="Path 914" d="M1150.689,1398.75a110.03,110.03,0,0,0-9.09-7.551,50.1,50.1,0,0,0-9.724-5.631,31.866,31.866,0,0,0-10.67-2.654c-3.752-.454-7.526.2-11.63.633a23.554,23.554,0,0,1,11.586-4.3,25.212,25.212,0,0,1,12.553,2,32.416,32.416,0,0,1,10.29,7.2A29.884,29.884,0,0,1,1150.689,1398.75Z" fill="#a8704a"/>
        <path id="Path_915" data-name="Path 915" d="M1144.054,1397.672s3.706,9.727-9.076,13.143a28.852,28.852,0,0,1-15.392-.279c10.945,5.78,25,7.04,39.539-2.015,0,0,1.773-22.766-16.832-30.765a40.786,40.786,0,0,0-12.864-8.876c2.405,2.331,4.426,4.9,4.328,6.91-.242,4.83-6.515,4.873-6.515,4.873s-20.7-1.894-21.884,7.3C1104.193,1397.168,1136.249,1412.652,1144.054,1397.672Z" opacity="0.37" style="mix-blend-mode: soft-light;isolation: isolate"/>
      </g>
      <path id="Path_916" data-name="Path 916" d="M1154.713,1407.813c.088.126.177.252.281.375,17.61,24.441,45.633,27.727,71.948,20.908,0,.015,0,.015.016,0a123.47,123.47,0,0,0,50.376-27.081c30.01-27.445,32.363-72.311,3.6-93.084-1.822-1.315-3.65-2.66-5.465-4.023-1.345-.995-2.673-1.992-4.017-2.986-5-3.765-9.984-7.612-14.757-11.357-13.647-10.747-25.579-20.716-31.625-25.821-2.7-2.273-4.233-3.6-4.233-3.6-34.1.655-65.868,27.108-81.256,42.2-6.17,6.064-9.72,10.288-9.72,10.288S1124.285,1364.952,1154.713,1407.813Z" fill="#ce9065"/>
      <path id="Path_917" data-name="Path 917" d="M1226.942,1429.1c0,.015,0,.015.016,0a123.47,123.47,0,0,0,50.376-27.081c30.01-27.445,32.363-72.311,3.6-93.084-1.822-1.315-3.65-2.66-5.465-4.023a93.1,93.1,0,0,0-30.214,7.748c3.486,6.677-1.026,25.982-20.489,12.429a107.961,107.961,0,0,0-16.73,16.614C1177.314,1379.422,1190.252,1427.695,1226.942,1429.1Z" fill="#e89191"/>
      <path id="Path_918" data-name="Path 918" d="M1281.07,1323.247a15.854,15.854,0,0,1-1.836,13.563,19.213,19.213,0,0,1-5.2,5.157,20.552,20.552,0,0,1-3.175,1.787l-1.652.752-1.362.685a33.185,33.185,0,0,0-9.443,7.726,110.032,110.032,0,0,0-8.061,10.181c-2.657,3.524-5.241,7.177-8.1,10.737-2.952,3.465-5.952,7.122-10.282,9.753a22.644,22.644,0,0,1-14.028,3.138,25.415,25.415,0,0,1-12.755-5.006c8.38,3.142,17.765,2.725,24.076-2.2a46.67,46.67,0,0,0,8.306-9.317c2.589-3.5,5.12-7.157,7.748-10.815a100.585,100.585,0,0,1,8.819-10.549c3.338-3.235,7.1-6.431,11.838-8.136l1.715-.626,1.455-.482a25.568,25.568,0,0,0,2.826-1.146,16.156,16.156,0,0,0,4.865-3.516A16.368,16.368,0,0,0,1281.07,1323.247Z" fill="#c46565"/>
      <g id="Group_333" data-name="Group 333">
        <path id="Path_919" data-name="Path 919" d="M1231.093,1295.2c4.074,4.661,9.45,6.626,12.007,4.39s1.327-7.826-2.747-12.486-9.45-6.625-12.007-4.39S1227.019,1290.539,1231.093,1295.2Z" opacity="0.37" style="mix-blend-mode: soft-light;isolation: isolate"/>
        <path id="Path_920" data-name="Path 920" d="M1234.408,1295.606c2.613,2.709,5.936,3.742,7.422,2.308s.573-4.792-2.041-7.5-5.936-3.741-7.422-2.307S1231.794,1292.9,1234.408,1295.606Z" fill="#2d2828"/>
        <path id="Path_921" data-name="Path 921" d="M1233.13,1292.2c.633.655,1.474.869,1.88.477s.222-1.24-.41-1.895-1.474-.869-1.88-.477S1232.5,1291.542,1233.13,1292.2Z" fill="#fff"/>
        <path id="Path_922" data-name="Path 922" d="M1235.934,1292.3c.437.453,1.02.6,1.3.33s.154-.858-.283-1.312-1.02-.6-1.3-.33S1235.5,1291.846,1235.934,1292.3Z" fill="#fff"/>
      </g>
      <g id="Group_334" data-name="Group 334">
        <ellipse id="Ellipse_62" data-name="Ellipse 62" cx="7.608" cy="13.866" rx="7.608" ry="13.866" transform="translate(1182.195 1314.134) rotate(-41.164)" opacity="0.37" style="mix-blend-mode: soft-light;isolation: isolate"/>
        <ellipse id="Ellipse_63" data-name="Ellipse 63" cx="4.626" cy="8.431" rx="4.626" ry="8.431" transform="translate(1189.569 1319.01) rotate(-43.977)" fill="#2d2828"/>
        <path id="Path_923" data-name="Path 923" d="M1193.842,1320.859c.783.81,1.824,1.074,2.326.59s.275-1.534-.507-2.345-1.824-1.074-2.326-.59S1193.06,1320.048,1193.842,1320.859Z" fill="#fff"/>
        <path id="Path_924" data-name="Path 924" d="M1197.31,1320.986c.542.561,1.262.743,1.61.408s.19-1.061-.351-1.622-1.262-.744-1.61-.409S1196.769,1320.425,1197.31,1320.986Z" fill="#fff"/>
      </g>
      <path id="Path_925" data-name="Path 925" d="M1200.781,1276.54a54.518,54.518,0,0,1,5.1,4c1.574,1.432,3.148,2.864,4.617,4.378l.172.249a19.263,19.263,0,0,1,3.151,6.653,9.7,9.7,0,0,1,.064,4.511,7.071,7.071,0,0,1-3.349,4.416,8.377,8.377,0,0,1-4.894.926,10.821,10.821,0,0,1-4.031-1.316,18.772,18.772,0,0,1-5.61-4.754l-.125-.142a67.805,67.805,0,0,1-5.557-10.576,67.729,67.729,0,0,1,9.236,7.578l-.125-.141a21.43,21.43,0,0,0,4.7,2.741c1.616.657,2.757.58,3.364.227.235-.2.278-.176.406-.531a4,4,0,0,0,.072-1.834,21.612,21.612,0,0,0-1.517-5.21l.172.248c-1.126-1.785-2.145-3.652-3.165-5.52A54.225,54.225,0,0,1,1200.781,1276.54Z" fill="#ef6b29"/>
      <path id="Path_926" data-name="Path 926" d="M1133.545,1359.442c.685,2.99,1.466,6.056,2.4,9.157a132.088,132.088,0,0,0,18.772,39.214c.088.126.177.252.281.375,13.379,3,20.719-7.628,22.849-15.016,2.519-8.8-3.58-17.006-10.678-13.15-7.081,3.869-4.8,7.451-4.8,7.451s.955-6.47,9.332-4.982c8.362,1.49-4.458,18.369-10.229,18.615s-16.454-8.407-8.81-30.992a39.836,39.836,0,0,0,1.625-14.144,77.992,77.992,0,0,0-1.036-9.935c-.55-3.271-1.265-6.574-2.064-9.812-1.206-4.816-2.638-9.492-4.085-13.75-3.349-9.862-6.744-17.45-7.521-19.13-6.17,6.064-9.72,10.288-9.72,10.288a133.863,133.863,0,0,0,.236,23.9c.379,4.341.968,9.1,1.872,14.171C1132.417,1354.212,1132.926,1356.79,1133.545,1359.442Z" fill="#2d2828"/>
      <g id="Group_336" data-name="Group 336">
        <path id="Path_927" data-name="Path 927" d="M1146.739,1408.273s27.427,16.857,28.4,39.565c.447,10.459-7.993,19.427-18.448,18.9-5.887-.295-12.821-2.75-19.479-10.179-16.388-18.289-7.268-42.509-7.268-42.509l6.943,1.1s-1.974,29.76,14.332,29.456-6.939-36.3-6.939-36.3a1.214,1.214,0,0,1,.478-1.271Z" fill="#f9c023"/>
        <g id="Group_335" data-name="Group 335">
          <path id="Path_928" data-name="Path 928" d="M1156.01,1415.273a77.388,77.388,0,0,0-9.274-7l-1.981-1.235a1.229,1.229,0,0,0-.482,1.275s13.866,21.465,12.665,31.379C1166.042,1438.882,1161.177,1425.541,1156.01,1415.273Z" opacity="0.37" style="mix-blend-mode: soft-light;isolation: isolate"/>
          <path id="Path_929" data-name="Path 929" d="M1137.214,1456.561c6.665,7.437,13.588,9.881,19.484,10.185a17.373,17.373,0,0,0,15.185-7.637,17.012,17.012,0,0,1-10.17,2.757c-5.892-.289-12.818-2.748-19.484-10.185-11.611-12.95-10.417-28.874-8.733-37.066l-3.554-.558S1120.818,1438.273,1137.214,1456.561Z" opacity="0.37" style="mix-blend-mode: soft-light;isolation: isolate"/>
        </g>
      </g>
      <g id="Group_337" data-name="Group 337">
        <path id="Path_930" data-name="Path 930" d="M1176.279,1321.992a30.245,30.245,0,0,1,2.557-7.966c.67-1.455,1.41-2.877,2.189-4.258.259-.466.536-.919.8-1.369.924-1.538,1.851-2.98,2.744-4.272,2.519-3.718,4.633-6.256,4.633-6.256-.92-6.116-7.995-5.612-7.995-5.612a29.878,29.878,0,0,0-6.738,11.262,23.508,23.508,0,0,0-.934,4.314c-.088.766-.148,1.511-.165,2.232a22.335,22.335,0,0,0,.22,3.783A22.028,22.028,0,0,0,1176.279,1321.992Z" fill="#2d2828"/>
        <path id="Path_931" data-name="Path 931" d="M1173.533,1307.835c2.875-.217,6.129-.206,8.29.564.924-1.538,1.851-2.98,2.744-4.272a13.837,13.837,0,0,0-10.1-.606A23.508,23.508,0,0,0,1173.533,1307.835Z" fill="#423f3f"/>
        <path id="Path_932" data-name="Path 932" d="M1173.588,1313.85a19.8,19.8,0,0,1,5.248.176c.67-1.455,1.41-2.877,2.189-4.258a12.907,12.907,0,0,0-7.657.3A22.335,22.335,0,0,0,1173.588,1313.85Z" fill="#423f3f"/>
      </g>
      <g id="Group_338" data-name="Group 338">
        <path id="Path_933" data-name="Path 933" d="M1237.834,1277.074a25.006,25.006,0,0,0-6.918.27c-1.308.21-2.606.485-3.88.8-.429.1-.852.223-1.269.332-1.431.4-2.786.814-4.015,1.239-3.522,1.183-6.014,2.3-6.014,2.3-4.672-2.09-2.7-7.619-2.7-7.619a24.734,24.734,0,0,1,10.474-2.871,19.4,19.4,0,0,1,3.646.213c.63.1,1.238.218,1.816.364a18.571,18.571,0,0,1,2.967,1.015A18.235,18.235,0,0,1,1237.834,1277.074Z" fill="#2d2828"/>
        <path id="Path_934" data-name="Path 934" d="M1227.158,1271.742a18.564,18.564,0,0,0-1.391,6.734c-1.431.4-2.786.814-4.015,1.239a11.457,11.457,0,0,1,1.76-8.186A19.4,19.4,0,0,1,1227.158,1271.742Z" fill="#423f3f"/>
        <path id="Path_935" data-name="Path 935" d="M1231.941,1273.121a16.363,16.363,0,0,0-1.025,4.223c-1.308.21-2.606.485-3.88.8a10.68,10.68,0,0,1,1.938-6.038A18.571,18.571,0,0,1,1231.941,1273.121Z" fill="#423f3f"/>
      </g>
      <path id="Path_936" data-name="Path 936" d="M1131.969,1351.7c6.821-3.244,14.344-8.188,19.218-15.479-1.206-4.816-2.638-9.492-4.085-13.75a41.141,41.141,0,0,1-17.005,15.058C1130.476,1341.872,1131.065,1346.635,1131.969,1351.7Z" fill="#423f3f"/>
      <path id="Path_937" data-name="Path 937" d="M1153.251,1346.035a39.816,39.816,0,0,1-19.706,13.407c.685,2.99,1.466,6.056,2.4,9.157a43.892,43.892,0,0,0,18.346-12.629A77.992,77.992,0,0,0,1153.251,1346.035Z" fill="#423f3f"/>
      <path id="Path_938" data-name="Path 938" d="M1154.713,1407.813c.088.126.177.252.281.375,16.16,20.247,66.634,35.747,113.493-1s25.8-78.334,25.8-78.334c6.6,27.394-8.353,69.8-54.681,78.948-46.312,9.139-103.385-77.042-79.2-109.014,20.01-26.493,53.686-32.692,64.659-34.045-2.7-2.273-4.233-3.6-4.233-3.6-34.1.655-65.868,27.108-81.256,42.2-6.17,6.064-9.72,10.288-9.72,10.288S1124.285,1364.952,1154.713,1407.813Z" opacity="0.37" style="mix-blend-mode: soft-light;isolation: isolate"/>
      <path id="Path_939" data-name="Path 939" d="M1223.321,1301.762l10.844,10.265a14.11,14.11,0,0,1-6.231,7.806s15.732,10.8,17.721-2.6l-.4-4.58-5.044-3.314Z" fill="#e2a67d"/>
      <path id="Path_940" data-name="Path 940" d="M1245.033,1303.45c1.7,4.43,17.1.994,26.419-1.531-5-3.765-9.984-7.612-14.757-11.357C1252.189,1293.014,1243.171,1298.619,1245.033,1303.45Z" fill="#e2a67d"/>
      <path id="Path_941" data-name="Path 941" d="M1218.751,1299.453l15.431,6.531a81.419,81.419,0,0,0,7.7,2.807l.935.226.5.125a4.252,4.252,0,0,1,.776.257,5.162,5.162,0,0,1,2.18,1.957,12.453,12.453,0,0,1,1.037,2.293,15.962,15.962,0,0,1,.463,2.319,16.864,16.864,0,0,1-1.536,8.987c-1.343,2.752-3.97,5.32-7.216,5.8-3.2.634-6.152-.488-8.721-1.7a24.629,24.629,0,0,1-3.622-2.293,29.4,29.4,0,0,1-3.282-2.666,44.822,44.822,0,0,0,7.5,3.546c2.533.822,5.242,1.425,7.591.73a7.831,7.831,0,0,0,5.079-4.695,14.268,14.268,0,0,0,1.1-7.347,13.012,13.012,0,0,0-.319-1.793,10.509,10.509,0,0,0-.648-1.533,2.207,2.207,0,0,0-.851-.854,1.18,1.18,0,0,0-.216-.076l-.517-.14-1.089-.314a59.368,59.368,0,0,1-7.856-3.424A117.732,117.732,0,0,1,1218.751,1299.453Z" fill="#a8704a"/>
    </g>
    <g id="Group_340" data-name="Group 340">
      <path id="Path_942" data-name="Path 942" d="M1174.478,1692.546l49.831,24.916-39.864-40.7Z" fill="#f7a226"/>
      <path id="Path_943" data-name="Path 943" d="M1184.439,1676.766l-9.965,15.774,8.637,4.319,5.877-5.24,35.317,25.838Z" opacity="0.37" style="mix-blend-mode: soft-light;isolation: isolate"/>
      <path id="Path_944" data-name="Path 944" d="M1066.911,1586.969l-.935.588-13.586,8.65-1.494-1.225-2.005-1.662-4.533-3.711-7.307-5.981c-1.114-3.38-2.027-8.119-.481-11.956a8.93,8.93,0,0,1,3.3-4.139l13.112,10.47a11.707,11.707,0,0,0,1.292-.926l4.736,3.716Z" fill="#f7a226"/>
      <path id="Path_945" data-name="Path 945" d="M1066.911,1586.969l-.935.588-13.586,8.65-1.494-1.225-2.005-1.662-4.533-3.711,3.7-9.136-11.485-8.8a8.93,8.93,0,0,1,3.3-4.139l13.112,10.47a11.707,11.707,0,0,0,1.292-.926l4.736,3.716Z" opacity="0.37" style="mix-blend-mode: soft-light;isolation: isolate"/>
      <path id="Path_946" data-name="Path 946" d="M1063.4,1596a.415.415,0,0,0-.04.066.218.218,0,0,0,.06-.049Z" fill="#992828"/>
      <path id="Path_947" data-name="Path 947" d="M1063.362,1596.065c-.233.218-.355.326-.355.326l.148.107C1063.263,1596.289,1063.332,1596.144,1063.362,1596.065Z" fill="#992828"/>
      <ellipse id="Ellipse_64" data-name="Ellipse 64" cx="17.566" cy="17.341" rx="17.566" ry="17.341" transform="matrix(0.217, -0.976, 0.976, 0.217, 1045.113, 1610.271)" fill="#f7a226"/>
      <ellipse id="Ellipse_65" data-name="Ellipse 65" cx="17.566" cy="17.341" rx="17.566" ry="17.341" transform="matrix(0.217, -0.976, 0.976, 0.217, 1151.76, 1693.032)" fill="#e8901c"/>
      <path id="Path_948" data-name="Path 948" d="M1069.662,1579.735a17.591,17.591,0,0,0-21.05,19.142c8.9-17.722,24.211-14.269,15.339-3.8a52.221,52.221,0,0,0-9.329,15.238,16.863,16.863,0,0,0,7.418,3.716,17.567,17.567,0,0,0,7.622-34.3Z" opacity="0.37" style="mix-blend-mode: soft-light;isolation: isolate"/>
      <path id="Path_949" data-name="Path 949" d="M1176.315,1662.5a17.591,17.591,0,0,0-11.711,32.82c8.76-5.755,23.834-18.056,23.282-12.248-.417,4.423-6.609,9.974-11.345,13.622a17.606,17.606,0,0,0-.226-34.194Z" opacity="0.37" style="mix-blend-mode: soft-light;isolation: isolate"/>
      <path id="Path_950" data-name="Path 950" d="M1063.422,1596.016a.218.218,0,0,1-.06.049c-.03.079-.1.224-.207.433-2.928,6.2-30.732,68.25,19.255,96.117,52.661,29.347,96.62-9.669,96.62-9.669l-.1-.085c1.694-3.745,23.466-54.484-17.836-95.247C1120.351,1547.418,1068.571,1591.451,1063.422,1596.016Z" fill="#f7a226"/>
      <path id="Path_951" data-name="Path 951" d="M1063.422,1596.016a.218.218,0,0,1-.06.049c-.03.079-.1.224-.207.433-1.6,3.385-10.62,23.429-10.338,45.467,29.01-59.17,74.887-34.788,74.887-34.788-30.408,35.839-44.64,63.781-51.285,81.671a63.943,63.943,0,0,0,5.991,3.767c1.346.754,2.679,1.457,4.007,2.121,16.851-45.7,71.852-115.857,82.689-71.443,7.973,32.667-5.138,59.271-15.985,74.529a91.369,91.369,0,0,0,25.909-14.876l-.1-.085c1.694-3.745,23.466-54.484-17.836-95.247C1120.351,1547.418,1068.571,1591.451,1063.422,1596.016Z" opacity="0.37" style="mix-blend-mode: soft-light;isolation: isolate"/>
    </g>
  </g>
</svg>
