<svg xmlns="http://www.w3.org/2000/svg" width="620.388" height="657.762" viewBox="0 0 620.388 657.762">
  <g id="Group_597" data-name="Group 597" transform="translate(-158.729 -82.022)">
    <ellipse id="Ellipse_88" data-name="Ellipse 88" cx="310.194" cy="54.191" rx="310.194" ry="54.191" transform="translate(158.728 631.402)" opacity="0.15"/>
    <path id="Path_1538" data-name="Path 1538" d="M650.208,630.525a.655.655,0,0,0-.042.145,112.451,112.451,0,0,1-7.273,17.418c-.723,1.4-1.425,2.748-2.128,4.05-14.3,26.674-23.513,30.869-43.555,38-21.013,7.479-57.605,13.74-125.727,4.256-4.174-.372-7.645-.743-10.745-.929-10.124-.641-16.178.516-28.864,8.409-10.517,6.55-21.158,14.05-30,18.8-5.083,2.748-9.567,4.587-13.121,4.835-9.711.682-23.306-17.79-25.476-28.286-12.438-4.608-2.706-13.389,6.653-16.22.248-.082.517-.165.765-.227-2.273-.062-5.062-.041-8.265.021-24.856.5-73.969,3-89.962-19.691a54.456,54.456,0,0,1-9.855-30.084,51.674,51.674,0,0,1,1.9-15.269.12.12,0,0,0,.02-.082c.248-.848.5-1.674.806-2.5a43.314,43.314,0,0,1,27.067-27.336q1.581-.558,3.223-.992c.062,9.691-4.5,24.05-6.777,29.567-.186.5-.372.93-.537,1.281a11.544,11.544,0,0,1-1.653,2.5c2.335,1.137,6.033.579,12.211-1.9.021,0,.042-.021.062-.021.682-.393,1.426-.806,2.211-1.219,12.872-6.715,40.373-14.856,80.189,5.454a266.658,266.658,0,0,0,39.133,16.282c8.968,2.624,17.728,4.917,26.138,6.674,11.1,2.314,21.591,3.657,31.075,3.492.889,0,1.756-.021,2.624-.062,28.431-12.955,59.01-21.592,81.862-24.588,21.84-3.244,7.005-15.62,20.228-14.691,13.2.93,12.4-.413,10.5-8.76-1.405-6.26,11.839-13.864,27.521-15.393a126.634,126.634,0,0,1-19.381-7.252,132.324,132.324,0,0,1,27.109,1.859c6.735,1.322,11.984,3.8,15.93,7.17C655.538,595.008,656.034,612.26,650.208,630.525Z" fill="#6ac4d8"/>
    <path id="Path_1539" data-name="Path 1539" d="M374.062,680.465c11.632-1.219,34.195-1.033,58.68-11.281-44.072,20.269-46.324,44.01-30.869,51.489-5.083,2.748-9.567,4.587-13.121,4.835-9.711.682-23.306-17.79-25.476-28.286-12.438-4.608-2.706-13.389,6.653-16.22C371.6,680.755,373.029,680.568,374.062,680.465Z" fill="#2a323f" style="mix-blend-mode: soft-light;isolation: isolate"/>
    <path id="Path_1540" data-name="Path 1540" d="M446.668,643.46h-.062c-1.426.1-26.84,1.57-75.912-13.348-37.261-9.6-63.3-11.669-75.93,7.484-12.6,19.154,14.792,44.254,67.789,43.179-.041,0-.082.021-.124.021-24.856.5-73.969,3-89.962-19.691a54.456,54.456,0,0,1-9.855-30.084,51.674,51.674,0,0,1,1.9-15.269.12.12,0,0,0,.02-.082c.248-.848.5-1.674.806-2.5l23.513,1.239,12.294.641s20.765-29.216,89.9-18.7C460.16,606.868,446.668,643.46,446.668,643.46Z" fill="#2a323f" style="mix-blend-mode: soft-light;isolation: isolate"/>
    <path id="Path_1541" data-name="Path 1541" d="M640.765,652.138c-14.3,26.674-23.513,30.869-43.555,38-21.013,7.479-57.605,13.74-125.727,4.256-4.174-.372-7.645-.743-10.745-.929-.372-10.724-.578-18.885-.578-18.885l.434-19.608,17.025-8c.909,0,1.8-.041,2.686-.082,28.431-12.955,59.01-21.592,81.862-24.588,21.84-3.244,7.005-15.62,20.228-14.691,13.2.93,12.4-.413,10.5-8.76-1.405-6.26,11.8-13.864,27.459-15.373-1.2.186-20.476,3.72-22.191,20.146-1.756,16.984-10.248,4.649-18.74,18.595s-57.853,12.749-84.2,33.349c-26.365,20.62,39.733,42.853,91.677,33.555C615.6,683.978,631.9,666.642,640.765,652.138Z" fill="#2a323f" style="mix-blend-mode: soft-light;isolation: isolate"/>
    <path id="Path_1542" data-name="Path 1542" d="M644.071,585.235a38.648,38.648,0,0,1-7.521-.951c-21.282-4.566-45.539,6.2-43.658,14.567,1.9,8.347,2.706,9.69-10.5,8.76-13.223-.929,1.612,11.447-20.228,14.691-18.306,2.4-41.592,8.43-64.733,17.377-5.744,2.231-11.488,4.628-17.129,7.211-17.211.8-37.894-3.7-59.837-10.1A266.658,266.658,0,0,1,381.335,620.5c-42.274-21.57-70.643-11.054-82.4-4.235-.02,0-.041.021-.062.021-15.847,6.343-15.372.062-17.252-14.484-1.777-13.782-15.538,11.074-17.005,13.719a1.235,1.235,0,0,0-.083.145l.062-.186a43.554,43.554,0,0,1,27.811-29.65c28.08-9.856,76.573,2.83,141.038,2.211,13.616-.145,27.253.165,40.869.826a201.894,201.894,0,0,0,39.34-1.611c21.158-3.265,57.027-10.455,87.359-11.054h.02a132.324,132.324,0,0,1,27.109,1.859C634.876,579.387,640.125,581.867,644.071,585.235Z" fill="#87562d"/>
    <path id="Path_1543" data-name="Path 1543" d="M292.406,585.834q1.581-.558,3.223-.992c.062,10.579-5.372,26.7-7.314,30.848a11.544,11.544,0,0,1-1.653,2.5c-3.636-1.714-3.9-7.52-5.041-16.384C279.8,587.714,265.463,614,264.533,615.67A43.612,43.612,0,0,1,292.406,585.834Z" fill="#ff931d"/>
    <path id="Path_1544" data-name="Path 1544" d="M405.323,611.579c4.856,14.484,67.275,28.513,92.111,28.1,0,0-12.707,4.669-19.4,7.19h-.02a135.109,135.109,0,0,1-19.794-1.343c-.579-.083-1.158-.165-1.757-.248a220.987,220.987,0,0,1-35.993-8.492A266.658,266.658,0,0,1,381.335,620.5c-41.634-21.24-69.8-11.364-81.862-4.545-2.4,1.033-10.022,4.029-12.811,2.231-4.566-2.954-16.509,3.224-22.046-2.665,0-.021-.021-.021-.021-.041a43.554,43.554,0,0,1,27.811-29.65c28.08-9.856,76.573,2.83,141.038,2.211,13.616-.145,27.253.165,40.869.826a201.894,201.894,0,0,0,39.34-1.611c21.158-3.265,57.027-10.455,87.359-11.054-1.1.1-40.084,3.863-88.433,17.851C463.528,608.273,400.468,597.074,405.323,611.579Z" fill="#2a323f" opacity="0.5" style="mix-blend-mode: soft-light;isolation: isolate"/>
    <path id="Path_1545" data-name="Path 1545" d="M644.071,585.235a38.648,38.648,0,0,1-7.521-.951,53.19,53.19,0,0,0-16.137-.826,126.634,126.634,0,0,1-19.381-7.252,132.324,132.324,0,0,1,27.109,1.859C634.876,579.387,640.125,581.867,644.071,585.235Z" fill="#ff931d"/>
    <path id="Path_1546" data-name="Path 1546" d="M618.988,505.976c-1.116-15-11.778-35.6-21.406-51.448q-8.863-14.63-16.3-30c-.806-1.7-1.612-3.368-2.376-5.083q-4.743-10.2-8.782-20.724l-2.107-25.993s11.736-33.782,16.157-65.56a140.565,140.565,0,0,0,1.529-26.736c-1.343-23.823-38.141-53.638-75.643-70.705-18.492-8.451-37.15-13.782-51.8-13.782-44.361,0-125.438,48.907-127.463,84.487-2,35.58,17.707,92.3,17.707,92.3L347.16,399.9a374.844,374.844,0,0,1-27.232,52.977c-9.877,16.075-21.261,37.584-22.4,53.1-2.066,27.914,19.774,44.609,42.4,45.291,4.856,17.665,20,19.938,31.427,9.359,10.352,15.848,31.695,5.517,31.695,5.517H513.467s21.344,10.331,31.7-5.517c11.426,10.579,26.571,8.306,31.426-9.359,15.993-.5,31.592-8.968,38.638-23.741A42.471,42.471,0,0,0,618.988,505.976Zm-272.014-102.5H346l1.116-2.975Z" fill="#2a323f"/>
    <g id="Group_527" data-name="Group 527">
      <path id="Path_1547" data-name="Path 1547" d="M544.552,377.942s.122-.216.353-.6c2.73-4.574,20.681-33.044,31.987-10.8,12.262,24.121-12.667,71.688-31.262,35.3C539.566,381.493,544.552,377.942,544.552,377.942Z" fill="#6ac4d8"/>
      <path id="Path_1548" data-name="Path 1548" d="M544.552,377.942s.122-.216.353-.6c2.73-4.574,20.681-33.044,31.987-10.8,12.262,24.121-12.667,71.688-31.262,35.3C539.566,381.493,544.552,377.942,544.552,377.942Z" fill="#2a323f" style="mix-blend-mode: soft-light;isolation: isolate"/>
      <path id="Path_1549" data-name="Path 1549" d="M575.275,377.942c-5.471,1.97-10.383,2.967-14.394,4.955a17.84,17.84,0,0,0-5.155,3.671c-1.574,1.581-2.487,3.84-3.9,6.513a11,11,0,0,1-.285-8.942,13.286,13.286,0,0,1,6.654-6.827,17.919,17.919,0,0,1,8.778-1.694A17.17,17.17,0,0,1,575.275,377.942Z" fill="#2a323f"/>
    </g>
    <g id="Group_528" data-name="Group 528">
      <path id="Path_1550" data-name="Path 1550" d="M371.9,377.942s-.122-.216-.353-.6c-2.73-4.574-20.681-33.044-31.987-10.8-12.263,24.121,12.666,71.688,31.262,35.3C376.89,381.493,371.9,377.942,371.9,377.942Z" fill="#6ac4d8"/>
      <path id="Path_1551" data-name="Path 1551" d="M371.9,377.942s-.122-.216-.353-.6c-2.73-4.574-20.681-33.044-31.987-10.8-12.263,24.121,12.666,71.688,31.262,35.3C376.89,381.493,371.9,377.942,371.9,377.942Z" fill="#2a323f" style="mix-blend-mode: soft-light;isolation: isolate"/>
      <path id="Path_1552" data-name="Path 1552" d="M341.181,377.942a17.17,17.17,0,0,1,8.3-2.324,17.913,17.913,0,0,1,8.777,1.694,13.284,13.284,0,0,1,6.655,6.827,11,11,0,0,1-.286,8.942c-1.41-2.673-2.324-4.932-3.9-6.513a17.827,17.827,0,0,0-5.155-3.671C351.563,380.909,346.651,379.912,341.181,377.942Z" fill="#2a323f"/>
    </g>
    <g id="Group_529" data-name="Group 529">
      <path id="Path_1553" data-name="Path 1553" d="M667.956,592.508c-4.173,1.632-10.641,2.025-13.079,0,2.438,7.541,1.343,9.711,1.343,9.711s14.691,16.157,7.831,23.038c.289,4.277-3.843,4.4-5.889,4.194a7.634,7.634,0,0,1-1.115-.145s-1.033,2.893-6.839,1.219a27.745,27.745,0,0,1-4.091-1.632c-9.422-4.587-15.889-8.884-17.914-13.2s-7.81-21.55-7.273-32.067c-.166-.041-.331-.1-.517-.165a126.634,126.634,0,0,1-19.381-7.252c-18.327-8.7-41.282-25.91-62.832-65.168a.064.064,0,0,1-.021-.041c-8.43,18.947-13.926,43.348-15.517,63.411-.31,4.029-.475,7.893-.475,11.488-3.038.5-5.91.95-8.534,1.364a201.894,201.894,0,0,1-39.34,1.611c-13.616-.661-27.253-.971-40.869-.826-13.781.124-26.86-.352-39.134-1.075.248-21.571-5.682-52.832-15.971-75.973-30.456,55.518-63.742,66.965-82.751,72.626.021.392.041.785.041,1.219.062,10.579-5.372,26.7-7.314,30.848a11.544,11.544,0,0,1-1.653,2.5c-3,3.492-8.657,7.005-16.261,10.7-3.678,1.777-6.136,2.252-7.789,2.128-2.583-.165-3.141-1.715-3.141-1.715a10.38,10.38,0,0,1-4.215-.02,3.484,3.484,0,0,1-2.789-4.029c-6.86-6.881,7.81-23.038,7.81-23.038s-1.074-2.17,1.364-9.711c-2.438,2.025-8.906,1.632-13.079,0-4.174-1.612-6.591-4.029,0-6.86,6.612-2.831,7.954-6.343,13.079-13.616s13.74-2.025,28.017-4.174c34.237-36.386,75.726-145.542,75.726-145.542,58.8,29.691,120.644,30.414,185.729,0,0,0,1.2,3.161,3.368,8.575,10.538,26.447,43.969,106.759,72.379,136.967,14.277,2.149,22.893-3.1,28.017,4.174s6.467,10.785,13.079,13.616C674.547,588.479,672.13,590.9,667.956,592.508Z" fill="#6ac4d8"/>
      <path id="Path_1554" data-name="Path 1554" d="M522.662,574.408c-.31,4.029-.475,7.893-.475,11.488-3.038.5-5.91.95-8.534,1.364a201.894,201.894,0,0,1-39.34,1.611c-13.616-.661-27.253-.971-40.869-.826-13.781.124-26.86-.352-39.134-1.075.248-21.571-5.682-52.832-15.971-75.973a53.22,53.22,0,0,0-7.645-18.72C412.183,527.836,443.775,584.14,522.662,574.408Z" fill="#2a323f" style="mix-blend-mode: soft-light;isolation: isolate"/>
      <path id="Path_1555" data-name="Path 1555" d="M552.784,426.617c0,34-89.918,67.623-182.421,34.006-17.314,57.915-59.9,101.264-82.275,117.442-17.191,12.459-29.774,33.8-32.832,51.221a3.484,3.484,0,0,1-2.789-4.029c-6.86-6.881,7.81-23.038,7.81-23.038s-1.074-2.17,1.364-9.711c-2.438,2.025-8.906,1.632-13.079,0-4.174-1.612-6.591-4.029,0-6.86,6.612-2.831,7.954-6.343,13.079-13.616s13.74-2.025,28.017-4.174c34.237-36.386,75.726-145.542,75.726-145.542,58.8,29.691,120.644,30.414,185.729,0C551.113,422.316,550.614,421.2,552.784,426.617Z" fill="#2a323f" style="mix-blend-mode: soft-light;isolation: isolate"/>
      <path id="Path_1556" data-name="Path 1556" d="M658.162,629.451a7.634,7.634,0,0,1-1.115-.145s-1.488,4.174-10.93-.413c-9.422-4.587-15.889-8.884-17.914-13.2s-7.81-21.55-7.273-32.067c-19.009-5.661-52.275-17.108-82.73-72.585a.064.064,0,0,1-.021-.041s8.368-18.782,17.253-30.952a208.209,208.209,0,0,0-9.092,23.885s38,57.11,69.755,68.205C643.678,581.743,633.595,614.885,658.162,629.451Z" fill="#2a323f" style="mix-blend-mode: soft-light;isolation: isolate"/>
    </g>
    <path id="Path_1557" data-name="Path 1557" d="M458.259,463.02c-73.99,0-93.206-23.844-95.5-45.332-1.88-17.6,7.6-33.638,7.6-33.638L365.714,309.4s6.736-20.745,28.555-36.654c0,0,24.9,18.6,63.99,18.6,38.41,0,63.122-17.955,63.969-18.574l.021-.021C544.068,288.654,550.8,309.4,550.8,309.4l-4.648,74.651S592.892,463.02,458.259,463.02Z" fill="#6ac4d8"/>
    <g id="Group_544" data-name="Group 544">
      <g id="Group_530" data-name="Group 530">
        <path id="Path_1558" data-name="Path 1558" d="M420.257,462.48a6.774,6.774,0,0,1-5.9,7.418,6.58,6.58,0,0,1-6.818-6.424,6.772,6.772,0,0,1,5.9-7.418A6.579,6.579,0,0,1,420.257,462.48Z" fill="#87562d"/>
        <path id="Path_1559" data-name="Path 1559" d="M413.728,460.447a2.366,2.366,0,0,1-2.062,2.591,2.3,2.3,0,0,1-2.382-2.244,2.365,2.365,0,0,1,2.062-2.591A2.3,2.3,0,0,1,413.728,460.447Z" fill="#fff"/>
      </g>
      <g id="Group_531" data-name="Group 531">
        <path id="Path_1560" data-name="Path 1560" d="M420.273,463.044a6.4,6.4,0,1,1-6.316-7.006A6.662,6.662,0,0,1,420.273,463.044Z" fill="#87562d"/>
        <path id="Path_1561" data-name="Path 1561" d="M413.918,460.44a2.236,2.236,0,1,1-2.207-2.447A2.328,2.328,0,0,1,413.918,460.44Z" fill="#fff"/>
      </g>
      <g id="Group_532" data-name="Group 532">
        <path id="Path_1562" data-name="Path 1562" d="M421.6,473.735a7.009,7.009,0,0,1-4.585,8.451,6.354,6.354,0,0,1-7.768-4.988,7.01,7.01,0,0,1,4.586-8.451A6.353,6.353,0,0,1,421.6,473.735Z" fill="#87562d"/>
        <path id="Path_1563" data-name="Path 1563" d="M414.842,473.01a2.448,2.448,0,0,1-1.6,2.952,2.219,2.219,0,0,1-2.713-1.742,2.449,2.449,0,0,1,1.6-2.953A2.221,2.221,0,0,1,414.842,473.01Z" fill="#fff"/>
      </g>
      <g id="Group_533" data-name="Group 533">
        <path id="Path_1564" data-name="Path 1564" d="M425.425,483.689a7.274,7.274,0,0,1-2.419,9.454,6.111,6.111,0,0,1-8.689-2.631,7.273,7.273,0,0,1,2.419-9.454A6.111,6.111,0,0,1,425.425,483.689Z" fill="#87562d"/>
        <path id="Path_1565" data-name="Path 1565" d="M418.725,484.891a2.542,2.542,0,0,1-.845,3.3,2.135,2.135,0,0,1-3.036-.919,2.542,2.542,0,0,1,.845-3.3A2.136,2.136,0,0,1,418.725,484.891Z" fill="#fff"/>
      </g>
      <g id="Group_534" data-name="Group 534">
        <path id="Path_1566" data-name="Path 1566" d="M431.488,492.226a7.378,7.378,0,0,1-.088,9.813,6.019,6.019,0,0,1-9.019-.1,7.378,7.378,0,0,1,.087-9.812A6.021,6.021,0,0,1,431.488,492.226Z" fill="#87562d"/>
        <path id="Path_1567" data-name="Path 1567" d="M425.3,495.275a2.578,2.578,0,0,1-.031,3.428,2.1,2.1,0,0,1-3.151-.033,2.579,2.579,0,0,1,.031-3.429A2.1,2.1,0,0,1,425.3,495.275Z" fill="#fff"/>
      </g>
      <g id="Group_535" data-name="Group 535">
        <path id="Path_1568" data-name="Path 1568" d="M439.375,498.766a7.289,7.289,0,0,1,2.25,9.5,6.1,6.1,0,0,1-8.735,2.448,7.288,7.288,0,0,1-2.25-9.5A6.1,6.1,0,0,1,439.375,498.766Z" fill="#87562d"/>
        <path id="Path_1569" data-name="Path 1569" d="M434.125,503.452a2.547,2.547,0,0,1,.786,3.32,2.132,2.132,0,0,1-3.052.855,2.548,2.548,0,0,1-.786-3.32A2.131,2.131,0,0,1,434.125,503.452Z" fill="#fff"/>
      </g>
      <g id="Group_536" data-name="Group 536">
        <path id="Path_1570" data-name="Path 1570" d="M448.548,502.861a7.034,7.034,0,0,1,4.435,8.546,6.332,6.332,0,0,1-7.855,4.824,7.033,7.033,0,0,1-4.434-8.545A6.332,6.332,0,0,1,448.548,502.861Z" fill="#87562d"/>
        <path id="Path_1571" data-name="Path 1571" d="M444.592,508.866a2.456,2.456,0,0,1,1.549,2.985,2.212,2.212,0,0,1-2.744,1.686,2.458,2.458,0,0,1-1.549-2.986A2.212,2.212,0,0,1,444.592,508.866Z" fill="#fff"/>
      </g>
      <g id="Group_537" data-name="Group 537">
        <path id="Path_1572" data-name="Path 1572" d="M458.384,504.234a6.964,6.964,0,1,1-6.439,6.872A6.69,6.69,0,0,1,458.384,504.234Z" fill="#87562d"/>
        <ellipse id="Ellipse_89" data-name="Ellipse 89" cx="2.228" cy="2.424" rx="2.228" ry="2.424" transform="translate(453.741 511.148)" fill="#fff"/>
      </g>
      <g id="Group_538" data-name="Group 538">
        <path id="Path_1573" data-name="Path 1573" d="M468.211,502.79a6.353,6.353,0,0,1,7.767,4.989,7.01,7.01,0,0,1-4.585,8.451,6.354,6.354,0,0,1-7.767-4.989A7.01,7.01,0,0,1,468.211,502.79Z" fill="#87562d"/>
        <path id="Path_1574" data-name="Path 1574" d="M467.544,510.143a2.22,2.22,0,0,1,2.714,1.743,2.449,2.449,0,0,1-1.6,2.952,2.219,2.219,0,0,1-2.713-1.743A2.449,2.449,0,0,1,467.544,510.143Z" fill="#fff"/>
      </g>
      <g id="Group_539" data-name="Group 539">
        <path id="Path_1575" data-name="Path 1575" d="M477.36,498.629a6.111,6.111,0,0,1,8.689,2.631,7.274,7.274,0,0,1-2.418,9.454,6.112,6.112,0,0,1-8.69-2.631A7.274,7.274,0,0,1,477.36,498.629Z" fill="#87562d"/>
        <path id="Path_1576" data-name="Path 1576" d="M478.465,505.918a2.135,2.135,0,0,1,3.035.92,2.541,2.541,0,0,1-.844,3.3,2.135,2.135,0,0,1-3.036-.919A2.541,2.541,0,0,1,478.465,505.918Z" fill="#fff"/>
      </g>
      <g id="Group_540" data-name="Group 540">
        <path id="Path_1577" data-name="Path 1577" d="M485.207,492.033a6.019,6.019,0,0,1,9.019.1,7.377,7.377,0,0,1-.087,9.812,6.019,6.019,0,0,1-9.019-.094A7.377,7.377,0,0,1,485.207,492.033Z" fill="#87562d"/>
        <path id="Path_1578" data-name="Path 1578" d="M488.008,498.763a2.1,2.1,0,0,1,3.151.033,2.578,2.578,0,0,1-.03,3.428,2.1,2.1,0,0,1-3.151-.033A2.578,2.578,0,0,1,488.008,498.763Z" fill="#fff"/>
      </g>
      <g id="Group_541" data-name="Group 541">
        <path id="Path_1579" data-name="Path 1579" d="M491.217,483.452A6.1,6.1,0,0,1,499.952,481a7.289,7.289,0,0,1,2.25,9.5,6.1,6.1,0,0,1-8.735,2.448A7.289,7.289,0,0,1,491.217,483.452Z" fill="#87562d"/>
        <path id="Path_1580" data-name="Path 1580" d="M495.524,489.164a2.132,2.132,0,0,1,3.052-.856,2.548,2.548,0,0,1,.786,3.32,2.131,2.131,0,0,1-3.052.855A2.546,2.546,0,0,1,495.524,489.164Z" fill="#fff"/>
      </g>
      <g id="Group_542" data-name="Group 542">
        <path id="Path_1581" data-name="Path 1581" d="M494.982,473.471a6.33,6.33,0,0,1,7.854-4.824,7.031,7.031,0,0,1,4.434,8.545,6.33,6.33,0,0,1-7.854,4.824A7.031,7.031,0,0,1,494.982,473.471Z" fill="#87562d"/>
        <path id="Path_1582" data-name="Path 1582" d="M500.5,477.775a2.211,2.211,0,0,1,2.744-1.685,2.457,2.457,0,0,1,1.549,2.985,2.212,2.212,0,0,1-2.744,1.685A2.456,2.456,0,0,1,500.5,477.775Z" fill="#fff"/>
      </g>
      <g id="Group_543" data-name="Group 543">
        <path id="Path_1583" data-name="Path 1583" d="M496.243,462.77a6.4,6.4,0,1,1,6.316,7.006A6.664,6.664,0,0,1,496.243,462.77Z" fill="#87562d"/>
        <ellipse id="Ellipse_90" data-name="Ellipse 90" cx="2.228" cy="2.424" rx="2.228" ry="2.424" transform="translate(502.598 462.973)" fill="#fff"/>
      </g>
    </g>
    <g id="Group_561" data-name="Group 561">
      <g id="Group_545" data-name="Group 545">
        <ellipse id="Ellipse_91" data-name="Ellipse 91" cx="6.378" cy="6.939" rx="6.378" ry="6.939" transform="translate(496.243 478.397)" fill="#87562d"/>
        <path id="Path_1584" data-name="Path 1584" d="M502.6,487.872a2.236,2.236,0,1,1,2.207,2.448A2.328,2.328,0,0,1,502.6,487.872Z" fill="#fff"/>
      </g>
      <g id="Group_546" data-name="Group 546">
        <path id="Path_1585" data-name="Path 1585" d="M420.257,497.26a6.774,6.774,0,0,1-5.9,7.418,6.58,6.58,0,0,1-6.818-6.424,6.774,6.774,0,0,1,5.9-7.419A6.581,6.581,0,0,1,420.257,497.26Z" fill="#87562d"/>
        <ellipse id="Ellipse_92" data-name="Ellipse 92" cx="2.228" cy="2.424" rx="2.228" ry="2.424" transform="translate(409.278 492.976)" fill="#fff"/>
      </g>
      <g id="Group_547" data-name="Group 547">
        <path id="Path_1586" data-name="Path 1586" d="M420.273,497.824a6.4,6.4,0,1,1-6.316-7.006A6.663,6.663,0,0,1,420.273,497.824Z" fill="#87562d"/>
        <path id="Path_1587" data-name="Path 1587" d="M413.918,495.22a2.236,2.236,0,1,1-2.207-2.447A2.328,2.328,0,0,1,413.918,495.22Z" fill="#fff"/>
      </g>
      <g id="Group_548" data-name="Group 548">
        <path id="Path_1588" data-name="Path 1588" d="M420.273,485.4a6.4,6.4,0,1,1-6.316-7.006A6.663,6.663,0,0,1,420.273,485.4Z" fill="#87562d"/>
        <path id="Path_1589" data-name="Path 1589" d="M413.918,482.8a2.236,2.236,0,1,1-2.207-2.448A2.328,2.328,0,0,1,413.918,482.8Z" fill="#fff"/>
      </g>
      <g id="Group_549" data-name="Group 549">
        <path id="Path_1590" data-name="Path 1590" d="M421.6,508.515a7.01,7.01,0,0,1-4.585,8.451,6.354,6.354,0,0,1-7.768-4.989,7.009,7.009,0,0,1,4.586-8.45A6.353,6.353,0,0,1,421.6,508.515Z" fill="#87562d"/>
        <path id="Path_1591" data-name="Path 1591" d="M414.842,507.79a2.448,2.448,0,0,1-1.6,2.952A2.219,2.219,0,0,1,410.527,509a2.449,2.449,0,0,1,1.6-2.952A2.22,2.22,0,0,1,414.842,507.79Z" fill="#fff"/>
      </g>
      <g id="Group_550" data-name="Group 550">
        <path id="Path_1592" data-name="Path 1592" d="M425.425,518.469a7.274,7.274,0,0,1-2.419,9.454,6.111,6.111,0,0,1-8.689-2.632,7.272,7.272,0,0,1,2.419-9.453A6.111,6.111,0,0,1,425.425,518.469Z" fill="#87562d"/>
        <path id="Path_1593" data-name="Path 1593" d="M418.725,519.671a2.542,2.542,0,0,1-.845,3.3,2.135,2.135,0,0,1-3.036-.919,2.542,2.542,0,0,1,.845-3.3A2.136,2.136,0,0,1,418.725,519.671Z" fill="#fff"/>
      </g>
      <g id="Group_551" data-name="Group 551">
        <path id="Path_1594" data-name="Path 1594" d="M431.488,527.006a7.378,7.378,0,0,1-.088,9.813,6.019,6.019,0,0,1-9.019-.095,7.379,7.379,0,0,1,.087-9.813A6.021,6.021,0,0,1,431.488,527.006Z" fill="#87562d"/>
        <path id="Path_1595" data-name="Path 1595" d="M425.3,530.054a2.579,2.579,0,0,1-.031,3.429,2.1,2.1,0,0,1-3.151-.034,2.578,2.578,0,0,1,.031-3.428A2.1,2.1,0,0,1,425.3,530.054Z" fill="#fff"/>
      </g>
      <g id="Group_552" data-name="Group 552">
        <path id="Path_1596" data-name="Path 1596" d="M439.375,533.546a7.289,7.289,0,0,1,2.25,9.5,6.1,6.1,0,0,1-8.735,2.448,7.288,7.288,0,0,1-2.25-9.5A6.1,6.1,0,0,1,439.375,533.546Z" fill="#87562d"/>
        <path id="Path_1597" data-name="Path 1597" d="M434.125,538.232a2.546,2.546,0,0,1,.786,3.319,2.132,2.132,0,0,1-3.052.856,2.548,2.548,0,0,1-.786-3.32A2.131,2.131,0,0,1,434.125,538.232Z" fill="#fff"/>
      </g>
      <g id="Group_553" data-name="Group 553">
        <path id="Path_1598" data-name="Path 1598" d="M448.548,537.641a7.034,7.034,0,0,1,4.435,8.546,6.332,6.332,0,0,1-7.855,4.824,7.034,7.034,0,0,1-4.434-8.546A6.331,6.331,0,0,1,448.548,537.641Z" fill="#87562d"/>
        <path id="Path_1599" data-name="Path 1599" d="M444.592,543.646a2.456,2.456,0,0,1,1.549,2.985,2.212,2.212,0,0,1-2.744,1.686,2.458,2.458,0,0,1-1.549-2.986A2.212,2.212,0,0,1,444.592,543.646Z" fill="#fff"/>
      </g>
      <g id="Group_554" data-name="Group 554">
        <path id="Path_1600" data-name="Path 1600" d="M458.384,539.014a6.963,6.963,0,1,1-6.439,6.872A6.69,6.69,0,0,1,458.384,539.014Z" fill="#87562d"/>
        <path id="Path_1601" data-name="Path 1601" d="M455.991,545.928a2.433,2.433,0,1,1-2.249,2.4A2.337,2.337,0,0,1,455.991,545.928Z" fill="#fff"/>
      </g>
      <g id="Group_555" data-name="Group 555">
        <path id="Path_1602" data-name="Path 1602" d="M468.211,537.57a6.353,6.353,0,0,1,7.767,4.989,7.01,7.01,0,0,1-4.585,8.451,6.354,6.354,0,0,1-7.767-4.989A7.01,7.01,0,0,1,468.211,537.57Z" fill="#87562d"/>
        <path id="Path_1603" data-name="Path 1603" d="M467.544,544.923a2.22,2.22,0,0,1,2.714,1.742,2.449,2.449,0,0,1-1.6,2.953,2.219,2.219,0,0,1-2.713-1.743A2.448,2.448,0,0,1,467.544,544.923Z" fill="#fff"/>
      </g>
      <g id="Group_556" data-name="Group 556">
        <path id="Path_1604" data-name="Path 1604" d="M477.36,533.409a6.111,6.111,0,0,1,8.689,2.631,7.274,7.274,0,0,1-2.418,9.454,6.112,6.112,0,0,1-8.69-2.631A7.274,7.274,0,0,1,477.36,533.409Z" fill="#87562d"/>
        <path id="Path_1605" data-name="Path 1605" d="M478.465,540.7a2.135,2.135,0,0,1,3.035.92,2.541,2.541,0,0,1-.844,3.3A2.135,2.135,0,0,1,477.62,544,2.541,2.541,0,0,1,478.465,540.7Z" fill="#fff"/>
      </g>
      <g id="Group_557" data-name="Group 557">
        <ellipse id="Ellipse_93" data-name="Ellipse 93" cx="6.378" cy="6.939" rx="6.378" ry="6.939" transform="translate(483.295 524.827)" fill="#87562d"/>
        <path id="Path_1606" data-name="Path 1606" d="M488.008,533.543a2.1,2.1,0,0,1,3.151.033,2.578,2.578,0,0,1-.03,3.428,2.1,2.1,0,0,1-3.151-.033A2.577,2.577,0,0,1,488.008,533.543Z" fill="#fff"/>
      </g>
      <g id="Group_558" data-name="Group 558">
        <path id="Path_1607" data-name="Path 1607" d="M491.217,518.232a6.1,6.1,0,0,1,8.735-2.448,7.289,7.289,0,0,1,2.25,9.5,6.1,6.1,0,0,1-8.735,2.448A7.289,7.289,0,0,1,491.217,518.232Z" fill="#87562d"/>
        <path id="Path_1608" data-name="Path 1608" d="M495.524,523.943a2.132,2.132,0,0,1,3.052-.855,2.548,2.548,0,0,1,.786,3.32,2.131,2.131,0,0,1-3.052.855A2.547,2.547,0,0,1,495.524,523.943Z" fill="#fff"/>
      </g>
      <g id="Group_559" data-name="Group 559">
        <ellipse id="Ellipse_94" data-name="Ellipse 94" cx="6.378" cy="6.939" rx="6.378" ry="6.939" transform="translate(494.748 503.172)" fill="#87562d"/>
        <path id="Path_1609" data-name="Path 1609" d="M500.5,512.555a2.211,2.211,0,0,1,2.744-1.685,2.457,2.457,0,0,1,1.549,2.985,2.212,2.212,0,0,1-2.744,1.685A2.456,2.456,0,0,1,500.5,512.555Z" fill="#fff"/>
      </g>
      <g id="Group_560" data-name="Group 560">
        <path id="Path_1610" data-name="Path 1610" d="M496.243,497.55a6.4,6.4,0,1,1,6.316,7.005A6.663,6.663,0,0,1,496.243,497.55Z" fill="#87562d"/>
        <path id="Path_1611" data-name="Path 1611" d="M502.6,500.153A2.236,2.236,0,1,1,504.8,502.6,2.327,2.327,0,0,1,502.6,500.153Z" fill="#fff"/>
      </g>
    </g>
    <path id="Path_1612" data-name="Path 1612" d="M649.222,579.173a34.294,34.294,0,0,0,2,7.037,22.965,22.965,0,0,0,1.584,3.164c.585,1.061,1.358,2,2.078,3.139a9.769,9.769,0,0,1-5.57-5.512A10.063,10.063,0,0,1,649.222,579.173Z" fill="#1a87a0"/>
    <path id="Path_1613" data-name="Path 1613" d="M640.767,611.715c2.981,2.8,5.565,5.825,8.209,8.792l3.909,4.476c1.322,1.477,2.652,2.929,4.153,4.317a17.521,17.521,0,0,1-5.25-3.168,34.95,34.95,0,0,1-4.367-4.267,44.623,44.623,0,0,1-3.677-4.836A34.536,34.536,0,0,1,640.767,611.715Z" fill="#1a87a0"/>
    <path id="Path_1614" data-name="Path 1614" d="M647.74,607.268a105.592,105.592,0,0,1,8.563,8.644c2.69,3.023,5.155,6.167,7.742,9.346a24.035,24.035,0,0,1-4.986-3.628,54.442,54.442,0,0,1-4.3-4.348,60.14,60.14,0,0,1-3.808-4.773A31.314,31.314,0,0,1,647.74,607.268Z" fill="#1a87a0"/>
    <g id="Group_566" data-name="Group 566">
      <g id="Group_562" data-name="Group 562">
        <path id="Path_1615" data-name="Path 1615" d="M613.427,579.076a3.74,3.74,0,1,1-4-3.462A3.74,3.74,0,0,1,613.427,579.076Z" fill="#87562d"/>
        <path id="Path_1616" data-name="Path 1616" d="M609.6,577.981a1.306,1.306,0,1,1-1.4-1.21A1.306,1.306,0,0,1,609.6,577.981Z" fill="#fff"/>
      </g>
      <g id="Group_563" data-name="Group 563">
        <path id="Path_1617" data-name="Path 1617" d="M616.1,572.129a3.74,3.74,0,1,1-4-3.462A3.74,3.74,0,0,1,616.1,572.129Z" fill="#87562d"/>
        <path id="Path_1618" data-name="Path 1618" d="M612.275,571.033a1.306,1.306,0,1,1-1.4-1.209A1.307,1.307,0,0,1,612.275,571.033Z" fill="#fff"/>
      </g>
      <g id="Group_564" data-name="Group 564">
        <circle id="Ellipse_95" data-name="Ellipse 95" cx="3.739" cy="3.739" r="3.739" transform="translate(611.814 563.219) rotate(-11.898)" fill="#87562d"/>
        <path id="Path_1619" data-name="Path 1619" d="M616.146,564.744a1.306,1.306,0,1,1-1.4-1.21A1.306,1.306,0,0,1,616.146,564.744Z" fill="#fff"/>
      </g>
      <g id="Group_565" data-name="Group 565">
        <path id="Path_1620" data-name="Path 1620" d="M625.481,561.634a3.739,3.739,0,1,1-4-3.462A3.739,3.739,0,0,1,625.481,561.634Z" fill="#87562d"/>
        <path id="Path_1621" data-name="Path 1621" d="M621.654,560.538a1.306,1.306,0,1,1-1.4-1.209A1.307,1.307,0,0,1,621.654,560.538Z" fill="#fff"/>
      </g>
    </g>
    <path id="Path_1622" data-name="Path 1622" d="M267.294,579.173A10.059,10.059,0,0,1,267.2,587a9.768,9.768,0,0,1-5.569,5.512c.72-1.135,1.493-2.078,2.078-3.139a22.968,22.968,0,0,0,1.584-3.164A34.291,34.291,0,0,0,267.294,579.173Z" fill="#1a87a0"/>
    <path id="Path_1623" data-name="Path 1623" d="M275.749,611.715a34.536,34.536,0,0,1-2.977,5.314,44.627,44.627,0,0,1-3.677,4.836,34.955,34.955,0,0,1-4.367,4.267,17.522,17.522,0,0,1-5.25,3.168c1.5-1.388,2.831-2.84,4.153-4.317l3.909-4.476C270.183,617.54,272.768,614.515,275.749,611.715Z" fill="#1a87a0"/>
    <path id="Path_1624" data-name="Path 1624" d="M268.776,607.268a31.316,31.316,0,0,1-3.21,5.241,60.133,60.133,0,0,1-3.808,4.773,54.442,54.442,0,0,1-4.3,4.348,24.035,24.035,0,0,1-4.986,3.628c2.587-3.179,5.052-6.323,7.742-9.346A105.592,105.592,0,0,1,268.776,607.268Z" fill="#1a87a0"/>
    <g id="Group_571" data-name="Group 571">
      <g id="Group_567" data-name="Group 567">
        <path id="Path_1625" data-name="Path 1625" d="M303.089,579.076a3.739,3.739,0,1,0,4-3.462A3.74,3.74,0,0,0,303.089,579.076Z" fill="#87562d"/>
        <path id="Path_1626" data-name="Path 1626" d="M306.917,577.981a1.306,1.306,0,1,0,1.4-1.21A1.306,1.306,0,0,0,306.917,577.981Z" fill="#fff"/>
      </g>
      <g id="Group_568" data-name="Group 568">
        <path id="Path_1627" data-name="Path 1627" d="M300.413,572.129a3.74,3.74,0,1,0,4-3.462A3.74,3.74,0,0,0,300.413,572.129Z" fill="#87562d"/>
        <path id="Path_1628" data-name="Path 1628" d="M304.241,571.033a1.306,1.306,0,1,0,1.4-1.209A1.307,1.307,0,0,0,304.241,571.033Z" fill="#fff"/>
      </g>
      <g id="Group_569" data-name="Group 569">
        <path id="Path_1629" data-name="Path 1629" d="M296.542,565.839a3.739,3.739,0,1,0,4-3.462A3.74,3.74,0,0,0,296.542,565.839Z" fill="#87562d"/>
        <path id="Path_1630" data-name="Path 1630" d="M300.369,564.744a1.306,1.306,0,1,0,1.4-1.21A1.307,1.307,0,0,0,300.369,564.744Z" fill="#fff"/>
      </g>
      <g id="Group_570" data-name="Group 570">
        <circle id="Ellipse_96" data-name="Ellipse 96" cx="3.739" cy="3.739" r="3.739" transform="translate(289.905 563.989) rotate(-68.247)" fill="#87562d"/>
        <path id="Path_1631" data-name="Path 1631" d="M294.862,560.538a1.306,1.306,0,1,0,1.4-1.209A1.307,1.307,0,0,0,294.862,560.538Z" fill="#fff"/>
      </g>
    </g>
    <path id="Path_1632" data-name="Path 1632" d="M509.686,181.523a50.593,50.593,0,0,1-2.624,16.2,51.432,51.432,0,1,1-72.42-61.882,50.783,50.783,0,0,1,23.617-5.765A51.436,51.436,0,0,1,509.686,181.523Z" fill="#2a323f"/>
    <g id="Group_581" data-name="Group 581">
      <g id="Group_572" data-name="Group 572">
        <path id="Path_1633" data-name="Path 1633" d="M420.585,206.116a7.318,7.318,0,1,1-9.97-2.775A7.317,7.317,0,0,1,420.585,206.116Z" fill="#87562d"/>
        <path id="Path_1634" data-name="Path 1634" d="M412.9,207.384a2.557,2.557,0,1,1-3.483-.969A2.556,2.556,0,0,1,412.9,207.384Z" fill="#fff"/>
      </g>
      <g id="Group_573" data-name="Group 573">
        <circle id="Ellipse_97" data-name="Ellipse 97" cx="7.318" cy="7.318" r="7.318" transform="matrix(0.01, -1, 1, 0.01, 414.929, 227.492)" fill="#87562d"/>
        <path id="Path_1635" data-name="Path 1635" d="M420.444,218.334a2.557,2.557,0,1,1-3.615-.035A2.557,2.557,0,0,1,420.444,218.334Z" fill="#fff"/>
      </g>
      <g id="Group_574" data-name="Group 574">
        <path id="Path_1636" data-name="Path 1636" d="M436.591,222.016a7.318,7.318,0,1,1-10.022,2.582A7.318,7.318,0,0,1,436.591,222.016Z" fill="#87562d"/>
        <circle id="Ellipse_98" data-name="Ellipse 98" cx="2.556" cy="2.556" r="2.556" transform="translate(426.711 226.603)" fill="#fff"/>
      </g>
      <g id="Group_575" data-name="Group 575">
        <path id="Path_1637" data-name="Path 1637" d="M447.117,226.336a7.317,7.317,0,1,1-9.012,5.087A7.317,7.317,0,0,1,447.117,226.336Z" fill="#87562d"/>
        <path id="Path_1638" data-name="Path 1638" d="M442.578,232.668a2.557,2.557,0,1,1-3.148,1.777A2.556,2.556,0,0,1,442.578,232.668Z" fill="#fff"/>
      </g>
      <g id="Group_576" data-name="Group 576">
        <circle id="Ellipse_99" data-name="Ellipse 99" cx="7.318" cy="7.318" r="7.318" transform="translate(450.803 242.201) rotate(-88.321)" fill="#87562d"/>
        <path id="Path_1639" data-name="Path 1639" d="M455.657,235.075a2.557,2.557,0,1,1-2.581,2.532A2.557,2.557,0,0,1,455.657,235.075Z" fill="#fff"/>
      </g>
      <g id="Group_577" data-name="Group 577">
        <path id="Path_1640" data-name="Path 1640" d="M469.678,226.261a7.318,7.318,0,1,1-5.261,8.912A7.317,7.317,0,0,1,469.678,226.261Z" fill="#87562d"/>
        <path id="Path_1641" data-name="Path 1641" d="M468.913,234.015a2.556,2.556,0,1,1-1.838,3.113A2.556,2.556,0,0,1,468.913,234.015Z" fill="#fff"/>
      </g>
      <g id="Group_578" data-name="Group 578">
        <path id="Path_1642" data-name="Path 1642" d="M480.175,221.872a7.318,7.318,0,1,1-2.775,9.97A7.318,7.318,0,0,1,480.175,221.872Z" fill="#87562d"/>
        <path id="Path_1643" data-name="Path 1643" d="M481.443,229.559a2.557,2.557,0,1,1-.969,3.483A2.556,2.556,0,0,1,481.443,229.559Z" fill="#fff"/>
      </g>
      <g id="Group_579" data-name="Group 579">
        <path id="Path_1644" data-name="Path 1644" d="M489.179,214.916a7.318,7.318,0,1,1-.1,10.348A7.317,7.317,0,0,1,489.179,214.916Z" fill="#87562d"/>
        <path id="Path_1645" data-name="Path 1645" d="M492.394,222.013a2.556,2.556,0,1,1-.035,3.615A2.556,2.556,0,0,1,492.394,222.013Z" fill="#fff"/>
      </g>
      <g id="Group_580" data-name="Group 580">
        <path id="Path_1646" data-name="Path 1646" d="M496.075,205.866a7.318,7.318,0,1,1,2.582,10.022A7.319,7.319,0,0,1,496.075,205.866Z" fill="#87562d"/>
        <circle id="Ellipse_100" data-name="Ellipse 100" cx="2.556" cy="2.556" r="2.556" transform="translate(500.663 210.633)" fill="#fff"/>
      </g>
    </g>
    <g id="Group_586" data-name="Group 586">
      <g id="Group_582" data-name="Group 582">
        <path id="Path_1647" data-name="Path 1647" d="M553.933,518.015a7.609,7.609,0,1,1-8.134-7.044A7.608,7.608,0,0,1,553.933,518.015Z" fill="#87562d"/>
        <path id="Path_1648" data-name="Path 1648" d="M546.145,515.785a2.658,2.658,0,1,1-2.842-2.46A2.658,2.658,0,0,1,546.145,515.785Z" fill="#fff"/>
      </g>
      <g id="Group_583" data-name="Group 583">
        <path id="Path_1649" data-name="Path 1649" d="M559.378,503.879a7.609,7.609,0,1,1-8.134-7.044A7.609,7.609,0,0,1,559.378,503.879Z" fill="#87562d"/>
        <path id="Path_1650" data-name="Path 1650" d="M551.59,501.65a2.658,2.658,0,1,1-2.842-2.461A2.658,2.658,0,0,1,551.59,501.65Z" fill="#fff"/>
      </g>
      <g id="Group_584" data-name="Group 584">
        <path id="Path_1651" data-name="Path 1651" d="M567.255,491.08a7.609,7.609,0,1,1-8.134-7.044A7.608,7.608,0,0,1,567.255,491.08Z" fill="#87562d"/>
        <path id="Path_1652" data-name="Path 1652" d="M559.467,488.851a2.658,2.658,0,1,1-2.842-2.46A2.658,2.658,0,0,1,559.467,488.851Z" fill="#fff"/>
      </g>
      <g id="Group_585" data-name="Group 585">
        <path id="Path_1653" data-name="Path 1653" d="M578.461,482.524a7.609,7.609,0,1,1-8.134-7.044A7.608,7.608,0,0,1,578.461,482.524Z" fill="#87562d"/>
        <path id="Path_1654" data-name="Path 1654" d="M570.673,480.3a2.658,2.658,0,1,1-2.842-2.461A2.658,2.658,0,0,1,570.673,480.3Z" fill="#fff"/>
      </g>
    </g>
    <g id="Group_591" data-name="Group 591">
      <g id="Group_587" data-name="Group 587">
        <circle id="Ellipse_101" data-name="Ellipse 101" cx="7.609" cy="7.609" r="7.609" transform="translate(362.174 525.759) rotate(-86.993)" fill="#87562d"/>
        <path id="Path_1655" data-name="Path 1655" d="M370.371,515.785a2.658,2.658,0,1,0,2.841-2.46A2.658,2.658,0,0,0,370.371,515.785Z" fill="#fff"/>
      </g>
      <g id="Group_588" data-name="Group 588">
        <path id="Path_1656" data-name="Path 1656" d="M357.138,503.879a7.609,7.609,0,1,0,8.134-7.044A7.608,7.608,0,0,0,357.138,503.879Z" fill="#87562d"/>
        <path id="Path_1657" data-name="Path 1657" d="M364.926,501.65a2.658,2.658,0,1,0,2.842-2.461A2.658,2.658,0,0,0,364.926,501.65Z" fill="#fff"/>
      </g>
      <g id="Group_589" data-name="Group 589">
        <path id="Path_1658" data-name="Path 1658" d="M349.26,491.08a7.609,7.609,0,1,0,8.135-7.044A7.61,7.61,0,0,0,349.26,491.08Z" fill="#87562d"/>
        <path id="Path_1659" data-name="Path 1659" d="M357.049,488.851a2.658,2.658,0,1,0,2.841-2.46A2.658,2.658,0,0,0,357.049,488.851Z" fill="#fff"/>
      </g>
      <g id="Group_590" data-name="Group 590">
        <path id="Path_1660" data-name="Path 1660" d="M338.055,482.524a7.609,7.609,0,1,0,8.134-7.044A7.608,7.608,0,0,0,338.055,482.524Z" fill="#87562d"/>
        <path id="Path_1661" data-name="Path 1661" d="M345.843,480.3a2.658,2.658,0,1,0,2.842-2.461A2.658,2.658,0,0,0,345.843,480.3Z" fill="#fff"/>
      </g>
    </g>
    <g id="Group_594" data-name="Group 594">
      <g id="Group_592" data-name="Group 592">
        <path id="Path_1662" data-name="Path 1662" d="M439.289,375.538a40.486,40.486,0,0,1-.475,6.2c-21.054-7.17-45.125-2.314-52.687-.475a39.858,39.858,0,0,1-.414-5.723c0-18.142,12-32.853,26.8-32.853C427.285,342.685,439.289,357.4,439.289,375.538Z" fill="#2a323f" style="mix-blend-mode: soft-light;isolation: isolate"/>
        <path id="Path_1663" data-name="Path 1663" d="M439.289,381.9a152.072,152.072,0,0,0-27.711-1.868c-9.224.158-18.4,1.027-27.869,1.868a58.769,58.769,0,0,1,13.572-4.392A79.984,79.984,0,0,1,411.5,375.9C421.017,375.749,430.881,377.313,439.289,381.9Z" fill="#2a323f"/>
      </g>
      <path id="Path_1664" data-name="Path 1664" d="M388.283,348.344a22.163,22.163,0,0,1,6.274-6.74,30.682,30.682,0,0,1,8.06-4.294,27.824,27.824,0,0,1,9.037-1.718,19.975,19.975,0,0,1,9.1,1.7c-2.939,1.294-5.622,2.075-8.263,3.061l-7.793,2.79A163.713,163.713,0,0,1,388.283,348.344Z" fill="#2a323f"/>
      <g id="Group_593" data-name="Group 593">
        <path id="Path_1665" data-name="Path 1665" d="M477.226,375.538a40.485,40.485,0,0,0,.476,6.2c21.054-7.17,45.125-2.314,52.687-.475a39.853,39.853,0,0,0,.414-5.723c0-18.142-12.005-32.853-26.8-32.853C489.231,342.685,477.226,357.4,477.226,375.538Z" fill="#2a323f" style="mix-blend-mode: soft-light;isolation: isolate"/>
        <path id="Path_1666" data-name="Path 1666" d="M532.807,381.9c-9.462-.849-18.645-1.719-27.869-1.868a153.73,153.73,0,0,0-27.712,1.868c8.406-4.6,18.273-6.161,27.791-6a80.352,80.352,0,0,1,14.217,1.611A59.081,59.081,0,0,1,532.807,381.9Z" fill="#2a323f"/>
      </g>
      <path id="Path_1667" data-name="Path 1667" d="M528.233,348.344a163.718,163.718,0,0,1-16.419-5.2l-7.794-2.79c-2.64-.986-5.323-1.767-8.262-3.061a19.975,19.975,0,0,1,9.1-1.7,27.829,27.829,0,0,1,9.037,1.718,30.682,30.682,0,0,1,8.06,4.294A22.162,22.162,0,0,1,528.233,348.344Z" fill="#2a323f"/>
    </g>
    <path id="Path_1668" data-name="Path 1668" d="M474.618,397.663a16.248,16.248,0,0,1-5.679,5.528,14.7,14.7,0,0,1-15.931.006,16.174,16.174,0,0,1-5.677-5.534c4.858,1.941,9.316,3.732,13.644,3.746C465.3,401.4,469.767,399.61,474.618,397.663Z" fill="#1a87a0"/>
    <path id="Path_1669" data-name="Path 1669" d="M429.167,422.667l.153.039h-.008l.02,0h.011c5.227,1.067,10.425,1.844,15.582,2.571a127.558,127.558,0,0,0,15.473,1.121c10.3.1,20.6-1.443,31.106-3.253a67.564,67.564,0,0,1-62.181-.387l.009,0-.02,0-.01,0Z" fill="#1a87a0"/>
    <path id="Path_1670" data-name="Path 1670" d="M432.121,418.229a18.46,18.46,0,0,1-.648,4.435c-.35,1.035-.743,1.8-1.575,3.954a3.463,3.463,0,0,1-2.248-2.1,4.561,4.561,0,0,1-.122-3.077A4.408,4.408,0,0,1,432.121,418.229Z" fill="#1a87a0"/>
    <path id="Path_1671" data-name="Path 1671" d="M488.645,418.229a4.408,4.408,0,0,1,4.593,3.215,4.555,4.555,0,0,1-.122,3.077,3.461,3.461,0,0,1-2.247,2.1c-.833-2.155-1.226-2.919-1.576-3.954A18.462,18.462,0,0,1,488.645,418.229Z" fill="#1a87a0"/>
    <g id="Group_595" data-name="Group 595">
      <path id="Path_1672" data-name="Path 1672" d="M422.717,402.267c.364,4.021-7.707,8.04-18.029,8.976s-18.984-1.565-19.349-5.585,7.707-8.04,18.029-8.976S422.352,398.246,422.717,402.267Z" fill="#83dbea"/>
      <path id="Path_1673" data-name="Path 1673" d="M499.233,402.267c-.365,4.021,7.706,8.04,18.028,8.976s18.984-1.565,19.349-5.585-7.707-8.04-18.028-8.976S499.6,398.246,499.233,402.267Z" fill="#83dbea"/>
    </g>
    <g id="Group_596" data-name="Group 596">
      <path id="Path_1674" data-name="Path 1674" d="M458.258,342.145c5.05-15.52,5.313-30.847,0-45.95C452.944,311.3,453.208,326.625,458.258,342.145Z" fill="#f4f1dc"/>
      <path id="Path_1675" data-name="Path 1675" d="M384.711,302.326q18.438,1.163,36.8,1.907c12.251.442,24.5.729,36.744.675,12.248.023,24.494-.29,36.746-.74q18.373-.762,36.806-1.842a357.091,357.091,0,0,1-36.6,5.06c-12.278,1.11-24.612,1.6-36.945,1.652A384.7,384.7,0,0,1,384.711,302.326Z" fill="#f4f1dc"/>
      <path id="Path_1676" data-name="Path 1676" d="M403.19,313.537c18.406,1.736,36.71,2.945,55.062,2.86,18.353.024,36.656-1.238,55.073-2.86a234.558,234.558,0,0,1-55.068,6.433A227.148,227.148,0,0,1,403.19,313.537Z" fill="#f4f1dc"/>
      <path id="Path_1677" data-name="Path 1677" d="M415.1,324.748a318.421,318.421,0,0,0,43.153,3.065,349.718,349.718,0,0,0,43.167-3.065,150.943,150.943,0,0,1-43.161,6.229A145.873,145.873,0,0,1,415.1,324.748Z" fill="#f4f1dc"/>
    </g>
    <path id="Path_1678" data-name="Path 1678" d="M370.691,680.775q14.374-1.919,28.7-3.986c4.748-.779,9.573-1.385,14.224-2.373a99.554,99.554,0,0,0,13.7-4.222c9.016-3.294,17.732-7.465,26.513-11.472,8.775-4.032,17.53-8.132,26.468-11.838q-6.468,3.279-12.859,6.7l-12.921,6.575c-8.653,4.31-17.4,8.48-26.481,11.973a101.545,101.545,0,0,1-14.029,4.124c-4.822.926-9.586,1.565-14.407,2.1C389.988,679.484,380.346,680.249,370.691,680.775Z" fill="#1a87a0"/>
    <path id="Path_1679" data-name="Path 1679" d="M376,442.874c-5.372,9.918-13.947,15.724-21.84,13.8-10.372-2.542-15.6-17.542-11.694-33.514,2.128-8.678,6.529-15.868,11.756-20.187l-.144.579c-3.9,15.972-.62,30.5,7.314,32.439a9.4,9.4,0,0,0,7.252-1.508A40.9,40.9,0,0,0,376,442.874Z" fill="#f2ca20"/>
    <path id="Path_1680" data-name="Path 1680" d="M357.215,403.842a3.941,3.941,0,1,1-3.942-3.941A3.942,3.942,0,0,1,357.215,403.842Z" fill="#f2ca20"/>
    <path id="Path_1681" data-name="Path 1681" d="M540.452,442.874c5.372,9.918,13.946,15.724,21.839,13.8,10.372-2.542,15.6-17.542,11.7-33.514-2.128-8.678-6.529-15.868-11.757-20.187l.145.579c3.9,15.972.62,30.5-7.314,32.439a9.4,9.4,0,0,1-7.253-1.508A40.9,40.9,0,0,1,540.452,442.874Z" fill="#f2ca20"/>
    <path id="Path_1682" data-name="Path 1682" d="M559.241,403.842a3.941,3.941,0,1,0,3.941-3.941A3.941,3.941,0,0,0,559.241,403.842Z" fill="#f2ca20"/>
    <path id="Path_1683" data-name="Path 1683" d="M479.561,646.828c-15.743.69-31.5-1.8-46.781-5.613A249.371,249.371,0,0,1,388.346,625.1c-7.145-3.417-13.979-7.17-21.311-9.885a112.787,112.787,0,0,0-22.557-5.975c-15.345-2.282-31.642-.481-45.542,7.029h0l-.062.019.062-.021h0a65.171,65.171,0,0,1,22.078-8.173,80.688,80.688,0,0,1,23.679-.429,104.739,104.739,0,0,1,23,5.791c7.456,2.7,14.479,6.466,21.533,9.78a262.268,262.268,0,0,0,43.954,16.45,213.743,213.743,0,0,0,22.953,5.036A137,137,0,0,0,479.561,646.828Z" fill="#1a87a0"/>
    <path id="Path_1684" data-name="Path 1684" d="M473.487,683.606a38.984,38.984,0,0,1-.93,5.661c-4.98,16.84-23.617,14.34-29.423,6.612.352-17.624-10.392-26.7-10.392-26.7-3.554-16.1,10.64-19.092,20.827-16.84C468.259,655.609,474.871,669.081,473.487,683.606Z" fill="#f2ca20"/>
    <path id="Path_1685" data-name="Path 1685" d="M393.732,422.213c27.5,29.484,51.3,33.327,83.6,35.993-55.911,9.318-104.776-10.228-114.57-40.518-1.88-17.6,7.6-33.638,7.6-33.638L365.714,309.4s6.736-20.745,28.555-36.654c0,0,24.9,18.6,63.99,18.6,38.41,0,63.122-17.955,63.969-18.574-.723.971-27.108,34.918-109.549,28.285C378.917,330.7,366.252,392.749,393.732,422.213Z" fill="#2a323f" style="mix-blend-mode: soft-light;isolation: isolate"/>
    <path id="Path_1686" data-name="Path 1686" d="M473.487,683.606a38.984,38.984,0,0,1-.93,5.661c-4.98,16.84-23.617,14.34-29.423,6.612.352-17.624-10.392-26.7-10.392-26.7-3.554-16.1,10.64-19.092,20.827-16.84,0,0-10.786,1.219-2.707,26.282C457.081,697.863,468.507,688.854,473.487,683.606Z" fill="#2a323f" opacity="0.5" style="mix-blend-mode: soft-light;isolation: isolate"/>
    <path id="Path_1687" data-name="Path 1687" d="M584.172,307.167c-61.448-10.868-72.234-73.473-74.114-97.441,37.5,17.067,74.3,46.882,75.643,70.705A140.565,140.565,0,0,1,584.172,307.167Z" fill="#3d4654"/>
    <path id="Path_1688" data-name="Path 1688" d="M615.227,527.526C579.172,504.1,577.5,446.614,578.9,419.444c.764,1.715,1.57,3.388,2.376,5.083q7.407,15.372,16.3,30c9.628,15.847,20.29,36.447,21.406,51.448A42.471,42.471,0,0,1,615.227,527.526Z" fill="#3d4654"/>
    <path id="Path_1689" data-name="Path 1689" d="M509.686,181.523a50.593,50.593,0,0,1-2.624,16.2,55.02,55.02,0,0,1-22.067,4.546c-29.36,0-53.163-22.542-53.163-50.332a46.833,46.833,0,0,1,2.81-16.1,50.783,50.783,0,0,1,23.617-5.765A51.436,51.436,0,0,1,509.686,181.523Z" fill="#3d4654"/>
    <path id="Path_1690" data-name="Path 1690" d="M421.232,82.022c12.816.86,24.09,7.6,29.052,18.82,7.584,17.141-2.484,38.2-22.48,47.049s-42.342,2.124-49.925-15.017c-.17-.385-.334-.787-.494-1.177a35.139,35.139,0,0,0,28.029-.275C423,123.643,431.1,103.437,423.52,86.307A32.8,32.8,0,0,0,421.232,82.022Z" fill="#f4f1dc"/>
  </g>
</svg>
