<svg xmlns="http://www.w3.org/2000/svg" width="184.395" height="210.685" viewBox="0 0 184.395 210.685">
  <g id="Group_17445" data-name="Group 17445" transform="translate(-1333.539 -1657.096)">
    <g id="Group_1289" data-name="Group 1289">
      <path id="Path_3755" data-name="Path 3755" d="M1401.95,1667.079l-4.329,28.063-14.334,92.9-1.058,6.871-1.154,7.449c-9.373,9.139-20.848,9.152-28.173,7.86a38.236,38.236,0,0,1-7.366-2.047l-.014-.014,4.247-10.431a41.96,41.96,0,0,1-5.1-.316,35.4,35.4,0,0,1-11.132-3.16l2.639-7.765,2.432-7.1,37.05-108.814Z" fill="#ffd31a"/>
      <path id="Path_3756" data-name="Path 3756" d="M1383.287,1788.042l-1.058,6.871-.124.11c-29.368,10.431-30.275-5.538-30.275-5.538-6.1,2.336-13.014-1.347-15.652-3l2.432-7.1c5.593,5.923,14.9,4.425,14.9,4.425l.509-1.924C1356.888,1794.941,1380.072,1788.935,1383.287,1788.042Z" fill="#c13e3e"/>
      <path id="Path_3757" data-name="Path 3757" d="M1401.95,1667.079l-4.329,28.063-11.9,7.5-20.106,91.21,14.306-95.072L1352.9,1810.222a38.236,38.236,0,0,1-7.366-2.047l-.014-.014,4.247-10.431,32.474-120.591-37.572,120.275a35.4,35.4,0,0,1-11.132-3.16l42.121-123.684Z" style="mix-blend-mode: soft-light;isolation: isolate"/>
    </g>
    <path id="Path_3758" data-name="Path 3758" d="M1514.893,1836.742c-2.364,8-6.274,14.182-12.138,15.91-14.819,4.364-51.5-19.183-51.5-19.183s-18.774-14.41-29.229-2.636c-7.91,8.909-22.5,15.546-32.229,16.409-3.137.273-5.774-.045-7.5-1.136-1-.636-2.136-1.364-3.273-2.227-6.682-5-14.91-13.956-16.773-29.638-2.182-18.319,27.5-141.6,27.5-141.6s89.005,7.182,100.778,22.456a31.172,31.172,0,0,1,3.092,5.091c10.637,21.455,20.319,78.64,23.137,96.187C1518.575,1807.968,1518.529,1824.514,1514.893,1836.742Z" fill="#c13e3e"/>
    <path id="Path_3759" data-name="Path 3759" d="M1514.893,1836.742c-2.364,8-6.274,14.182-12.138,15.91-14.819,4.364-51.5-19.183-51.5-19.183s-18.774-14.41-29.229-2.636c-7.91,8.909-22.5,15.546-32.229,16.409,4.091-6.363,10.773-19.955,14.682-45.184,5.955-38.366,6.41-90.778,1.273-97.187-4.591-5.773-50.685,85.277-26.729,139.008-6.682-5-14.91-13.956-16.773-29.638-2.182-18.319,27.5-141.6,27.5-141.6s89.005,7.182,100.778,22.456a31.172,31.172,0,0,1,3.092,5.091c-8.774,7.909-19.729,17.319-27.775,23C1452.434,1732.645,1471.436,1824.741,1514.893,1836.742Z" style="mix-blend-mode: soft-light;isolation: isolate"/>
    <g id="Group_1291" data-name="Group 1291">
      <g id="Group_1290" data-name="Group 1290">
        <path id="Path_3760" data-name="Path 3760" d="M1462.005,1866.175a34.3,34.3,0,0,1-15.143,1.265,38.671,38.671,0,0,1-21.845-11.58l1.806-10.3.27-1.551-.233-.28-.021-.017-9.166-10.58-8.406-9.708.414-5.239,1-13.056,9.354-120.439.287-3.776,16.727,9.025,21.088,149,2.262,15.936Z" fill="#ffd31a"/>
        <path id="Path_3761" data-name="Path 3761" d="M1427.048,1812.487l-.21,17.5a22.582,22.582,0,0,1-8.589-3.606l0-.019a33.237,33.237,0,0,1-8.566-8.186l1-13.056a26.5,26.5,0,0,0,8.787,6.526A12.129,12.129,0,0,0,1427.048,1812.487Z" fill="#c13e3e"/>
        <path id="Path_3762" data-name="Path 3762" d="M1460.4,1854.87c-6.843,1.167-21.961,2.09-33.579-9.315l.27-1.551-.233-.28c.077-.384.164-.863.242-1.436a.069.069,0,0,1,.014-.058,35.081,35.081,0,0,0,.241-5.279c-.128-6.205.134-11.26.134-11.26s8.761,16.119,30.649,13.243Z" fill="#c13e3e"/>
        <path id="Path_3763" data-name="Path 3763" d="M1427.085,1844.006c-.657-12.147-.9-24.29-1.087-36.432s-.048-24.282-.089-36.424c.264-12.138.365-24.278.78-36.414s.9-24.274,1.792-36.406c.663,12.147.908,24.291,1.094,36.433s.051,24.282.082,36.423c-.273,12.139-.361,24.278-.786,36.415S1427.975,1831.874,1427.085,1844.006Z" fill="#db9c1f"/>
      </g>
      <path id="Path_3764" data-name="Path 3764" d="M1434.209,1693.384l10.527,144.863,1.228,16.767,0,.018.9,12.408a38.671,38.671,0,0,1-21.845-11.58l1.806-10.3.016-1.848,1.564-138.665-8.932,106.608-1.224,14.716,0,.019-.576,6.742-8.406-9.708.414-5.239,1-13.056,9.354-120.439Z" style="mix-blend-mode: soft-light;isolation: isolate"/>
    </g>
    <path id="Path_3765" data-name="Path 3765" d="M1490.891,1691.961c-.182,1.955-.364,3.137-.364,3.137-59.321,23.592-100.778-22.456-100.778-22.456l.409-15.5s79.005-.864,91.642,5a12.064,12.064,0,0,1,4.591,3.819C1491.664,1673.1,1491.346,1686.052,1490.891,1691.961Z" fill="#ffd31a"/>
    <path id="Path_3766" data-name="Path 3766" d="M1490.891,1691.961c-.182,1.955-.364,3.137-.364,3.137-59.321,23.592-100.778-22.456-100.778-22.456l.409-15.5s79.005-.864,91.642,5a12.064,12.064,0,0,1,4.591,3.819c-10.273,3.955-40.5,13.546-72.959,3.545,0,0,22.138,18.729,63.5,13.637,0,0-32.775,11.5-64.731-4.227C1413.114,1680.233,1432.888,1706.962,1490.891,1691.961Z" style="mix-blend-mode: soft-light;isolation: isolate"/>
  </g>
</svg>
