<svg xmlns="http://www.w3.org/2000/svg" width="798.355" height="785.268" viewBox="0 0 798.355 785.268">
  <g id="Group_17443" data-name="Group 17443" transform="translate(-1031.836 -1099.198)">
    <rect id="Rectangle_36" data-name="Rectangle 36" width="558.52" height="341.591" transform="translate(1162.709 1446.672)" fill="#271f49"/>
    <g id="Group_2209" data-name="Group 2209">
      <path id="Path_6817" data-name="Path 6817" d="M1409.322,1455.884s-.907,1.466-2.652,4.189c-3.037,4.676-8.656,13.087-16.508,23.732-31.76,43-99.991,122.223-181.275,138.591,0,0,50.536,189.2,43.8,185.428s-85.891,0-85.891,0l1.326-96.187,3.525-255.892.174-13.123,36.227,2.024,191.99,10.715Z" fill="#c13e3e"/>
      <path id="Path_6818" data-name="Path 6818" d="M1406.67,1460.073c-3.037,4.676-8.656,13.087-16.508,23.732l-19.37-.8s-71.617,85.368-167.768,125.608c2.478-1.78,82.086-58.877,125.573-120.722,0,0-82.192,67.533-117.616,90.184,3.351-2.792,57.412-48.128,78.352-83.308l-48.093,2.966s-42.195,68.685-45.162,99.119c-2.931,30.433,49.071,189.441,46.139,187.487s-19.614-2.932-19.614-2.932l-23.558-126.62,9.807,126.62-39.263-.977-1.466-68.79,3.525-255.892,36.4-11.1,191.99,10.715C1402.1,1456.827,1404.366,1458.432,1406.67,1460.073Z" style="mix-blend-mode: soft-light;isolation: isolate"/>
    </g>
    <g id="Group_2210" data-name="Group 2210">
      <path id="Path_6819" data-name="Path 6819" d="M1461.6,1455.884s.907,1.466,2.652,4.189c3.037,4.676,8.655,13.087,16.508,23.732,31.76,43,99.991,122.223,181.275,138.591,0,0-50.537,189.2-43.8,185.428s85.891,0,85.891,0l-1.326-96.187-3.525-255.892-.174-13.123-36.227,2.024-191.99,10.715Z" fill="#c13e3e"/>
      <path id="Path_6820" data-name="Path 6820" d="M1464.251,1460.073c3.037,4.676,8.655,13.087,16.508,23.732l19.37-.8s71.617,85.368,167.768,125.608c-2.478-1.78-82.086-58.877-125.573-120.722,0,0,82.191,67.533,117.616,90.184-3.351-2.792-57.412-48.128-78.353-83.308l48.094,2.966s42.195,68.685,45.162,99.119c2.931,30.433-49.071,189.441-46.139,187.487s19.614-2.932,19.614-2.932l23.558-126.62-9.807,126.62,39.263-.977,1.466-68.79-3.525-255.892-36.4-11.1-191.99,10.715C1468.823,1456.827,1466.555,1458.432,1464.251,1460.073Z" style="mix-blend-mode: soft-light;isolation: isolate"/>
    </g>
    <rect id="Rectangle_37" data-name="Rectangle 37" width="45.476" height="377.487" transform="translate(1682.595 1454.942)" fill="#ffd31a"/>
    <path id="Path_6821" data-name="Path 6821" d="M1698.65,1493.787v266.327h29.421v38.74c-8.655,1.4-19.126,1.117-31.376-1.431-4.118-.872-8.9-1.64-14.1-2.617V1454.942h45.476v34.238Z" style="mix-blend-mode: soft-light;isolation: isolate"/>
    <rect id="Rectangle_38" data-name="Rectangle 38" width="45.476" height="377.487" transform="translate(1144.46 1454.942)" fill="#ffd31a"/>
    <path id="Path_6822" data-name="Path 6822" d="M1162.713,1488.551l-1.326,274.844h28.549v33.924c-9.7.453-27.991.733-45.476,0V1454.942c.559.1,22.476,1.85,45.476,4.049V1481.5Z" style="mix-blend-mode: soft-light;isolation: isolate"/>
    <g id="Group_2212" data-name="Group 2212">
      <g id="Group_2211" data-name="Group 2211">
        <path id="Path_6823" data-name="Path 6823" d="M1458.148,1202.33l-74.932.942,38.74-104.074,1.78,5.026,26.978,76.956Z" fill="#ffff1d"/>
        <path id="Path_6824" data-name="Path 6824" d="M1458.148,1202.33l-74.932.943,38.74-104.075,1.78,5.026c-3.56,25.652-9.074,65.614-9.737,71.547,0,0,15.81-.454,36.716,5.409Z" fill="#ffd31a"/>
      </g>
      <path id="Path_6825" data-name="Path 6825" d="M1537.3,1314.466l-225.249-6c.558-1.536,11.622-23.8,26.664-53.818,3.071-6.107,6.317-12.564,9.667-19.23,22.372-44.5,67.952-58.947,105.505-43.7a84.661,84.661,0,0,1,33.156,24.5,98.277,98.277,0,0,1,13.4,21.01l10.366,21.708Z" fill="#ffd31a"/>
      <path id="Path_6826" data-name="Path 6826" d="M1585.327,1386.816,1265.74,1378.3c.943-2.652,23.524-47.884,51.549-103.655,31.131-61.949,93.918-82.855,146.583-63.206h.035c28.025,10.47,53.154,32.423,69.1,65.788l38.425,80.517Z" fill="#ffff1d"/>
      <path id="Path_6827" data-name="Path 6827" d="M1510.814,1258.939c-11.2,1.99-30.992,2.059-61.984.245-54.934-3.211-90.079.314-110.112-4.538,3.071-6.107,6.317-12.564,9.667-19.23,22.372-44.5,67.952-58.947,105.505-43.7-15.007-1.814-45.51-2.757-60.517,8.586,0,0,56.225-5.689,93.673,15.915a98.277,98.277,0,0,1,13.4,21.01Z" style="mix-blend-mode: soft-light;isolation: isolate"/>
      <path id="Path_6828" data-name="Path 6828" d="M1585.327,1386.816,1265.74,1378.3c.943-2.652,23.524-47.884,51.549-103.655,31.131-61.949,93.918-82.855,146.583-63.206-23.209-.663-93.429,6.771-123.479,113.533,0,0,126.166-33.261,231.043,32.772Z" fill="#ffd31a"/>
      <path id="Path_6829" data-name="Path 6829" d="M1668.67,1430.791l-486.308-2.827s162.673-169.164,399.475-51.584a524.878,524.878,0,0,1,60.413,35.46Q1655.337,1420.687,1668.67,1430.791Z" fill="#ffd31a"/>
      <path id="Path_6830" data-name="Path 6830" d="M1668.67,1430.791l-486.308-2.827s162.673-169.164,399.475-51.584c-60.588-17.625-179.216-40.589-289.083,5.026l-15.706,30.434h365.2Q1655.337,1420.687,1668.67,1430.791Z" style="mix-blend-mode: soft-light;isolation: isolate"/>
    </g>
    <rect id="Rectangle_39" data-name="Rectangle 39" width="539.357" height="35.494" transform="translate(1162.155 1419.448)" fill="#ffd31a"/>
    <rect id="Rectangle_40" data-name="Rectangle 40" width="525.606" height="14.554" transform="translate(1175.906 1419.448)" fill="#ffff1d"/>
    <path id="Path_6831" data-name="Path 6831" d="M1784.889,1471H1096.053c-26.944-.942-61.495-35.947-40-72.838,10.68-18.357,34.2-19.858,54.236-14.448l.035.035c20.138,5.444,36.681,17.938,32.877,27.187-7.574,18.463-21.464,31.236-21.464,31.236H1754.6s-13.926-2.861-21.5-12.773c-6.876-9.04.837-67.184,44.847-50.188a79.228,79.228,0,0,1,14.519,7.609C1849.316,1423.706,1784.889,1471,1784.889,1471Z" fill="#ffd31a"/>
    <rect id="Rectangle_41" data-name="Rectangle 41" width="713.232" height="89.416" transform="translate(1077.59 1795.05)" fill="#ffd31a"/>
    <path id="Path_6832" data-name="Path 6832" d="M1784.889,1471H1096.053c-26.944-.942-61.495-35.947-40-72.838,10.68-18.357,34.2-19.858,54.236-14.448l.035.035c9.842,8.9,25.582,28.618,17.032,35.459-9.807,7.852-32.7,20.94-32.7,20.94l-13.088-17.031,15.042-3.281-7.189,4.607,8.515,7.189s13.088-7.852,9.807-16.368-32.073-1.954-35.354,9.807c-3.246,11.8,18.986,26.176,18.986,26.176H1758.19c26.176-1.955,34.029-5.236,38.636-13.088,4.571-7.853,2.617-28.793-5.9-34.657-8.515-5.9-30.119-4.607-33.365,1.292-3.281,5.9.628,32.073,14.379,30.747,13.751-1.291,11.8-19.614,11.8-19.614l-10.47.663,1.954,13.088-9.179-10.47s6.561-11.8,10.47-11.8c3.944,0,20.941,4.572,18.986,15.042s-19.614,23.558-28.13,20.313c-8.516-3.281-28.793-23.558-24.221-39.927,2.792-9.946,16.683-20.347,34.8-23.628a79.228,79.228,0,0,1,14.519,7.609C1849.316,1423.706,1784.889,1471,1784.889,1471Z" style="mix-blend-mode: soft-light;isolation: isolate"/>
    <path id="Path_6833" data-name="Path 6833" d="M1790.823,1830.475H1162.713l36.227,53.991H1077.59V1795.05h713.233Z" style="mix-blend-mode: soft-light;isolation: isolate"/>
    <path id="Path_6834" data-name="Path 6834" d="M1830.191,1792.677a8.2,8.2,0,0,1-.07,1.326,17.006,17.006,0,0,1-16.962,15.706H1048.867a17.033,17.033,0,0,1-17.032-17.032,16.424,16.424,0,0,1,.733-4.886,17.2,17.2,0,0,1,4.258-7.155,16.986,16.986,0,0,1,12.041-4.991h764.292a16.991,16.991,0,0,1,16.962,16.02A4.92,4.92,0,0,1,1830.191,1792.677Z" fill="#ffff1d"/>
    <path id="Path_6835" data-name="Path 6835" d="M1830.121,1791.665a11.16,11.16,0,0,1-.908,2.338,15.919,15.919,0,0,1-3.35,4.816,16.982,16.982,0,0,1-12.041,4.991H1049.53a16.966,16.966,0,0,1-16.962-16.019,17.2,17.2,0,0,1,4.258-7.155,16.986,16.986,0,0,1,12.041-4.991h764.292A16.991,16.991,0,0,1,1830.121,1791.665Z" fill="#ffd31a"/>
    <path id="Path_6836" data-name="Path 6836" d="M1830.191,1792.677a8.2,8.2,0,0,1-.07,1.326H1099.927a17.009,17.009,0,0,1-17.032-17.031,8.439,8.439,0,0,1,.07-1.327h730.194a16.991,16.991,0,0,1,16.962,16.02A4.92,4.92,0,0,1,1830.191,1792.677Z" fill="#ffff1d"/>
  </g>
</svg>
