<svg xmlns="http://www.w3.org/2000/svg" width="435.025" height="394.406" viewBox="0 0 435.025 394.406">
  <g id="Group_17441" data-name="Group 17441" transform="translate(-208.033 -230.911)">
    <path id="Path_62737" data-name="Path 62737" d="M480.677,444.443s-12.37,16.4-14.372,23.463c-73.644,13.552-46.178,63.854-45.406,65.228C313.11,461.612,480.677,444.443,480.677,444.443Z" fill="#353535"/>
    <path id="Path_62738" data-name="Path 62738" d="M500.812,484.93c-59.875,1.158-69.038,45.527-69.038,45.527C410.409,486.04,466.3,467.906,466.3,467.906S479.664,471.644,500.812,484.93Z" fill="#353535"/>
    <path id="Path_62739" data-name="Path 62739" d="M501.632,517.243c-41.621-4.968-53.967,6.8-54.57,7.427,11.141-20.81,40.608-29.371,63.854-33.06a315.7,315.7,0,0,1,38.654,32.1C541.058,525.369,532.811,520.932,501.632,517.243Z" fill="#353535"/>
    <path id="Path_62740" data-name="Path 62740" d="M549.98,543.7a238.45,238.45,0,0,1-2.363,26.887c-30.721-9.525-50.687-42.947-51.387-44.177A141.707,141.707,0,0,0,549.98,543.7Z" fill="#353535"/>
    <path id="Path_62741" data-name="Path 62741" d="M381.925,518.927s-47.813-7.46-10.173-45.778c0,0-41.37,19.667-33.232,40.353S381.925,518.927,381.925,518.927Z" fill="#353535"/>
    <path id="Path_62742" data-name="Path 62742" d="M350.727,531.133c-26.091,20.183-42.3,16.662-51.772,8.777a124.91,124.91,0,0,1,3.159-26.622C317.932,544.612,350.727,531.133,350.727,531.133Z" fill="#353535"/>
    <path id="Path_62743" data-name="Path 62743" d="M346.545,544.5s63,25.095,157.514,0-123.7-33.108-123.7-33.108l-36.613,22.432Z" fill="#ffd31a"/>
    <g id="Group_13796" data-name="Group 13796">
      <path id="Path_62744" data-name="Path 62744" d="M264.762,470.033l-6.385,37.831a19.633,19.633,0,0,1-1.965.161c-5.747.108-23.134-1.827-42.043-26.009,11.149-7.523,20.628-11.231,28.29-12.9C256.9,466,264.762,470.033,264.762,470.033Z" fill="#ffd31a"/>
      <path id="Path_62745" data-name="Path 62745" d="M284.8,545.587a11.391,11.391,0,0,1-2.259.7c-5.894,1.505-22.987,3.332-47.446-15.1,8.5-9.781,16.5-15.638,23.379-19.131,13.114-6.609,22-4.567,22-4.567Z" fill="#ffd31a"/>
      <path id="Path_62746" data-name="Path 62746" d="M320.8,575.626a14.418,14.418,0,0,1-2.357,1.451c-5.649,2.9-21.562,8.222-49.608-3.385,5.4-11.285,11.395-18.808,16.995-23.806,10.9-9.834,20.235-9.995,20.235-9.995Z" fill="#ffd31a"/>
      <path id="Path_62747" data-name="Path 62747" d="M313.244,606.67c1.965-11.553,5.354-19.936,9.086-26.009-1.817,3.977-3.536,8.329-5.157,13.005a23.809,23.809,0,0,0-1.277,9.3c.1,1.4.2,2.741.344,4.084C315.258,606.939,314.275,606.831,313.244,606.67Z" fill="#c45f4f"/>
      <path id="Path_62748" data-name="Path 62748" d="M547.822,575.771a12.973,12.973,0,0,1-.2,1.881,4.514,4.514,0,0,1-.1.806c-.049.538-.147,1.075-.246,1.612-.049.269-.147.591-.2.914a20.622,20.622,0,0,1-.59,2.364c-.048.162-.1.376-.147.538v.053a50.627,50.627,0,0,1-3.978,9.78c-.344.7-.737,1.451-1.179,2.2a77.486,77.486,0,0,1-4.813,7.415c-.59.86-1.228,1.666-1.867,2.526l-.1.108c.1-1.021.147-1.989.246-3.01a22.933,22.933,0,0,0-1.277-9.3c-1.769-5.051-3.635-9.673-5.551-13.918a138.667,138.667,0,0,0-6.778-13l14.048-1.4,11.1-1.074a14.522,14.522,0,0,1,.737,1.988c.1.376.245.86.343,1.343a21.019,21.019,0,0,1,.541,3.6A28.352,28.352,0,0,1,547.822,575.771Z" fill="#c45f4f"/>
      <path id="Path_62749" data-name="Path 62749" d="M576.452,579.119c-12.279-5.051-20.432-10.747-25.786-15.96-10.413-10.1-10.56-18.647-10.56-18.647l38.408-13.756a14.6,14.6,0,0,1,1.032,1.343C582.4,536.452,589.664,551.391,576.452,579.119Z" fill="#ffd31a"/>
      <path id="Path_62750" data-name="Path 62750" d="M611.864,537.795c-13.457-1.988-22.986-5.588-29.666-9.4-12.574-7.2-15.078-15.261-15.078-15.261l24.95-16.873h.05l8.3-5.643a9.9,9.9,0,0,1,.983.753,22.241,22.241,0,0,1,3.585,3.761C609.7,501.147,615.892,514.044,611.864,537.795Z" fill="#ffd31a"/>
      <path id="Path_62751" data-name="Path 62751" d="M584.494,476.311s10.954,16.915,50.09,13.071c-4.131-36.416-24.2-42.852-24.2-42.852Z" fill="#ffd31a"/>
      <path id="Path_62752" data-name="Path 62752" d="M591.04,436.567s15.286,13.7,52.019.562c-14.119-34.18-35.29-35.565-35.29-35.565Z" fill="#ffd31a"/>
      <path id="Path_62753" data-name="Path 62753" d="M586.309,396.6s18.575,9.552,50.4-11.985c-23.146-29.615-43.981-25.854-43.981-25.854Z" fill="#ffd31a"/>
      <path id="Path_62754" data-name="Path 62754" d="M570.621,359.135s20.6,4.753,45.352-23.715c-30.6-23.032-49.673-14.381-49.673-14.381Z" fill="#ffd31a"/>
      <path id="Path_62755" data-name="Path 62755" d="M545.047,326.724s21.22-.37,37.21-33.829c-35.958-14.879-51.981-1.928-51.981-1.928Z" fill="#ffd31a"/>
      <path id="Path_62756" data-name="Path 62756" d="M511.329,301.576s20.394-5.467,26.533-41.637c-38.872-5.712-50.746,10.656-50.746,10.656Z" fill="#ffd31a"/>
      <path id="Path_62757" data-name="Path 62757" d="M471.766,285.406s18.178-10.193,14.047-46.608c-39.137,3.844-46.054,22.513-46.054,22.513Z" fill="#ffd31a"/>
      <path id="Path_62758" data-name="Path 62758" d="M429.052,279.314s14.724-14.222.6-48.4c-36.734,13.139-38.222,32.838-38.222,32.838Z" fill="#ffd31a"/>
      <path id="Path_62759" data-name="Path 62759" d="M386.1,283.717s10.266-17.284-12.88-46.9c-31.827,21.537-27.785,40.923-27.785,40.923Z" fill="#ffd31a"/>
      <path id="Path_62760" data-name="Path 62760" d="M345.835,298.314s5.108-19.168-25.486-42.2c-24.753,28.468-15.456,46.22-15.456,46.22Z" fill="#ffd31a"/>
      <path id="Path_62761" data-name="Path 62761" d="M310.98,322.1,285.1,331.338l-12.525,4.514s-.147-.162-.442-.484c-2.063-2.687-11.493-17.25,1.768-46.267.2-.538.491-1.075.737-1.612,13.114,5.427,21.464,11.5,26.817,16.98C310.832,314.142,310.98,322.1,310.98,322.1Z" fill="#ffd31a"/>
      <path id="Path_62762" data-name="Path 62762" d="M283.966,353.477l-33.3,22.516s-.245-.161-.687-.484v-.053c-3.144-2.418-16.159-14.778-10.756-46.644,14.047,2.042,23.821,5.857,30.5,9.888C281.609,345.739,283.966,353.477,283.966,353.477Z" fill="#ffd31a"/>
      <path id="Path_62763" data-name="Path 62763" d="M266.579,390.287,240.7,420.058s-.344-.108-1.032-.377c-4.125-1.88-19.548-10.962-23.133-42.452,14-1.4,24.411-.107,31.974,2.1C262.06,383.3,266.579,390.287,266.579,390.287Z" fill="#ffd31a"/>
      <path id="Path_62764" data-name="Path 62764" d="M260.047,430.053l-16.7,34.982a14.1,14.1,0,0,1-1.572-.268c-5.157-1.075-21.954-6.717-33.742-35.3,13.065-4.675,23.379-5.912,31.287-5.643C253.711,424.356,260.047,430.053,260.047,430.053Z" fill="#ffd31a"/>
    </g>
    <path id="Path_62765" data-name="Path 62765" d="M608.333,401.61h-.05c-.245-1.29-.54-2.58-.835-3.869v-.054a167.859,167.859,0,0,0-14.292-38.959c-.049,0-.049-.054-.049-.054-.639-1.182-1.277-2.311-1.867-3.439v-.054a175.205,175.205,0,0,0-24.705-34.231l-.049-.053c-.884-.967-1.768-1.881-2.653-2.848l-.049-.054A181.181,181.181,0,0,0,530.533,290.8c-1.13-.753-2.309-1.451-3.536-2.2A191.441,191.441,0,0,0,487.36,270.33q-1.989-.725-3.978-1.289a195.6,195.6,0,0,0-43.468-8.115c-1.375-.107-2.8-.215-4.224-.268-3.438-.162-6.925-.269-10.413-.269a194.186,194.186,0,0,0-33.792,2.9c-1.375.215-2.8.43-4.174.752a191.975,191.975,0,0,0-41.945,13.112v.054h-.049c-1.277.537-2.554,1.128-3.782,1.719A186.635,186.635,0,0,0,304.7,301.82c-1.13.86-2.211,1.72-3.242,2.633a166.3,166.3,0,0,0-19.106,18.378c-3.585,4.031-7.024,8.222-10.216,12.521-.835,1.128-1.621,2.2-2.407,3.332a167.84,167.84,0,0,0-19.745,36.756v.054c-.491,1.289-.982,2.525-1.473,3.815a163.01,163.01,0,0,0-8.841,40.357c-.147,1.4-.245,2.74-.344,4.137-.245,3.547-.344,7.093-.344,10.64a166.915,166.915,0,0,0,2.8,30.308q.442,2.176.884,4.352a164.771,164.771,0,0,0,13.753,38.906l2.063,4.03a173.7,173.7,0,0,0,24.066,34.231c1.081,1.236,2.161,2.418,3.291,3.6,2.063,2.149,4.126,4.245,6.287,6.287,1.228,1.183,2.505,2.365,3.782,3.493a181.424,181.424,0,0,0,22.544,17.411c1.375.914,2.849,1.827,4.273,2.741,11-24.128,23.822-35.3,23.822-35.3s5.206-3.708,16.552-7.578a123.031,123.031,0,0,1-36.936-29.77c-2.013-2.311-3.88-4.729-5.648-7.2-.982-1.344-1.915-2.687-2.8-4.085-1.522-2.364-3-4.728-4.322-7.2a110.869,110.869,0,0,1-2.6-103.444c18.222-37.132,56.582-63.84,102.014-67.977,3.34-.323,6.729-.538,10.167-.538.786-.054,1.523-.054,2.308-.054,4.224,0,8.35.216,12.476.538,63.8,5.857,113.6,56.155,113.6,117.254a110.488,110.488,0,0,1-14.194,54.221,79.912,79.912,0,0,1-4.372,7.147c-.295.537-.688,1.075-1.031,1.612a104.542,104.542,0,0,1-7.368,9.726,122.29,122.29,0,0,1-29.175,25.31c-2.5,1.559-5.058,3.064-7.711,4.46,11.346,3.87,16.552,7.578,16.552,7.578s8.154,7.093,16.994,22.247a138.667,138.667,0,0,1,6.778,13c3.979-2.418,7.81-5,11.543-7.738,2.554-1.827,5.108-3.762,7.564-5.75,1.277-1.021,2.505-2.042,3.732-3.117,2.653-2.257,5.256-4.568,7.81-6.986a181.108,181.108,0,0,0,21.071-24.074l2.652-3.708a168.817,168.817,0,0,0,17.534-32.726c.59-1.45,1.179-2.848,1.67-4.3.541-1.344.982-2.687,1.425-4.031a161.428,161.428,0,0,0,8.3-40.517c.147-1.344.2-2.687.295-4.031.147-2.794.2-5.535.2-8.329A164.692,164.692,0,0,0,608.333,401.61Z" fill="#ffa81d"/>
    <path id="Path_62766" data-name="Path 62766" d="M313.244,606.67c1.965-11.553,5.354-19.936,9.086-26.009-1.817,3.977-3.536,8.329-5.157,13.005a23.809,23.809,0,0,0-1.277,9.3c.1,1.4.2,2.741.344,4.084C315.258,606.939,314.275,606.831,313.244,606.67Z" opacity="0.56" style="mix-blend-mode: soft-light;isolation: isolate"/>
    <path id="Path_62767" data-name="Path 62767" d="M326.161,507.149a123.031,123.031,0,0,0,36.936,29.77c-11.346,3.87-16.552,7.578-16.552,7.578s-12.82,11.177-23.822,35.3c-1.424-.914-2.9-1.827-4.273-2.741a28.328,28.328,0,0,1-2.8,1.236,37.349,37.349,0,0,1-6.286,1.719,48.185,48.185,0,0,1-12.034.7,24.421,24.421,0,0,1-2.8-.215c-.639-.053-1.326-.107-2.014-.215a.575.575,0,0,1-.3-.054,29.049,29.049,0,0,1-2.9-.429c-.933-.162-1.915-.323-2.9-.538-1.277-.268-2.554-.591-3.881-.967-.1,0-.2,0-.245-.054q-1.916-.483-3.979-1.128a100.6,100.6,0,0,1-9.479-3.439c5.4-11.285,11.4-18.808,16.994-23.806-1.13-1.182-2.21-2.364-3.291-3.6-5.894,1.5-22.986,3.331-47.446-15.1,8.5-9.78,16.5-15.638,23.38-19.131l-2.063-4.03c-5.747.107-23.134-1.827-42.044-26.009,11.15-7.523,20.629-11.231,28.291-12.9q-.442-2.175-.884-4.352c-5.157-1.075-21.955-6.718-33.743-35.306,13.065-4.675,23.38-5.911,31.287-5.642.1-1.4.2-2.741.344-4.137-4.126-1.882-19.548-10.963-23.134-42.453,14-1.4,24.411-.108,31.975,2.1.491-1.29.982-2.526,1.473-3.815v-.054c-3.143-2.419-16.159-14.778-10.756-46.644,14.047,2.042,23.821,5.858,30.5,9.888.786-1.129,1.572-2.2,2.407-3.332-2.063-2.687-11.493-17.25,1.768-46.268a302.487,302.487,0,0,0,8.448,33.747c.835,2.8,1.768,5.643,2.75,8.491a257.3,257.3,0,0,0,25.688,53.9,110.869,110.869,0,0,0,2.6,103.444c1.326,2.472,2.8,4.836,4.322,7.2.885,1.4,1.818,2.741,2.8,4.085C322.281,502.42,324.148,504.838,326.161,507.149Z" opacity="0.56" style="mix-blend-mode: soft-light;isolation: isolate"/>
    <path id="Path_62768" data-name="Path 62768" d="M582.2,528.375l-2.652,3.708c2.848,4.353,10.118,19.292-3.1,47.02-1.424-.591-2.8-1.182-4.076-1.773l-.737-.323c-1.179-.537-2.309-1.075-3.34-1.612a2.206,2.206,0,0,0-.491-.268c-1.228-.645-2.407-1.29-3.487-1.935-1.277-.7-2.505-1.451-3.684-2.2l-1.915-1.29c-1.228-.86-2.407-1.719-3.488-2.579-.884-.645-1.67-1.344-2.406-1.989s-1.474-1.343-2.162-1.988c-1.227,1.075-2.455,2.1-3.732,3.117.1.376.245.86.343,1.343a21.019,21.019,0,0,1,.541,3.6,28.352,28.352,0,0,1,0,4.567,12.973,12.973,0,0,1-.2,1.881,4.514,4.514,0,0,1-.1.806c-.049.538-.147,1.075-.246,1.612-.049.269-.147.591-.2.914a20.622,20.622,0,0,1-.59,2.364c-.048.162-.1.376-.147.538v.053a50.627,50.627,0,0,1-3.978,9.78c-.344.7-.737,1.451-1.179,2.2a77.486,77.486,0,0,1-4.813,7.415c-.59.86-1.228,1.666-1.867,2.526l-.1.108c.1-1.021.147-1.989.246-3.01a22.933,22.933,0,0,0-1.277-9.3c-1.769-5.051-3.635-9.673-5.551-13.918a138.667,138.667,0,0,0-6.778-13c-8.84-15.154-16.994-22.247-16.994-22.247s-5.206-3.708-16.552-7.578c2.653-1.4,5.207-2.9,7.711-4.46a122.29,122.29,0,0,0,29.175-25.31,104.542,104.542,0,0,0,7.368-9.726c1.13.054,2.259.107,3.389.107,1.228.054,2.455.108,3.733.108a502.727,502.727,0,0,0,53.192-1.4h.049c2.505-.162,5.059-.377,7.613-.592,1.719-.161,3.488-.322,5.256-.537,4.715,6.019,10.9,18.916,6.876,42.667C598.411,535.791,588.883,532.191,582.2,528.375Z" opacity="0.56" style="mix-blend-mode: soft-light;isolation: isolate"/>
    <path id="Path_62769" data-name="Path 62769" d="M467.856,395.715H382.738l42.535-111.021,36.837,96.082Z" fill="#ffd31a"/>
    <path id="Path_62770" data-name="Path 62770" d="M467.856,395.715H382.738l42.535-111.021-6.189,85.764a157.073,157.073,0,0,1,43.026,10.318Z" opacity="0.56" style="mix-blend-mode: soft-light;isolation: isolate"/>
    <path id="Path_62771" data-name="Path 62771" d="M540.5,507.165H310.047s7.514-50.3,23.772-89.74a159.667,159.667,0,0,1,35.118-22.785c18.762-8.974,38.7-14.133,56.336-14.133,29.469,0,65.275,14.348,91.454,36.918,6.876,16.658,12.131,35.251,15.962,51.1C537.994,490.346,540.5,507.165,540.5,507.165Z" fill="#ffb91d"/>
    <path id="Path_62772" data-name="Path 62772" d="M540.5,507.165H310.047s7.514-50.3,23.772-89.74a159.667,159.667,0,0,1,35.118-22.785c-.639,11.553-.983,29.716,1.571,45.569,0,0,20.04-7.523,22.1-11.285,2.062-3.815,32.662-45.623,32.662-45.623l37.082,17.626,14.538,37.025,55.8,30.577C537.994,490.346,540.5,507.165,540.5,507.165Z" opacity="0.56" style="mix-blend-mode: soft-light;isolation: isolate"/>
    <path id="Path_62773" data-name="Path 62773" d="M322.723,579.8c.049,0,.049.053.1.053-.147.269-.343.538-.491.806C322.478,580.339,322.576,580.07,322.723,579.8Z" fill="#2a323f"/>
    <path id="Path_62775" data-name="Path 62775" d="M421.5,560.527c-.024.024-.024.024-.024.048V560.5Z" fill="#c64040"/>
    <g id="Group_13804" data-name="Group 13804">
      <g id="Group_13803" data-name="Group 13803">
        <path id="Path_62782" data-name="Path 62782" d="M585.169,419.423s-6.14,1.02-11.279,8.188c-4.039,5.627-17.6,36.172-47.73,42.971-8.178,1.855-17.562,1.959-28.313-.657l-2.894-.658-3.974-.9-1.121-.258-4.676-1.077-.239-.044-3.488-.8-9.3-2.124s-15.809-25.732-2.337-61.164c12.133-31.92,6.2-43.718,4.9-45.75a34.79,34.79,0,0,1,5.8,21.967c-.768,9.04-2.036,17.733-2.715,22.177,1.257-6.7,5.093-22.775,14.453-33.143,12.05-13.359,21.666-17.467,21.666-17.467s-14.249,11.7-20.922,28.9c2.009-4.669,9.615-18.663,30.336-24.314,10.008-2.741,18.012-4.562,24.749-6.36,10.117-2.708,17.386-5.364,24.377-10.952,0,0-10.519,11.24-22.993,15.338,2.291-.551,39.321-9.528,53.89-22.36-1.2,1.347-20.943,23.368-23.645,33.44-2.8,10.4.863,22.781-5.375,37.524,0,0,7.511-8.08,7.956-28.336.244,1.558,6.252,42.768-23.782,58.016a31.251,31.251,0,0,0,15.413-8.139C580.584,416.759,585.169,419.423,585.169,419.423Z" fill="#2e7c66"/>
        <path id="Path_62783" data-name="Path 62783" d="M478.3,463.047s-13.133-24.908,4.221-55.385l-1.866,12.761s1.15-22.571,27.136-32.452,34.481-13.088,34.481-13.088L527.759,385.4s24.989-9.356,31.646-16.05c0,0-11.458,23.549-15.633,34.345l9.537-13.3s-9.555,24.138-13.83,41.99-24.1,38.81-44.444,35.848S478.3,463.047,478.3,463.047Z" fill="#2e667a"/>
        <path id="Path_62784" data-name="Path 62784" d="M514.178,455.564a63.243,63.243,0,0,1-17.421,12.853l-.017.009c-.6.3-1.184.568-1.787.841l-3.974-.9-1.121-.258-4.676-1.077-.239-.044-3.488-.8c0-.224.005-.444,0-.681.193-8.477,1.681-30.619,11.46-48.372,4.047-7.329,9.456-10.487,14.966-11.049,11.358-1.167,23.1,8.736,23.946,16.009C532.609,428.869,525.8,443.674,514.178,455.564Z" fill="#172f35"/>
        <path id="Path_62785" data-name="Path 62785" d="M515.323,445.114a24.763,24.763,0,0,1-3.879,5.543A116.563,116.563,0,0,1,491.9,467.743c-.322.226-.622.43-.918.62l-1.121-.258c.207-.188.417-.39.646-.6,5.115-4.7,14.912-14.133,19.065-20.94a18.491,18.491,0,0,0,1.192-2.225c2.324-5.209-.9-8.163-4.7-9.442-2.892-1-6.1-1.028-7.473-.372-2.953,1.4-11.115,19.1-13.323,31.981-.041.18-.064.351-.087.522l-.239-.044c.01-.175.024-.363.038-.552.437-7.779,2.557-28.421,12.646-35.54a12.505,12.505,0,0,1,7.6-2.641C513.356,428.439,517.993,439.122,515.323,445.114Z" fill="#1ad371"/>
      </g>
      <path id="Path_62786" data-name="Path 62786" d="M526.16,470.582c-8.178,1.855-17.562,1.959-28.313-.657l-2.894-.658-3.974-.9-1.121-.258-4.676-1.077-.239-.044-3.488-.8-9.3-2.124s-15.809-25.732-2.337-61.164c12.133-31.92,6.2-43.718,4.9-45.75a34.79,34.79,0,0,1,5.8,21.967c-.768,9.04-2.036,17.733-2.715,22.177,1.257-6.7,5.093-22.775,14.453-33.143,12.05-13.359,21.666-17.467,21.666-17.467s-14.249,11.7-20.922,28.9c2.009-4.669,9.615-18.663,30.336-24.314,10.008-2.741,18.012-4.562,24.749-6.36-8.884,7.921-21.072,20.289-30.2,35.22a92.547,92.547,0,0,0-10,21.954,62.9,62.9,0,0,0-2.653,22.167,57.573,57.573,0,0,0,.833,6.646,56.665,56.665,0,0,0,3.5,11.667c.557,1.358,1.187,2.724,1.875,4.093.814,1.63,1.732,3.263,2.734,4.907a75.2,75.2,0,0,0,4.323,6.289A86.815,86.815,0,0,0,526.16,470.582Z" opacity="0.5" style="mix-blend-mode: soft-light;isolation: isolate"/>
    </g>
    <path id="Path_62787" data-name="Path 62787" d="M346.545,544.5s63,25.095,157.514,0-123.7-33.108-123.7-33.108l-36.613,22.432Z" opacity="0.56" style="mix-blend-mode: soft-light;isolation: isolate"/>
    <path id="Path_62788" data-name="Path 62788" d="M561.132,585.39c-.688,8.222-22.741,33.371-27.554,38.852l-.982,1.075a7.191,7.191,0,0,1,.1-1.021c.491-4.568.982-9.189,1.326-13.918.148-1.451.295-2.955.393-4.406.1-1.021.147-1.989.246-3.01a22.933,22.933,0,0,0-1.277-9.3c-1.769-5.051-3.635-9.673-5.551-13.918a138.667,138.667,0,0,0-6.778-13c-8.84-15.154-16.994-22.247-16.994-22.247s-5.206-3.708-16.552-7.578c-12.622-4.352-32.907-8.92-62.23-8.92s-49.558,4.568-62.18,8.92c-11.346,3.87-16.552,7.578-16.552,7.578s-12.82,11.177-23.822,35.3c.049,0,.049.053.1.053-.147.269-.343.538-.491.806-1.817,3.977-3.536,8.329-5.157,13.005a23.809,23.809,0,0,0-1.277,9.3c.1,1.4.2,2.741.344,4.084.491,6.234,1.08,12.306,1.768,18.271h-.049s-3.291-3.654-7.613-8.759c-8.3-9.78-20.432-25.1-20.923-31.168-.1-1.4-.148-3.278-.1-5.588a160.643,160.643,0,0,1,2.8-23.645c.688-3.869,1.572-8.06,2.6-12.574v-.054a381.708,381.708,0,0,1,11.346-38.959c1.424-1.129,3.143-2.472,5.059-3.869,1.965-1.5,4.175-3.117,6.581-4.837,22.447-16.121,60.118-40.732,60.118-40.732l7.024-21.065,7.662-23.053L410.592,395.7l14.587-12.306.1-.108L439.963,395.7l18.075,15.315,14.685,44.118s37.623,24.558,60.069,40.679c.835.591,1.621,1.182,2.358,1.719,1.522,1.075,2.947,2.15,4.273,3.171,1.915,1.4,3.635,2.74,5.059,3.869,4.469,12.95,7.858,24.558,10.363,34.66,1.523,6.234,2.7,11.876,3.635,16.927.393,2.15.737,4.246,1.031,6.18v.054c.491,3.116.835,5.965,1.13,8.6A82.578,82.578,0,0,1,561.132,585.39Z" fill="#ffd31a"/>
    <path id="Path_62789" data-name="Path 62789" d="M561.132,585.39c-.688,8.222-22.741,33.371-27.554,38.852l-.884.054c.491-4.568.982-9.189,1.326-13.918.148-1.451.295-2.955.393-4.406.1-1.021.147-1.989.246-3.01a22.933,22.933,0,0,0-1.277-9.3c-1.769-5.051-3.635-9.673-5.551-13.918a138.667,138.667,0,0,0-6.778-13c-8.84-15.154-16.994-22.247-16.994-22.247s-5.206-3.708-16.552-7.578c-12.622-4.352-32.907-8.92-62.23-8.92s-49.558,4.568-62.18,8.92c-11.346,3.87-16.552,7.578-16.552,7.578s-12.82,11.177-23.822,35.3c.049,0,.049.053.1.053-.147.269-.343.538-.491.806-1.817,3.977-3.536,8.329-5.157,13.005a23.809,23.809,0,0,0-1.277,9.3c.1,1.4.2,2.741.344,4.084.491,6.234,1.08,12.306,1.768,18.271h-.049s-3.291-3.654-7.613-8.759c-9.234-11.822-18.075-25.74-17.878-35.037,0-.376.049-.806.049-1.236a139.762,139.762,0,0,1,3.389-20.635c1.277-6.018,2.848-12.413,4.469-18.593,4.666-17.787,9.676-33.908,9.676-33.908l10.462-7.2,63.114-43.366,8.546-27.084,4.813-15.207,17.24-15.853,3-2.74,8.3-7.631-3.438,7.631-11.739,26.116-2.063,18.7-.835,7.523-1.228,11.07-6.237,11.715c-.049.054-.049.054-.049.108l-3.537,6.555v.108l-15.668,29.555L371.2,525.1c32.956-5.481,94.7.968,124.017,7.362a78.088,78.088,0,0,1,13.213,3.708c8.546,3.654,18.762,17.035,26.67,29.179,1.522,2.311,2.947,4.568,4.273,6.664,3,4.89,5.4,9.189,6.974,11.876v.053c1.081,1.989,1.67,3.117,1.67,3.117,6.385-2.042,9.381-9.35,10.708-17.357.392-2.418.638-4.89.785-7.308.491,3.116.835,5.965,1.13,8.6A82.578,82.578,0,0,1,561.132,585.39Z" opacity="0.56" style="mix-blend-mode: soft-light;isolation: isolate"/>
    <ellipse id="Ellipse_462" data-name="Ellipse 462" cx="29.276" cy="37.953" rx="29.276" ry="37.953" transform="translate(396.005 453.277)" opacity="0.56" style="mix-blend-mode: soft-light;isolation: isolate"/>
    <ellipse id="Ellipse_463" data-name="Ellipse 463" cx="25.372" cy="32.892" rx="25.372" ry="32.892" transform="translate(399.909 458.338)" fill="#0b9947"/>
    <ellipse id="Ellipse_464" data-name="Ellipse 464" cx="22.003" cy="28.524" rx="22.003" ry="28.524" transform="translate(404.66 461.572)" fill="#1ad371"/>
    <path id="Path_62790" data-name="Path 62790" d="M445.977,485.184c0,10.614-6.637,19.219-14.825,19.219s-7.806-9.167-7.806-19.782-.381-18.655,7.806-18.655S445.977,474.57,445.977,485.184Z" fill="#cfe530"/>
  </g>
</svg>
