<svg xmlns="http://www.w3.org/2000/svg" width="757.18" height="1417.049" viewBox="0 0 757.18 1417.049">
  <g id="Group_17442" data-name="Group 17442" transform="translate(-1832.602 -370.717)">
    <rect id="Rectangle_73" data-name="Rectangle 73" width="346" height="315" rx="151" transform="translate(2035.447 1373.056)" fill="#bd3030"/>
    <rect id="Rectangle_72" data-name="Rectangle 72" width="398" height="382" rx="191" transform="translate(2019.447 1097.056)" fill="#9f2323"/>
    <g id="Group_4501" data-name="Group 4501">
      <path id="Path_21707" data-name="Path 21707" d="M2506.2,825.774c127.856,134.079-101.146,334.247-101.146,334.247l-195.1,16.7-1.674.157-1.7-.157-195.1-16.7s-229-200.168-101.123-334.247c0,0-181.3-185.04,183.2-307.795,0,0-9.364-144.643,113.019-147.217.566-.045,1.131-.045,1.7-.045s1.109,0,1.674.045C2332.364,373.336,2323,517.979,2323,517.979,2687.482,640.734,2506.2,825.774,2506.2,825.774Z" fill="#f2b200"/>
      <path id="Path_21708" data-name="Path 21708" d="M2462.466,818.143c109.086,114.4-86.3,285.178-86.3,285.178l-166.456,14.244-1.429.134-1.447-.134-166.457-14.244S1844.995,932.539,1954.1,818.143c0,0-154.687-157.874,156.307-262.608,0,0-7.99-123.409,96.427-125.6.482-.038.965-.038,1.447-.038s.946,0,1.429.038c104.436,2.2,96.447,125.6,96.447,125.6C2617.132,660.269,2462.466,818.143,2462.466,818.143Z" fill="#ce4646"/>
      <path id="Path_21709" data-name="Path 21709" d="M2446.064,815.281c102.048,107.015-80.729,266.777-80.729,266.777l-155.716,13.326-1.336.125-1.354-.125-155.716-13.326S1868.437,922.3,1970.5,815.281c0,0-144.705-147.687,146.221-245.663,0,0-7.474-115.445,90.2-117.5.451-.035.9-.035,1.354-.035s.885,0,1.336.035c97.7,2.055,90.224,117.5,90.224,117.5C2590.751,667.594,2446.064,815.281,2446.064,815.281Z" fill="#949b0e"/>
    </g>
    <g id="Group_4502" data-name="Group 4502">
      <path id="Path_21711" data-name="Path 21711" d="M1965.633,1100.247s-114.2-34.21-131.051,114.037,78.631,148.248,102.969,136.844l-22.466,216.67s-35.571,20.273-30.891,68.421c0,0,111.4,37.982,171.305-13.953s33.7-420.653,33.7-420.653S2068.6,1128.123,1965.633,1100.247Z" fill="#ce4646"/>
      <path id="Path_21712" data-name="Path 21712" d="M2055.5,1622.266c-59.91,51.934-171.316,13.955-171.316,13.955-.15-1.453-.25-2.906-.325-4.291,36.046-1.453,90.788-6.994,73.639-27.538-15.277-18.313-38.766-24.361-54.692-26.287a58.5,58.5,0,0,1,12.281-10.306l60.384,5.71,1.4-231.891s-20.669,16.455-40.814,23.922l1.5-14.428c-8.412,3.954-25.361,6.522-43.235,2.095l-.025-.034c-13.129-18.178-20.993-51.088-19.919-110.387,1.4-77.917,51.946-89.337,51.946-89.337l-14.528-53.319a110.155,110.155,0,0,1,53.844.1C2068.6,1128.107,2089.2,1201.6,2089.2,1201.6S2115.408,1570.333,2055.5,1622.266Z" opacity="0.43" style="mix-blend-mode: soft-light;isolation: isolate"/>
      <path id="Path_21713" data-name="Path 21713" d="M1924.446,1289.041c-4.466,3.142-9.778,5.543-15.734,5.651a17.559,17.559,0,0,1-8.8-2.224,30.128,30.128,0,0,1-3.785-2.768c-1-1.15-2.019-2.328-2.993-3.541-3.4-5.145-4.842-10.886-6.08-16.528a68.361,68.361,0,0,1-.792-8.8,43.743,43.743,0,0,1,.9-8.992,42.38,42.38,0,0,1,2.745-8.828,39.657,39.657,0,0,1,20.1-19.042,40.039,40.039,0,0,1,18.6-2.872,32.581,32.581,0,0,1,18.115,7.168c4.977,4.188,8.369,9.116,11.414,14.2l2.16,3.863c.658,1.312,1.219,2.665,1.829,4a61.374,61.374,0,0,1,3.084,8.191,83.44,83.44,0,0,1,3.263,34.324,89.54,89.54,0,0,1-10.316,32.309l-4.333,7.2c-1.6,2.285-3.32,4.487-5.023,6.675l-2.569,3.256-2.874,3-5.809,5.849,4.422-6.924,2.242-3.386,1.913-3.587c1.224-2.413,2.6-4.716,3.786-7.11l3.077-7.388a95.264,95.264,0,0,0,6.442-30.555,81.5,81.5,0,0,0-4.661-30.2,73.142,73.142,0,0,0-2.865-7.038c-.547-1.137-1.044-2.3-1.624-3.419l-1.894-3.244c-2.584-4.21-5.636-8.31-9.1-11.093-6.3-5.555-16.607-6.2-25.218-3.02a29.176,29.176,0,0,0-18.121,19.792,34.947,34.947,0,0,0-1.334,7.175c-.2,2.463-.029,4.994-.043,7.527.5,5.079,1.265,10.221,3.424,14.574a14.41,14.41,0,0,0,10.941,8.268C1913.913,1292.262,1919.424,1291.135,1924.446,1289.041Z" fill="#6d1616"/>
    </g>
    <g id="Group_4503" data-name="Group 4503">
      <path id="Path_21714" data-name="Path 21714" d="M2456.748,1100.247s114.2-34.21,131.052,114.037-78.631,148.248-102.969,136.844L2507.3,1567.8s35.571,20.273,30.891,68.421c0,0-111.4,37.982-171.3-13.953s-33.7-420.653-33.7-420.653S2353.779,1128.123,2456.748,1100.247Z" fill="#ce4646"/>
      <path id="Path_21715" data-name="Path 21715" d="M2366.883,1622.266c59.909,51.934,171.316,13.955,171.316,13.955.15-1.453.249-2.906.324-4.291-36.045-1.453-90.788-6.994-73.638-27.538,15.276-18.313,38.766-24.361,54.692-26.287A58.5,58.5,0,0,0,2507.3,1567.8l-60.384,5.71-1.4-231.891s20.669,16.455,40.814,23.922l-1.5-14.428c8.412,3.954,25.361,6.522,43.234,2.095l.025-.034c13.13-18.178,20.993-51.088,19.92-110.387-1.4-77.917-51.946-89.337-51.946-89.337l14.528-53.319a110.154,110.154,0,0,0-53.844.1c-102.969,27.876-123.563,101.366-123.563,101.366S2306.974,1570.333,2366.883,1622.266Z" opacity="0.43" style="mix-blend-mode: soft-light;isolation: isolate"/>
      <path id="Path_21716" data-name="Path 21716" d="M2497.936,1289.041c5.022,2.094,10.533,3.221,15.51,2.457a14.41,14.41,0,0,0,10.941-8.268c2.159-4.353,2.921-9.495,3.424-14.574-.014-2.533.155-5.064-.043-7.527a34.955,34.955,0,0,0-1.334-7.175,29.176,29.176,0,0,0-18.121-19.792c-8.611-3.18-18.921-2.535-25.218,3.02-3.467,2.783-6.518,6.883-9.1,11.093l-1.894,3.244c-.58,1.115-1.077,2.282-1.624,3.419a72.892,72.892,0,0,0-2.865,7.038,81.52,81.52,0,0,0-4.662,30.2,95.288,95.288,0,0,0,6.443,30.555l3.077,7.388c1.187,2.394,2.562,4.7,3.785,7.11l1.914,3.587,2.242,3.386,4.422,6.924-5.81-5.849-2.873-3-2.569-3.256c-1.7-2.188-3.421-4.39-5.023-6.675l-4.333-7.2a89.538,89.538,0,0,1-10.316-32.309,83.442,83.442,0,0,1,3.263-34.324,61.223,61.223,0,0,1,3.084-8.191c.61-1.332,1.171-2.685,1.829-4l2.16-3.863c3.045-5.079,6.437-10.007,11.414-14.2a32.581,32.581,0,0,1,18.115-7.168,40.04,40.04,0,0,1,18.6,2.872,39.655,39.655,0,0,1,20.1,19.042,42.431,42.431,0,0,1,2.745,8.828,43.683,43.683,0,0,1,.9,8.992,68.165,68.165,0,0,1-.791,8.8c-1.238,5.642-2.679,11.383-6.08,16.528-.974,1.213-1.992,2.391-2.994,3.541a30.038,30.038,0,0,1-3.784,2.768,17.561,17.561,0,0,1-8.8,2.224C2507.714,1294.584,2502.4,1292.183,2497.936,1289.041Z" fill="#6d1616"/>
    </g>
    <g id="Group_4506" data-name="Group 4506">
      <g id="Group_4504" data-name="Group 4504">
        <path id="Path_21717" data-name="Path 21717" d="M2579.939,1688.283v22.228c0,42.673-161.972,77.255-361.793,77.255-199.806,0-361.778-34.582-361.778-77.255v-22.228s5.367.013,15.175.013c44.687-31.848,182.95-55.053,346.6-55.053,164.019,0,302.534,23.3,346.912,55.266C2574.684,1688.447,2579.939,1688.371,2579.939,1688.283Z" fill="#ffc41d"/>
        <ellipse id="Ellipse_425" data-name="Ellipse 425" cx="361.788" cy="77.26" rx="361.788" ry="77.26" transform="translate(1856.363 1611.023)" fill="#ffe31a"/>
      </g>
      <g id="Group_4505" data-name="Group 4505">
        <path id="Path_21718" data-name="Path 21718" d="M2562.08,1657.307v21.13c0,40.567-153.977,73.442-343.933,73.442s-343.92-32.875-343.92-73.442v-21.13s5.1.012,14.426.012c42.481-30.276,173.919-52.336,329.494-52.336,155.921,0,287.6,22.156,329.786,52.539C2557.085,1657.462,2562.08,1657.391,2562.08,1657.307Z" fill="#3d0389"/>
        <ellipse id="Ellipse_426" data-name="Ellipse 426" cx="343.929" cy="73.446" rx="343.929" ry="73.446" transform="translate(1874.223 1583.861)" fill="#5500af"/>
      </g>
    </g>
    <path id="Path_21732" data-name="Path 21732" d="M2359.607,960.421c.22-.439.439-.878.69-1.317-.031.22-.157.753-.345,1.537C2359.827,960.578,2359.733,960.484,2359.607,960.421Z" opacity="0.25" style="mix-blend-mode: soft-light;isolation: isolate"/>
    <path id="Path_21737" data-name="Path 21737" d="M2053.843,997.823a15.738,15.738,0,0,1,.157-3.261Z" opacity="0.25" style="mix-blend-mode: soft-light;isolation: isolate"/>
    <path id="Path_21738" data-name="Path 21738" d="M2054.062,999.077c1.348.313,7.556,1.881,17.807,3.793,5.518,1.034,12.227,2.226,19.971,3.386-6.552-.941-13.262-2.069-20.065-3.323q-8.041-1.5-16.208-3.292A.914.914,0,0,1,2054.062,999.077Z" opacity="0.25" style="mix-blend-mode: soft-light;isolation: isolate"/>
    <path id="Path_21739" data-name="Path 21739" d="M2092.874,1006.413c1.6.219,3.261.47,4.954.689,1.035.157,2.069.283,3.135.439Q2096.966,1007.023,2092.874,1006.413Z" opacity="0.25" style="mix-blend-mode: soft-light;isolation: isolate"/>
    <path id="Path_21740" data-name="Path 21740" d="M2121.717,1009.955c.471.032.941.094,1.411.125,1.411.157,2.821.283,4.264.408-1.443-.125-2.947-.251-4.452-.408C2122.532,1010.049,2122.125,1009.987,2121.717,1009.955Z" opacity="0.25" style="mix-blend-mode: soft-light;isolation: isolate"/>
    <path id="Path_21741" data-name="Path 21741" d="M2128.74,1010.614c.188,0,.376.031.564.031,1.286.125,2.6.251,3.919.345C2131.75,1010.9,2130.245,1010.77,2128.74,1010.614Z" opacity="0.25" style="mix-blend-mode: soft-light;isolation: isolate"/>
    <path id="Path_21742" data-name="Path 21742" d="M2141.312,1011.586l1.128.093c-1.693-.093-3.448-.219-5.2-.375Z" opacity="0.25" style="mix-blend-mode: soft-light;isolation: isolate"/>
    <path id="Path_21743" data-name="Path 21743" d="M2180.03,1013.09q6.442.094,13.073,0s-20.409.659-50.663-1.411h.251c4.044.283,8.182.5,12.446.722,2.257.094,4.577.188,6.929.282,4.357.157,8.809.282,13.355.345C2176.957,1013.059,2178.494,1013.09,2180.03,1013.09Z" opacity="0.25" style="mix-blend-mode: soft-light;isolation: isolate"/>
    <path id="Path_21747" data-name="Path 21747" d="M2091.84,1006.256c-6.552-.941-13.262-2.069-20.065-3.323.032,0,.063-.032.094-.063C2077.387,1003.9,2084.1,1005.1,2091.84,1006.256Z" opacity="0.25" style="mix-blend-mode: soft-light;isolation: isolate"/>
    <path id="Path_21748" data-name="Path 21748" d="M2100.963,1007.541q-4-.518-8.089-1.128c1.6.219,3.261.47,4.954.689C2098.863,1007.259,2099.9,1007.385,2100.963,1007.541Z" opacity="0.25" style="mix-blend-mode: soft-light;isolation: isolate"/>
    <path id="Path_21749" data-name="Path 21749" d="M2127.392,1010.488c-1.443-.125-2.947-.251-4.452-.408h.188C2124.539,1010.237,2125.949,1010.363,2127.392,1010.488Z" opacity="0.25" style="mix-blend-mode: soft-light;isolation: isolate"/>
    <path id="Path_21750" data-name="Path 21750" d="M2128.74,1010.614c-.439-.031-.878-.063-1.348-.126.627.063,1.285.126,1.912.157,1.286.125,2.6.251,3.919.345C2131.75,1010.9,2130.245,1010.77,2128.74,1010.614Z" opacity="0.25" style="mix-blend-mode: soft-light;isolation: isolate"/>
    <path id="Path_21751" data-name="Path 21751" d="M2179.936,1048.516a58.774,58.774,0,0,1,9.5-30.378A67.406,67.406,0,0,0,2179.936,1048.516Z" opacity="0.25" style="mix-blend-mode: soft-light;isolation: isolate"/>
    <path id="Path_21752" data-name="Path 21752" d="M2142.44,1011.679c-1.693-.093-3.448-.219-5.2-.375l4.076.282,1.379.093c4.044.283,8.182.5,12.446.722,2.257.094,4.577.188,6.929.282,4.357.157,8.809.282,13.355.345,1.505.031,3.041.062,4.609.062q6.442.094,13.073,0S2172.694,1013.749,2142.44,1011.679Z" opacity="0.25" style="mix-blend-mode: soft-light;isolation: isolate"/>
    <path id="Path_21755" data-name="Path 21755" d="M2053.843,997.917a3.464,3.464,0,0,0,.219,1.16l-.282-.094Z"/>
    <path id="Path_21756" data-name="Path 21756" d="M2192.946,1013.247c-.345.439-.69.878-1.066,1.348C2192.382,1013.937,2192.758,1013.5,2192.946,1013.247Z"/>
  </g>
</svg>
